<?xml version="1.0" encoding="utf-8"?>
<!-- Generator: Adobe Illustrator 27.6.1, SVG Export Plug-In . SVG Version: 6.00 Build 0)  -->
<svg version="1.1" id="Layer_1" xmlns="http://www.w3.org/2000/svg" xmlns:xlink="http://www.w3.org/1999/xlink" x="0px" y="0px"
	 viewBox="0 0 720 360" style="enable-background:new 0 0 720 360;" xml:space="preserve">
<style type="text/css">
	.st0{display:none;}
	.st1{display:inline;}
	.st2{display:inline;clip-path:url(#SVGID_00000076581134106543252160000016463424990530192801_);}
	.st3{fill:#50B5FF;}
	.st4{fill:#693A32;}
	.st5{fill:#FAAF5E;stroke:#693A32;stroke-width:4;}
	.st6{fill:#50B5FF;stroke:#693A32;stroke-width:10;}
</style>
<g class="st0">
	<defs>
		<rect id="SVGID_1_" x="103.7" y="94.7" width="512" height="170"/>
	</defs>
	<clipPath id="SVGID_00000016060079270701318430000010175557590203324344_" class="st1">
		<use xlink:href="#SVGID_1_"  style="overflow:visible;"/>
	</clipPath>
	<g style="display:inline;clip-path:url(#SVGID_00000016060079270701318430000010175557590203324344_);">
		<g>
			<path class="st3" d="M361,180.2c-0.4,2.9-2.5,5.3-6.4,7.2c-4.8,2.4-9.4,2.7-13.7,0.8c-6.4-2.7-9.5-9.6-9.2-20.7
				c0.1-4.2,0.8-8.9,2-14c-1.7,3.5-3.5,6.5-5.4,9.1c-2,2.6-4.3,4.9-6.9,6.9c-2.6,2-5.6,3.5-9.1,4.3c-3.4,0.8-7.2,1-11.4,0.5
				c-5.7-0.6-10.5-3.2-14.2-8.1c-3.8-4.8-5.7-10.3-5.7-16.4c0-7,2.4-12.9,7.3-17.9c5-5,10.9-7.5,17.9-7.5c6.3,0,11.2,1.9,14.5,5.8
				c2.9,3.2,3.5,6.4,1.8,9.5c-1.4,2.8-4.3,4.7-8.8,5.9c0.8-1.4,0.8-2.5,0.2-3.3c-0.6-0.9-1.5-1.3-2.8-1.3c-2,0-3.3,1.2-4,3.5
				c-0.7,2.6-0.1,4.7,1.7,6.4c1.3,1.2,3,1.7,5.1,1.7c2,0,3.9-0.4,5.8-1.3c1.8-0.9,3.5-2.2,4.9-3.9c1.5-1.7,2.8-3.3,3.7-4.6
				c1-1.4,2.1-3.1,3.3-5.1c1.7-3.3,3-5.8,4-7.4c3.7-7.3,6.8-12.7,9.2-16.2c0.1-0.1,0.3-0.5,0.8-1.3c0.5-0.8,0.8-1.2,0.8-1.3h-0.3
				c-0.8-0.2-1.5-0.3-2-0.3V111c-1.3-0.3-2.7-0.4-4.2-0.3c-1.5,0.1-2.8,0.3-4.1,0.6c-1.2,0.3-2.2,0.9-3,2c-0.8,1-1.3,2.2-1.5,3.8
				c0,1.7,0.6,3,1.7,3.9c1.2,0.8,2.6,0.7,4.2-0.2c-1.1,2.1-2.7,3.7-4.8,4.9c-2.1,1.1-4.3,1.6-6.7,1.5c-3.1-0.3-5.9-1.6-8.3-3.9
				c-2.3-2.3-3.4-4.9-3.3-7.8c0-2.9,0.8-5.4,2.3-7.5c1.6-2.2,3.6-3.8,6.1-4.8c0.2-0.2,0.6-0.4,1-0.5h0.2c1.2-0.4,2.4-0.7,3.6-0.8
				c0.6-0.1,1.3-0.1,2.1-0.1h0.1c2-0.1,4.3,0.1,6.8,0.4c2.6,0.3,5.2,0.9,8,1.7c2.8,0.7,5.2,1.5,7.2,2.5c5-4.1,9.7-6,13.9-5.7
				c1.9,0.2,3.4,0.9,4.4,2c1.1,1.1,1.8,2.4,2,4c0.2,1.9-0.5,3.6-2,5c-1.5,1.4-3.2,2-5,1.9c0.2-1.6-0.1-2.9-0.9-4
				c-0.8-1.1-2-1.7-3.5-1.9c-1.4-0.1-2.9,0.3-4.4,1.3c3.3,2.3,5.8,5,7.5,8.1c1.7,3.1,2.7,6.1,2.7,9c0.1,2.9-0.4,5.8-1.6,8.7
				c-1.1,2.8-2.7,5.2-4.8,7.2c-2,2-4.5,3.6-7.5,4.6c-3,1-6.2,1.4-9.5,0.9c0.9,0.1,1.6,1,2.1,2.6c0.5,1.5,0.8,3.5,0.9,5.8
				c0.2,2.2,0.6,4.7,1.2,7.4c0.6,2.7,1.4,5.2,2.3,7.5c0.9,2.3,2.3,4.3,4.3,6.1C355.6,178.5,358.1,179.7,361,180.2z M341,134
				l-0.9,2.3c1.8,0.2,3.6,0,5.4-0.6c1.8-0.7,3.4-1.7,4.8-2.9c1.5-1.3,2.7-2.7,3.6-4.4c1-1.7,1.6-3.5,1.8-5.1
				c0.3-1.7,0.1-3.5-0.6-5.2c-0.6-1.8-1.8-3.4-3.5-4.7l-0.2,0.5l-0.2,0.1c-1.7,2.4-3.4,5.2-4.9,8.2c-1.5,2.9-2.6,5.2-3.2,6.8
				c-0.1,0.4-0.3,0.9-0.5,1.4c-0.2,0.4-0.4,0.8-0.5,1.3c-0.1,0.3-0.3,0.8-0.5,1.3C341.3,133.2,341.1,133.6,341,134z M398.1,153.3
				c-1.8,3.3-4.2,6.8-7,10.5c-2.8,3.7-5.6,6.5-8.5,8.4c-2.4,1.9-5.8,2.8-10,2.6c-4.2-0.1-7.4-1.3-9.7-3.5c-1.8-1.6-3-3.7-3.6-6.3
				c-0.6-2.6-0.6-5.2,0-8c0.6-2.7,1.6-5.5,2.9-8.4c1.3-2.9,3-5.5,5-7.7c2.1-2.2,4.3-4.1,6.6-5.7c2.4-1.6,4.9-2.5,7.4-2.6
				c2.6-0.1,5.1,0.4,7.4,1.7c1.8,0.9,3,2.2,3.6,3.8c0.6,1.6,0.5,3.2-0.1,4.9s-1.6,3.1-3,4.4c-1.3,1.5-3,2.9-4.9,4.3
				c-1.9,1.4-3.5,2.5-4.9,3.2c-1.3,0.8-3.1,1.7-5.3,2.9c0.2,2,0.8,3.3,1.9,4.2c1.1,0.8,2.4,1,3.9,0.8c1.5-0.2,3-0.7,4.5-1.4
				c1.6-0.8,3.1-1.7,4.4-2.8c2.6-2.9,4.5-5.3,5.8-7.1c0.5-0.9,1.3-1.1,2.5-0.6C398.1,151.4,398.5,152.2,398.1,153.3z M375.2,149.8
				c-0.1,0.3-0.2,0.7-0.3,1.2c-0.1,0.4-0.2,0.7-0.2,0.9c2.7-1.2,5.6-3.5,8.7-6.8c3.3-3.7,3.9-5.8,1.7-6.3c-0.3-0.1-0.6-0.1-0.9-0.1
				c-0.9,0-1.9,0.5-3,1.5c-1,1-2.1,2.3-3.2,4.1C376.8,145.9,375.9,147.8,375.2,149.8z M408.5,143.6c4.2-3.5,7.7-6.7,10.5-9.6
				c-0.2-2.1,0.2-4,1.3-5.9c1.1-1.9,2.4-2.9,4-3c0.8-0.1,1.6,0.1,2.3,0.6c0.7,0.4,1.2,1,1.6,1.7c0.3,0.7,0.5,1.4,0.5,2.2
				c0.1,0.7-0.2,1.4-0.7,2c-0.6,0.6-1.3,0.9-2.3,1c1.3,3.3,2.2,6.6,2.8,9.9c0.6,3.3,0.9,6.8,0.7,10.3c-0.1,3.5-0.8,6.7-1.9,9.5
				c-1.1,2.9-2.9,5.4-5.4,7.6c-2.5,2.2-5.7,3.7-9.4,4.5c-5.4,1-10-0.3-14-3.8c-4-3.5-5.9-7.6-5.7-12.4c0.1-3.1,0.8-5.9,2.2-8.5
				c1.4-2.7,3.3-4.6,5.8-5.9C403.2,142.8,405.8,142.7,408.5,143.6z M418.1,153.6c2-4.7,2.6-9.3,1.7-13.8c-0.6,0.6-1.6,1.8-3.2,3.5
				c-1.5,1.6-2.6,2.7-3.1,3.2c1.3,1.3,2,2.8,2.1,4.6c-3.8-0.8-6.1-0.1-6.9,2.1c-0.7,1.7-0.3,3.5,1,5.1c1.7,1.9,3.5,1.9,5.4,0
				C416.2,157.3,417.2,155.7,418.1,153.6z M434.6,171.3c-1.8-1.6-3-3.7-3.6-6.3c-0.6-2.6-0.6-5.2,0-8c0.6-2.7,1.6-5.5,2.9-8.4
				c1.3-2.9,3-5.5,5-7.7c2.1-2.2,4.3-4.1,6.6-5.7c2.4-1.6,4.8-2.5,7.4-2.6c2.6-0.1,5.1,0.4,7.4,1.7c3.2,1.6,4.5,4.1,3.8,7.5
				c-0.6,3.2-2.6,5.7-5.9,7.3c-2.7,1.4-5.7,1.8-8.9,1.2c2.1-1.2,4.2-3.2,6.4-6.2c2.5-3.5,2.5-5.3,0-5.4c-1.4,0-3,1.1-4.7,3.2
				c-1.7,2.1-3.1,4.7-4.2,7.8c-1,2.8-1.4,5.2-1.3,7.2c0.1,2.2,0.6,3.7,1.7,4.7c1,1,2.3,1.4,3.8,1.3c1.5-0.2,3.1-0.7,4.7-1.4
				c1.7-0.8,3.2-1.7,4.5-2.9c0.3-0.3,0.7-0.8,1.2-1.5c0.6-0.6,1-1.1,1.3-1.4l0.5-0.6c0.3-0.4,0.8-1,1.5-1.9c0.6-0.8,1.1-1.4,1.4-1.8
				c0.5-0.9,1.3-1.1,2.5-0.6c1.3,0.5,1.7,1.3,1.3,2.3c-1.8,3.3-4.2,6.8-7,10.5c-2.8,3.7-5.6,6.5-8.5,8.4c-2.5,1.9-5.9,2.8-10,2.6
				C440.1,174.6,436.9,173.4,434.6,171.3z M469.1,174.6c-1.7-0.1-3.1-0.6-4.2-1.4c-1.1-0.8-1.8-2-2.1-3.5c-0.3-1.5-0.4-3-0.3-4.6
				c0-1.7,0.3-3.6,0.9-5.8s1.3-4.2,1.9-6c0.6-1.9,1.5-3.9,2.5-6.2c1-2.2,1.8-4,2.4-5.4c0.7-1.4,1.5-2.9,2.3-4.6
				c0.9-1.7,1.4-2.8,1.6-3.1c0.1-0.2,0.3-0.5,0.4-0.7c0.1-0.3,0.3-0.5,0.4-0.7l13.4,0.1c-7.5,15.5-10.9,24.7-10.2,27.5
				c0.3,1.7,1.9,0.6,4.7-3.2c4.2-5.7,8.3-13.9,12.5-24.4l14.5,0.1c-0.3,1-1.6,4-3.8,8.8c-2.2,4.8-4,9.2-5.5,13.1
				c-1.5,3.9-1.9,6-1.2,6.3c2.7,1,6.5-2.1,11.5-9.3c0.6-0.9,1.4-1.1,2.6-0.6c1.2,0.5,1.6,1.3,1.3,2.3c-0.9,1.6-2.2,3.6-4,5.9
				c-1.7,2.2-3.7,4.5-5.9,6.7c-2.1,2.2-4.4,4.2-6.8,5.8c-2.4,1.6-4.5,2.5-6.3,2.6c-1.7,0.1-3.1,0.2-4.3,0.2c-1.1-0.1-2-0.3-2.6-0.8
				c-0.6-0.6-1.1-1.1-1.4-1.6c-0.3-0.6-0.5-1.2-0.5-2c0-0.8,0-1.5,0.1-2.1c0.1-0.6,0.2-1.3,0.3-2c0.1-0.7,0.2-1.2,0.2-1.4
				C479.6,171.7,474.7,175,469.1,174.6z M548.1,153.3c-1.8,3.3-4.2,6.8-7,10.5c-2.8,3.7-5.6,6.5-8.5,8.4c-2.4,1.9-5.8,2.8-10,2.6
				c-4.2-0.1-7.4-1.3-9.7-3.5c-1.8-1.6-3-3.7-3.6-6.3c-0.6-2.6-0.6-5.2,0-8c0.6-2.7,1.6-5.5,2.9-8.4c1.3-2.9,3-5.5,5-7.7
				c2.1-2.2,4.3-4.1,6.6-5.7c2.4-1.6,4.9-2.5,7.4-2.6c2.6-0.1,5.1,0.4,7.4,1.7c1.8,0.9,3,2.2,3.6,3.8s0.5,3.2-0.1,4.9
				s-1.6,3.1-3,4.4c-1.3,1.5-3,2.9-4.9,4.3c-1.9,1.4-3.5,2.5-4.9,3.2c-1.3,0.8-3.1,1.7-5.3,2.9c0.2,2,0.8,3.3,1.9,4.2
				c1.1,0.8,2.4,1,3.9,0.8c1.5-0.2,3-0.7,4.5-1.4c1.6-0.8,3.1-1.7,4.4-2.8c2.6-2.9,4.5-5.3,5.8-7.1c0.5-0.9,1.3-1.1,2.5-0.6
				C548.1,151.4,548.5,152.2,548.1,153.3z M525.1,149.8c-0.1,0.3-0.2,0.7-0.3,1.2c-0.1,0.4-0.2,0.7-0.2,0.9c2.7-1.2,5.6-3.5,8.7-6.8
				c3.3-3.7,3.9-5.8,1.7-6.3c-0.3-0.1-0.6-0.1-0.9-0.1c-0.9,0-1.9,0.5-3,1.5c-1,1-2.1,2.3-3.2,4.1
				C526.7,145.9,525.8,147.8,525.1,149.8z"/>
			<path class="st4" d="M361,180.2l3,0.4l0.4-2.9l-2.9-0.5L361,180.2z M354.6,187.4l1.4,2.7l0,0L354.6,187.4z M340.9,188.2l1.2-2.8
				l0,0l0,0L340.9,188.2z M331.7,167.5l-3-0.1v0l0,0L331.7,167.5z M333.7,153.5l2.9,0.7l-5.6-2L333.7,153.5z M328.2,162.6l2.4,1.8
				L328.2,162.6z M321.3,169.5l-1.8-2.4l0,0l0,0L321.3,169.5z M312.2,173.8l-0.7-2.9l0,0L312.2,173.8z M300.8,174.3l0.3-3l0,0l0,0
				L300.8,174.3z M286.6,166.2l-2.4,1.8l0,0L286.6,166.2z M288.3,131.9l-2.1-2.1v0L288.3,131.9z M320.7,130.1l-2.3,2l0,0l0,0
				L320.7,130.1z M322.5,139.7l-2.6-1.4l0,0l0,0L322.5,139.7z M313.7,145.5l-2.6-1.4l-3.3,6l6.7-1.7L313.7,145.5z M313.9,142.2
				l-2.6,1.6l0.1,0.1l0.1,0.1L313.9,142.2z M311.1,140.9v3h0.1l0.1,0L311.1,140.9z M307.1,144.4l-2.9-0.8l0,0L307.1,144.4z
				 M308.8,150.7l2.1-2.2l0,0l0,0L308.8,150.7z M313.9,152.4v-3h0l0,0L313.9,152.4z M319.7,151.2l1.3,2.7l0,0l0,0L319.7,151.2z
				 M324.6,147.3l-2.3-2l0,0L324.6,147.3z M328.2,142.7l-2.5-1.7l0,0l0,0L328.2,142.7z M331.6,137.6l2.5,1.6l0.1-0.1l0.1-0.1
				L331.6,137.6z M335.6,130.1l2.6,1.6l0.1-0.1l0.1-0.1L335.6,130.1z M344.8,113.9l-2.1-2.1l-0.2,0.2l-0.2,0.2L344.8,113.9z
				 M345.6,112.6l-2.5-1.6l0,0L345.6,112.6z M346.4,111.4l2.1,2.1l5.1-5.1h-7.2V111.4z M346.1,111.4l-0.7,2.9l0.4,0.1h0.4V111.4z
				 M344.1,111.1h-3v3h3V111.1z M344.1,111h3v-2.4l-2.4-0.5L344.1,111z M340,110.7l-0.1-3l0,0L340,110.7z M335.9,111.3l0.7,2.9
				l0.1,0l0.1,0L335.9,111.3z M332.8,113.3l2.3,2l0,0l0,0L332.8,113.3z M331.4,117l-3-0.3l0,0.1v0.1H331.4z M333.1,120.9l-1.8,2.4
				l0.1,0.1l0.1,0.1L333.1,120.9z M337.2,120.7l2.6,1.4l4.9-9.1l-9,5.1L337.2,120.7z M332.4,125.6l1.4,2.6l0,0l0,0L332.4,125.6z
				 M325.7,127.1l-0.3,3l0.1,0l0.1,0L325.7,127.1z M317.5,123.2l-2.1,2.1l0,0l0,0L317.5,123.2z M314.1,115.4l3,0.1l0,0v0H314.1z
				 M316.4,107.8L314,106l0,0l0,0L316.4,107.8z M322.5,103l1.2,2.8l0.5-0.2l0.4-0.4L322.5,103z M323.5,102.5v-3h-0.4l-0.4,0.1
				L323.5,102.5z M323.7,102.5v3h0.5l0.5-0.2L323.7,102.5z M327.3,101.7l0.4,3l0,0l0,0L327.3,101.7z M329.5,101.6v3h0.1l0.1,0
				L329.5,101.6z M336.3,102l-0.4,3l0,0L336.3,102z M344.3,103.6l-0.8,2.9l0,0l0,0L344.3,103.6z M351.5,106.2l-1.3,2.7l1.7,0.8
				l1.5-1.2L351.5,106.2z M365.4,100.5l0.3-3l0,0l0,0L365.4,100.5z M369.8,102.5l-2.2,2.1l0,0l0,0L369.8,102.5z M371.8,106.5l3-0.3
				l0,0l0,0L371.8,106.5z M369.8,111.5l2,2.2l0,0l0,0L369.8,111.5z M364.8,113.4l-3-0.4l-0.4,3.1l3.2,0.2L364.8,113.4z M363.8,109.4
				l-2.4,1.8l0,0l0,0L363.8,109.4z M360.4,107.5l-0.3,3l0,0l0,0L360.4,107.5z M356,108.8l-1.6-2.5l-3.8,2.4l3.7,2.6L356,108.8z
				 M363.5,116.8l-2.6,1.5l0,0L363.5,116.8z M366.2,125.8l-3,0.1v0l0,0L366.2,125.8z M364.7,134.5l-2.8-1.1l0,0l0,0L364.7,134.5z
				 M359.8,141.7l-2.1-2.2l0,0l0,0L359.8,141.7z M352.3,146.4l-1-2.8L352.3,146.4z M342.8,147.3l0.4-3l-0.8,5.9L342.8,147.3z
				 M344.9,149.9l-2.9,0.9l0,0l0,0L344.9,149.9z M345.8,155.7l-3,0.2l0,0l0,0L345.8,155.7z M347,163.1l-2.9,0.6l0,0l0,0L347,163.1z
				 M349.3,170.6l-2.8,1.1l0,0l0,0L349.3,170.6z M353.6,176.7l2-2.2l0,0L353.6,176.7z M341,134l2.8,1.1l0-0.1l0-0.1L341,134z
				 M340.1,136.3l-2.8-1.1l-1.5,3.7l3.9,0.5L340.1,136.3z M345.5,135.7l1,2.8l0,0l0,0L345.5,135.7z M350.3,132.7l-2-2.3l0,0l0,0
				L350.3,132.7z M353.9,128.3l-2.6-1.5l0,0l0,0L353.9,128.3z M355.7,123.2l-3-0.5l0,0.1l0,0.1L355.7,123.2z M355,118l-2.8,1l0,0.1
				l0,0.1L355,118z M351.6,113.3l1.9-2.4l-3.2-2.5l-1.5,3.7L351.6,113.3z M351.4,113.8l1.3,2.7l1-0.5l0.4-1.1L351.4,113.8z
				 M351.2,113.9l-1.3-2.7l-0.7,0.3l-0.4,0.6L351.2,113.9z M346.2,122.1l2.7,1.4l0,0l0,0L346.2,122.1z M343,128.9l-2.8-1.1l0,0.1
				l0,0.1L343,128.9z M342.5,130.2l2.7,1.3l0-0.1l0-0.1L342.5,130.2z M341.9,131.5l2.8,1.1l0-0.1l0-0.1L341.9,131.5z M341.4,132.7
				l-2.8-1.2l0,0.1l0,0.1L341.4,132.7z M358,179.7c-0.2,1.5-1.4,3.2-4.8,5l2.7,5.3c4.3-2.2,7.4-5.2,8-9.5L358,179.7z M353.3,184.7
				c-4.1,2.1-7.8,2.2-11.2,0.8l-2.4,5.5c5.3,2.3,10.8,1.9,16.3-0.9L353.3,184.7z M342.1,185.5c-4.7-2-7.7-7.2-7.4-17.9l-6-0.2
				c-0.3,11.5,2.9,20.1,11,23.6L342.1,185.5z M334.7,167.6c0.1-4,0.8-8.4,1.9-13.5l-5.8-1.3c-1.2,5.3-1.9,10.2-2.1,14.6L334.7,167.6
				z M331,152.2c-1.6,3.3-3.3,6.2-5.1,8.6l4.8,3.6c2.1-2.8,4-6,5.8-9.6L331,152.2z M325.8,160.8c-1.8,2.4-3.9,4.5-6.3,6.3l3.6,4.8
				c2.9-2.2,5.4-4.7,7.5-7.5L325.8,160.8z M319.5,167.1c-2.2,1.7-4.8,3-8,3.7l1.4,5.8c3.9-0.9,7.3-2.5,10.3-4.8L319.5,167.1z
				 M311.5,170.9c-3,0.7-6.4,0.9-10.3,0.5l-0.7,6c4.5,0.5,8.6,0.3,12.5-0.6L311.5,170.9z M301.1,171.3c-4.8-0.5-8.9-2.7-12.2-6.9
				l-4.7,3.7c4.2,5.4,9.7,8.6,16.3,9.2L301.1,171.3z M288.9,164.4c-3.4-4.3-5-9.1-5-14.6h-6c0,6.8,2.1,12.9,6.3,18.3L288.9,164.4z
				 M283.9,149.8c0-6.2,2.1-11.4,6.5-15.8l-4.3-4.2c-5.4,5.5-8.2,12.2-8.2,20H283.9z M290.4,134c4.4-4.5,9.6-6.6,15.8-6.6v-6
				c-7.8,0-14.5,2.8-20,8.4L290.4,134z M306.2,127.4c5.7,0,9.6,1.7,12.3,4.7l4.5-3.9c-4.1-4.6-9.8-6.8-16.8-6.8V127.4z M318.5,132.1
				c1.2,1.3,1.7,2.4,1.9,3.3c0.2,0.8,0,1.7-0.5,2.8l5.3,2.8c1.1-2.1,1.5-4.4,1.1-6.7c-0.4-2.3-1.6-4.4-3.3-6.2L318.5,132.1z
				 M319.8,138.3c-0.8,1.7-2.8,3.3-6.8,4.3l1.5,5.8c4.9-1.2,8.8-3.5,10.7-7.4L319.8,138.3z M316.3,147c1-1.8,1.7-4.4,0-6.6l-4.8,3.6
				c-0.1-0.1-0.1-0.2-0.1-0.3c0-0.1,0-0.2,0-0.2c0,0,0,0,0,0.1c0,0.1-0.1,0.3-0.2,0.5L316.3,147z M316.5,140.6
				c-1.3-2.1-3.4-2.8-5.5-2.7l0.3,6c0.3,0,0.4,0,0.3,0c0,0-0.1,0-0.1-0.1c0,0-0.1-0.1-0.1-0.1L316.5,140.6z M311.1,137.9
				c-1.6,0-3.2,0.5-4.5,1.6c-1.2,1.1-2,2.5-2.4,4.1l5.8,1.6c0.2-0.8,0.5-1,0.5-1.1c0,0,0.1-0.1,0.5-0.1V137.9z M304.2,143.6
				c-0.5,1.7-0.5,3.4-0.1,5.1c0.4,1.7,1.4,3.1,2.6,4.3l4.1-4.4c-0.5-0.5-0.8-1-0.9-1.4c-0.1-0.5-0.1-1.1,0.1-2L304.2,143.6z
				 M306.7,152.9c2,1.9,4.5,2.6,7.3,2.5l-0.2-6c-1.6,0.1-2.4-0.4-3-0.9L306.7,152.9z M313.9,155.4c2.5,0,4.8-0.5,7-1.5l-2.5-5.4
				c-1.4,0.7-2.9,1-4.5,1V155.4z M321,153.8c2.2-1.1,4.1-2.6,5.8-4.6l-4.5-4c-1.2,1.4-2.6,2.4-4,3.2L321,153.8z M326.8,149.3
				c1.6-1.8,2.9-3.4,3.9-4.9l-5-3.4c-0.8,1.2-2,2.6-3.4,4.3L326.8,149.3z M330.7,144.4c1-1.5,2.2-3.2,3.4-5.3L329,136
				c-1.2,2-2.3,3.7-3.3,5L330.7,144.4z M334.3,138.9c1.7-3.3,2.9-5.7,3.9-7.2l-5.1-3.1c-1,1.7-2.4,4.3-4.1,7.6L334.3,138.9z
				 M338.2,131.5c3.7-7.2,6.7-12.5,9-15.9l-4.9-3.4c-2.6,3.7-5.7,9.3-9.4,16.6L338.2,131.5z M346.9,116c0.2-0.2,0.4-0.5,0.4-0.5
				c0.1-0.1,0.1-0.2,0.2-0.3c0.2-0.2,0.4-0.6,0.6-0.9l-5.1-3.2c-0.2,0.4-0.4,0.7-0.5,0.8c-0.1,0.1-0.1,0.1-0.1,0.2c0,0,0,0,0,0
				c0,0,0,0,0.1-0.1c0,0,0.1-0.1,0.2-0.2L346.9,116z M348.1,114.3c0.2-0.4,0.4-0.7,0.5-0.8c0.1-0.1,0.1-0.1,0.1-0.2c0,0,0,0,0,0
				c0,0,0,0-0.1,0.1c0,0-0.1,0.1-0.2,0.2l-4.2-4.2c-0.2,0.2-0.4,0.5-0.4,0.5c-0.1,0.1-0.1,0.2-0.2,0.3c-0.2,0.2-0.4,0.6-0.6,0.9
				L348.1,114.3z M346.4,108.4h-0.3v6h0.3V108.4z M346.9,108.5c-0.9-0.2-1.9-0.4-2.7-0.4v6c0.1,0,0.5,0,1.3,0.2L346.9,108.5z
				 M347.1,111.1V111h-6v0.1H347.1z M344.8,108c-1.6-0.3-3.2-0.5-4.9-0.4l0.3,6c1.2-0.1,2.4,0,3.4,0.3L344.8,108z M339.8,107.7
				c-1.7,0.1-3.2,0.3-4.7,0.7l1.6,5.8c1-0.3,2.2-0.5,3.4-0.5L339.8,107.7z M335.2,108.4c-1.9,0.4-3.5,1.5-4.7,3l4.7,3.7
				c0.5-0.6,0.9-0.8,1.4-0.9L335.2,108.4z M330.6,111.3c-1.3,1.5-2,3.4-2.2,5.4l6,0.5c0.1-1,0.4-1.7,0.8-2.1L330.6,111.3z
				 M328.4,117c0,2.4,0.8,4.7,2.9,6.3l3.6-4.8c-0.2-0.1-0.5-0.4-0.5-1.5H328.4z M331.4,123.4c2.4,1.6,5.1,1.1,7.3-0.1l-3-5.2
				c-0.5,0.3-0.8,0.3-0.9,0.3c0,0-0.1,0-0.1,0c0,0,0,0-0.1,0L331.4,123.4z M334.6,119.3c-0.8,1.6-2,2.8-3.6,3.7l3,5.2
				c2.6-1.5,4.6-3.5,6-6.1L334.6,119.3z M331,123c-1.6,0.9-3.3,1.2-5.1,1.1l-0.4,6c2.9,0.2,5.7-0.4,8.3-1.8L331,123z M326.1,124.1
				c-2.5-0.3-4.6-1.3-6.5-3.1l-4.1,4.4c2.8,2.7,6.2,4.2,10,4.7L326.1,124.1z M319.6,121.1c-1.8-1.8-2.5-3.6-2.5-5.7l-6-0.1
				c-0.1,3.8,1.4,7.2,4.2,10L319.6,121.1z M317.1,115.4c0-2.3,0.6-4.2,1.7-5.8l-4.9-3.5c-1.9,2.7-2.9,5.8-2.9,9.3H317.1z
				 M318.8,109.6c1.3-1.7,2.9-3,4.8-3.8l-2.4-5.5c-2.9,1.3-5.4,3.2-7.3,5.8L318.8,109.6z M324.6,105.1c-0.2,0.2-0.3,0.3-0.4,0.3
				c0,0,0,0,0.1,0l-1.6-5.8c-0.7,0.2-1.6,0.5-2.3,1.3L324.6,105.1z M323.5,105.5h0.2v-6h-0.2V105.5z M324.7,105.3
				c1-0.3,2-0.6,2.9-0.7l-0.7-6c-1.4,0.2-2.8,0.5-4.2,1L324.7,105.3z M327.7,104.6c0.4,0,1-0.1,1.7-0.1v-6c-0.9,0-1.7,0-2.5,0.1
				L327.7,104.6z M329.4,104.6h0.1v-6h-0.1V104.6z M329.6,104.6c1.8-0.1,3.9,0.1,6.3,0.4l0.8-5.9c-2.6-0.4-5.1-0.5-7.3-0.4
				L329.6,104.6z M335.9,104.9c2.4,0.3,4.9,0.9,7.5,1.6l1.6-5.8c-2.8-0.8-5.6-1.4-8.4-1.8L335.9,104.9z M343.5,106.6
				c2.6,0.7,4.8,1.4,6.6,2.3l2.6-5.4c-2.3-1.1-4.9-2-7.8-2.7L343.5,106.6z M353.4,108.5c4.7-3.9,8.6-5.2,11.8-5l0.5-6
				c-5.4-0.4-10.7,2-16.1,6.3L353.4,108.5z M365.1,103.5c1.3,0.1,2.1,0.6,2.5,1.1l4.4-4.1c-1.6-1.8-3.8-2.6-6.3-2.9L365.1,103.5z
				 M367.7,104.6c0.7,0.7,1,1.4,1.1,2.3l5.9-0.8c-0.3-2.2-1.3-4.1-2.8-5.7L367.7,104.6z M368.8,106.8c0.1,0.8-0.1,1.6-1.1,2.5
				l4.1,4.3c2.1-2,3.2-4.6,2.9-7.5L368.8,106.8z M367.8,109.3c-1,0.9-1.9,1.2-2.8,1.1l-0.5,6c2.8,0.2,5.2-0.8,7.3-2.7L367.8,109.3z
				 M367.7,113.8c0.3-2.2-0.1-4.4-1.6-6.2l-4.7,3.7c0.2,0.3,0.4,0.7,0.3,1.7L367.7,113.8z M366.2,107.6c-1.4-1.8-3.3-2.9-5.6-3.1
				l-0.6,6c0.7,0.1,1,0.3,1.3,0.7L366.2,107.6z M360.7,104.5c-2.2-0.2-4.4,0.5-6.3,1.7l3.2,5.1c1.1-0.7,1.9-0.9,2.5-0.8L360.7,104.5
				z M354.2,111.2c3,2.1,5.2,4.5,6.7,7.1l5.2-3c-2-3.5-4.8-6.5-8.4-9L354.2,111.2z M360.9,118.3c1.5,2.7,2.3,5.2,2.3,7.6l6-0.1
				c-0.1-3.5-1.2-7-3.1-10.4L360.9,118.3z M363.2,126c0.1,2.5-0.3,4.9-1.3,7.4l5.5,2.3c1.3-3.2,2-6.6,1.8-10L363.2,126z
				 M361.9,133.4c-1,2.4-2.3,4.5-4.1,6.2l4.2,4.3c2.4-2.3,4.2-5.1,5.5-8.3L361.9,133.4z M357.7,139.6c-1.7,1.7-3.8,3-6.4,3.9l2,5.7
				c3.4-1.2,6.3-2.9,8.7-5.3L357.7,139.6z M351.3,143.5c-2.5,0.9-5.2,1.2-8.2,0.8l-0.7,6c3.8,0.5,7.4,0.1,10.9-1.1L351.3,143.5z
				 M342.3,150.3c-0.2,0-0.4-0.1-0.5-0.2c-0.1-0.1-0.2-0.1-0.2-0.1c0,0,0,0.1,0.1,0.2c0.1,0.1,0.2,0.4,0.2,0.6l5.7-1.7
				c-0.5-1.8-1.7-4.3-4.5-4.7L342.3,150.3z M342,150.8c0.4,1.2,0.7,2.9,0.8,5l6-0.4c-0.1-2.5-0.5-4.6-1.1-6.5L342,150.8z
				 M342.8,155.9c0.2,2.4,0.6,4.9,1.2,7.8l5.9-1.2c-0.5-2.6-0.9-5-1.1-7.1L342.8,155.9z M344.1,163.8c0.7,2.8,1.5,5.4,2.4,7.9
				l5.6-2.1c-0.9-2.2-1.6-4.6-2.2-7.2L344.1,163.8z M346.5,171.7c1.1,2.8,2.8,5.2,5.1,7.2l4-4.5c-1.6-1.5-2.8-3.1-3.5-4.9
				L346.5,171.7z M351.6,178.9c2.5,2.2,5.5,3.6,8.9,4.2l1-5.9c-2.4-0.4-4.4-1.3-5.9-2.7L351.6,178.9z M338.2,132.9l-0.9,2.3l5.6,2.3
				l0.9-2.3L338.2,132.9z M339.7,139.3c2.3,0.3,4.6,0,6.8-0.8l-2-5.7c-1.4,0.5-2.8,0.6-4.1,0.5L339.7,139.3z M346.6,138.5
				c2.1-0.8,4.1-2,5.7-3.5l-4-4.5c-1.1,1-2.4,1.8-3.9,2.4L346.6,138.5z M352.3,135c1.7-1.5,3.2-3.2,4.2-5.2l-5.3-2.9
				c-0.7,1.3-1.7,2.5-2.9,3.5L352.3,135z M356.5,129.8c1.1-2,1.9-4.1,2.1-6.2l-6-0.7c-0.2,1.2-0.6,2.6-1.4,4L356.5,129.8z
				 M358.6,123.7c0.4-2.3,0.1-4.6-0.8-6.8l-5.6,2.2c0.5,1.3,0.6,2.5,0.5,3.6L358.6,123.7z M357.9,117c-0.8-2.4-2.4-4.4-4.4-6.1
				l-3.7,4.7c1.3,1,2.1,2.1,2.5,3.3L357.9,117z M348.8,112.2l-0.2,0.5l5.6,2.2l0.2-0.5L348.8,112.2z M350,111.1l-0.2,0.1l2.7,5.4
				l0.2-0.1L350,111.1z M348.7,112.2c-1.8,2.6-3.6,5.4-5.1,8.5l5.3,2.7c1.5-2.9,3-5.5,4.7-7.8L348.7,112.2z M343.6,120.7
				c-1.5,3-2.7,5.3-3.4,7.1l5.6,2.2c0.6-1.4,1.6-3.6,3.1-6.5L343.6,120.7z M340.1,127.9c-0.1,0.3-0.3,0.7-0.4,1.1l5.5,2.4
				c0.2-0.6,0.4-1.1,0.6-1.6L340.1,127.9z M339.8,128.9c-0.3,0.5-0.5,1.1-0.7,1.6l5.7,1.9c0.1-0.3,0.2-0.6,0.4-0.9L339.8,128.9z
				 M339.2,130.4c-0.1,0.3-0.3,0.7-0.5,1.2l5.5,2.4c0.2-0.5,0.4-0.9,0.6-1.3L339.2,130.4z M338.6,131.8c-0.1,0.4-0.3,0.8-0.4,1.3
				l5.7,1.9c0.1-0.4,0.3-0.8,0.4-1.3L338.6,131.8z M398.1,153.3l2.6,1.5l0.1-0.2l0.1-0.2L398.1,153.3z M391.1,163.7l-2.4-1.8l0,0
				l0,0L391.1,163.7z M382.6,172.1l-1.6-2.5l-0.1,0.1l-0.1,0.1L382.6,172.1z M372.6,174.7l-0.1,3l0,0L372.6,174.7z M362.8,171.3
				l2.1-2.2l0,0l0,0L362.8,171.3z M359.3,165l2.9-0.6l0,0l0,0L359.3,165z M359.3,157l-2.9-0.7L359.3,157z M362.2,148.7l2.7,1.3l0,0
				l0,0L362.2,148.7z M367.2,140.9l-2.2-2.1l0,0l0,0L367.2,140.9z M373.8,135.3l1.7,2.5l0,0l0,0L373.8,135.3z M381.3,132.6l0.2,3
				L381.3,132.6z M388.7,134.3l-1.4,2.7l0,0l0,0L388.7,134.3z M392.3,138.1l-2.8,1l0,0L392.3,138.1z M392.2,143l2.8,1.1L392.2,143z
				 M389.1,147.4l-2-2.2l-0.1,0.1l-0.1,0.1L389.1,147.4z M384.2,151.7l-1.7-2.4l0,0l0,0L384.2,151.7z M379.3,154.9l-1.4-2.6l0,0l0,0
				L379.3,154.9z M373.9,157.9l-1.4-2.6l-1.8,1l0.2,2L373.9,157.9z M375.8,162.1l-1.9,2.3l0.1,0.1l0.1,0.1L375.8,162.1z
				 M379.7,162.9l0.4,3L379.7,162.9z M384.2,161.5l1.2,2.7l0,0l0,0L384.2,161.5z M388.6,158.7l1.9,2.3l0.2-0.1l0.1-0.2L388.6,158.7z
				 M394.4,151.6l2.5,1.7l0.1-0.1l0.1-0.1L394.4,151.6z M396.9,151l-1.1,2.8l0,0l0,0L396.9,151z M375.2,149.8l-2.8-1l0,0.1l0,0.1
				L375.2,149.8z M374.9,151l2.8,0.9l0-0.1l0-0.1L374.9,151z M374.7,151.9h-3v4.6l4.2-1.8L374.7,151.9z M383.4,145.1l2.2,2l0,0l0,0
				L383.4,145.1z M385,138.8l-0.7,2.9l0,0l0,0L385,138.8z M381.1,140.2l-2-2.3l0,0l0,0L381.1,140.2z M377.8,144.3l-2.5-1.6l0,0l0,0
				L377.8,144.3z M395.5,151.8c-1.7,3.1-4,6.5-6.8,10.1l4.7,3.7c2.9-3.8,5.4-7.4,7.3-10.8L395.5,151.8z M388.7,161.9
				c-2.7,3.5-5.2,6-7.7,7.7l3.3,5c3.2-2.1,6.3-5.2,9.2-9.1L388.7,161.9z M380.8,169.7c-1.7,1.3-4.3,2.1-8.1,2l-0.2,6
				c4.7,0.2,8.8-0.8,12-3.2L380.8,169.7z M372.7,171.7c-3.7-0.1-6.2-1.1-7.8-2.6l-4.1,4.4c3,2.8,7,4.1,11.7,4.3L372.7,171.7z
				 M364.8,169c-1.3-1.1-2.2-2.6-2.6-4.7l-5.9,1.3c0.7,3.1,2.2,5.8,4.5,7.9L364.8,169z M362.2,164.3c-0.5-2.1-0.5-4.3,0-6.6
				l-5.8-1.3c-0.7,3.2-0.7,6.3,0,9.3L362.2,164.3z M362.2,157.7c0.6-2.5,1.5-5.1,2.7-7.8l-5.4-2.5c-1.4,3-2.5,6-3.1,9L362.2,157.7z
				 M365,149.9c1.2-2.7,2.7-5,4.5-7l-4.4-4c-2.2,2.5-4.1,5.3-5.5,8.5L365,149.9z M369.4,143c2-2.1,4-3.8,6.1-5.2l-3.3-5
				c-2.5,1.7-4.9,3.7-7.1,6.1L369.4,143z M375.5,137.7c2-1.3,3.9-2,5.9-2.1l-0.3-6c-3.2,0.2-6.2,1.3-9,3.1L375.5,137.7z
				 M381.4,135.6c2-0.1,4,0.3,5.9,1.3l2.8-5.3c-2.8-1.5-5.9-2.2-9-2L381.4,135.6z M387.4,137c1.3,0.6,1.8,1.3,2.1,2.1l5.7-2
				c-0.9-2.5-2.7-4.3-5-5.5L387.4,137z M389.4,139.1c0.3,0.9,0.3,1.8-0.1,2.9l5.6,2.1c0.9-2.3,0.9-4.7,0.1-7L389.4,139.1z
				 M389.3,141.9c-0.5,1.2-1.2,2.3-2.2,3.2l4,4.5c1.7-1.6,3-3.4,3.8-5.6L389.3,141.9z M386.9,145.4c-1.2,1.3-2.6,2.6-4.4,3.9
				l3.5,4.9c2.1-1.5,3.9-3.1,5.4-4.7L386.9,145.4z M382.4,149.3c-1.8,1.3-3.3,2.3-4.6,3l2.9,5.3c1.6-0.9,3.3-2,5.3-3.5L382.4,149.3z
				 M377.8,152.3c-1.3,0.7-3,1.7-5.2,2.9l2.8,5.3c2.2-1.2,4.1-2.2,5.4-3L377.8,152.3z M371,158.2c0.3,2.4,1.1,4.7,3,6.2l3.7-4.7
				c-0.2-0.1-0.6-0.6-0.8-2.2L371,158.2z M374.1,164.5c1.8,1.2,3.9,1.6,6,1.3l-0.8-5.9c-0.8,0.1-1.3,0-1.7-0.3L374.1,164.5z
				 M380.1,165.9c1.8-0.3,3.6-0.8,5.3-1.6l-2.5-5.5c-1.3,0.6-2.5,1-3.7,1.1L380.1,165.9z M385.5,164.2c1.8-0.9,3.5-2,5-3.2l-3.9-4.6
				c-1.1,0.9-2.4,1.8-3.8,2.4L385.5,164.2z M390.8,160.7c2.6-3,4.6-5.4,6-7.4l-4.9-3.4c-1.2,1.7-3,3.9-5.5,6.8L390.8,160.7z
				 M397,153c0,0-0.1,0.2-0.3,0.3c-0.2,0.2-0.4,0.3-0.6,0.3c-0.4,0.1-0.6,0-0.4,0.1l2.3-5.5c-0.9-0.4-2.1-0.7-3.4-0.3
				c-1.4,0.3-2.3,1.3-2.9,2.3L397,153z M395.8,153.8c0.3,0.1,0,0.1-0.3-0.4c-0.1-0.3-0.2-0.6-0.2-0.8c0-0.2,0.1-0.4,0.1-0.4l5.6,2.2
				c0.4-1.1,0.6-2.5-0.2-3.9c-0.7-1.3-1.9-1.9-2.8-2.3L395.8,153.8z M372.3,149.1c-0.1,0.2-0.2,0.6-0.3,1.1l5.8,1.6
				c0.1-0.5,0.3-0.9,0.3-1.2L372.3,149.1z M372,150c-0.2,0.5-0.4,1.2-0.4,1.9h6c0,0.1,0,0.1,0,0.1c0,0,0,0.1,0,0.1c0,0,0,0,0,0
				c0,0,0,0,0,0c0,0,0,0,0-0.1c0,0,0-0.1,0.1-0.2L372,150z M375.9,154.6c3.3-1.4,6.5-4,9.7-7.5l-4.4-4.1c-2.9,3.2-5.5,5.1-7.7,6.1
				L375.9,154.6z M385.6,147.1c1.7-1.9,3.1-3.8,3.6-5.6c0.3-1,0.3-2.4-0.5-3.7c-0.8-1.2-2.1-1.8-3-2l-1.3,5.9c0.2,0-0.3,0-0.7-0.6
				c-0.4-0.6-0.3-1.2-0.3-1.1c0,0.1-0.1,0.4-0.5,1c-0.4,0.6-0.9,1.3-1.7,2.1L385.6,147.1z M385.8,135.9c-0.6-0.1-1.1-0.2-1.7-0.2v6
				c0.2,0,0.2,0,0.2,0L385.8,135.9z M384.1,135.7c-2,0-3.7,1-5,2.2l4,4.5c0.4-0.4,0.7-0.6,0.9-0.7c0.2-0.1,0.2-0.1,0.1-0.1V135.7z
				 M379,138c-1.3,1.2-2.5,2.8-3.7,4.7l5.1,3.2c1-1.6,2-2.8,2.8-3.5L379,138z M375.3,142.7c-1.2,1.9-2.1,3.9-2.9,6.2l5.7,2
				c0.6-1.8,1.4-3.5,2.3-4.9L375.3,142.7z M408.5,143.6l-1,2.8l1.6,0.6l1.3-1.1L408.5,143.6z M419,134l2.2,2.1l0.9-1l-0.1-1.4
				L419,134z M420.2,128.1l-2.6-1.5l0,0l0,0L420.2,128.1z M424.2,125.1l-0.2-3l0,0l0,0L424.2,125.1z M426.5,125.7l-1.7,2.5l0.1,0.1
				l0.1,0.1L426.5,125.7z M428.6,129.6h-3v0.1l0,0.1L428.6,129.6z M427.9,131.6l2.1,2.1l0.1-0.1l0.1-0.1L427.9,131.6z M425.6,132.6
				l-0.4-3l-3.7,0.5l1.3,3.5L425.6,132.6z M421.8,170l2,2.3l0,0l0,0L421.8,170z M412.4,174.5l0.5,3l0.1,0l0.1,0L412.4,174.5z
				 M398.4,170.7l-2,2.3L398.4,170.7z M392.7,158.4l3,0.1l0,0l0,0L392.7,158.4z M394.9,149.9l2.6,1.4l0,0l0,0L394.9,149.9z
				 M400.7,144l-1.3-2.7l0,0l0,0L400.7,144z M418.1,153.6l-2.8-1.2l0,0l0,0L418.1,153.6z M419.8,139.8l2.9-0.6l-1.2-5.9l-4,4.5
				L419.8,139.8z M416.6,143.2l-2.2-2.1l0,0L416.6,143.2z M413.4,146.5l-2.1-2.1l-2.2,2.2l2.2,2.1L413.4,146.5z M415.5,151.1
				l-0.7,2.9l3.8,0.8l-0.1-3.9L415.5,151.1z M408.6,153.2l2.8,1.1l0,0l0,0L408.6,153.2z M409.7,158.3l-2.3,1.9l0,0l0,0L409.7,158.3z
				 M415.1,158.3l-2-2.3l-0.1,0l-0.1,0.1L415.1,158.3z M410.4,145.9c4.2-3.5,7.8-6.8,10.7-9.9l-4.3-4.1c-2.7,2.8-6.1,6-10.2,9.4
				L410.4,145.9z M422,133.7c-0.1-1.5,0.1-2.8,0.9-4.1l-5.2-3c-1.4,2.4-1.9,4.9-1.6,7.7L422,133.7z M422.8,129.7
				c0.8-1.4,1.5-1.6,1.7-1.6l-0.5-6c-2.9,0.3-4.9,2.2-6.3,4.5L422.8,129.7z M424.5,128.1c0.1,0,0.2,0,0.3,0.1l3.4-4.9
				c-1.3-0.9-2.7-1.3-4.3-1.2L424.5,128.1z M425,128.3c0.2,0.1,0.3,0.3,0.4,0.4l5.4-2.7c-0.6-1.2-1.5-2.2-2.7-2.9L425,128.3z
				 M425.4,128.7c0.1,0.3,0.2,0.6,0.2,0.9h6c0-1.2-0.3-2.4-0.8-3.5L425.4,128.7z M425.6,129.9c0,0,0-0.1,0-0.2c0-0.1,0-0.1,0-0.2
				c0-0.1,0-0.1,0,0l4.5,4c1-1.1,1.6-2.6,1.5-4.3L425.6,129.9z M425.8,129.5c0,0,0,0-0.1,0.1c-0.1,0-0.2,0.1-0.5,0.1l0.8,5.9
				c1.5-0.2,2.9-0.8,4-1.9L425.8,129.5z M422.8,133.7c1.2,3.1,2.1,6.3,2.7,9.4l5.9-1.1c-0.7-3.5-1.7-7-3-10.5L422.8,133.7z
				 M425.5,143.1c0.6,3.1,0.8,6.3,0.7,9.6l6,0.2c0.1-3.7-0.1-7.4-0.8-10.9L425.5,143.1z M426.1,152.7c-0.1,3.2-0.7,6-1.7,8.6
				l5.6,2.2c1.3-3.2,1.9-6.7,2.1-10.5L426.1,152.7z M424.5,161.3c-0.9,2.4-2.4,4.5-4.6,6.5l4,4.5c2.8-2.5,4.9-5.4,6.2-8.8
				L424.5,161.3z M419.9,167.7c-2.1,1.8-4.7,3.1-8.1,3.8l1.3,5.9c4.2-0.9,7.8-2.6,10.7-5.2L419.9,167.7z M411.9,171.6
				c-4.5,0.8-8.2-0.2-11.5-3.1l-4,4.5c4.7,4.1,10.3,5.6,16.5,4.5L411.9,171.6z M400.3,168.5c-3.4-3-4.8-6.2-4.6-10l-6-0.3
				c-0.3,5.8,2.1,10.7,6.7,14.7L400.3,168.5z M395.7,158.5c0.1-2.6,0.7-5,1.8-7.1l-5.3-2.9c-1.6,3-2.5,6.3-2.6,9.8L395.7,158.5z
				 M397.6,151.3c1.1-2.2,2.6-3.6,4.5-4.6l-2.7-5.3c-3,1.6-5.4,4-7,7.1L397.6,151.3z M402,146.7c1.8-0.9,3.5-1,5.5-0.3l2-5.6
				c-3.5-1.2-6.9-1.1-10.2,0.6L402,146.7z M420.9,154.7c2.2-5.2,2.9-10.5,1.9-15.6l-5.9,1.2c0.8,3.8,0.3,7.8-1.5,12L420.9,154.7z
				 M417.6,137.8c-0.5,0.6-1.6,1.7-3.2,3.4l4.3,4.2c1.6-1.7,2.7-2.9,3.3-3.5L417.6,137.8z M414.4,141.1c-1.5,1.6-2.6,2.7-3.1,3.2
				l4.2,4.2c0.6-0.6,1.7-1.7,3.2-3.3L414.4,141.1z M411.4,148.6c0.8,0.7,1.1,1.5,1.2,2.5l6-0.2c-0.1-2.6-1.1-4.9-3-6.7L411.4,148.6z
				 M416.2,148.1c-2.1-0.5-4.2-0.6-6.1,0c-2,0.6-3.5,2-4.3,4l5.6,2.1c0.1-0.2,0.1-0.2,0.1-0.2c0,0,0.1-0.1,0.3-0.1
				c0.4-0.1,1.4-0.2,3,0.2L416.2,148.1z M405.8,152c-1.2,3-0.4,5.8,1.5,8.2l4.6-3.8c-0.8-1-0.8-1.6-0.6-2.1L405.8,152z M407.4,160.3
				c1.2,1.3,2.8,2.4,4.9,2.4c2,0,3.6-1,4.9-2.3l-4.2-4.3c-0.7,0.7-0.9,0.6-0.7,0.6c0.1,0,0.1,0,0.1,0c-0.1,0-0.2-0.1-0.5-0.4
				L407.4,160.3z M417.1,160.5c1.6-1.4,2.8-3.4,3.8-5.8l-5.5-2.3c-0.8,2-1.6,3.1-2.2,3.6L417.1,160.5z M434.6,171.3l2.1-2.2l0,0l0,0
				L434.6,171.3z M431,165l2.9-0.6l0,0l0,0L431,165z M431,157l-2.9-0.7L431,157z M434,148.7l2.7,1.3l0,0l0,0L434,148.7z M439,140.9
				l-2.2-2.1l0,0l0,0L439,140.9z M445.6,135.3l1.7,2.5l0,0l0,0L445.6,135.3z M453,132.6l0.2,3L453,132.6z M460.5,134.3L459,137l0,0
				l0,0L460.5,134.3z M464.2,141.9l-2.9-0.6l0,0l0,0L464.2,141.9z M458.4,149.2l-1.4-2.7l0,0L458.4,149.2z M449.5,150.3l-1.5-2.6
				l-7.1,4l8,1.6L449.5,150.3z M455.8,144.2l2.4,1.8l0,0l0,0L455.8,144.2z M455.8,138.7l0.2-3l-0.1,0h-0.1V138.7z M451.1,142
				l-2.3-1.9l0,0L451.1,142z M446.9,149.8l-2.8-1l0,0l0,0L446.9,149.8z M445.7,157l3-0.1l0-0.1l0-0.1L445.7,157z M447.4,161.7
				l-2,2.2L447.4,161.7z M451.1,163l0.3,3l0.1,0l0.1,0L451.1,163z M455.8,161.6l1.2,2.8l0,0l0,0L455.8,161.6z M460.3,158.7l2,2.2
				l0.2-0.2l0.2-0.2L460.3,158.7z M461.5,157.2l-2.2-2l-0.1,0.1l-0.1,0.1L461.5,157.2z M462.8,155.9l2.1,2.1l0.1-0.1l0.1-0.1
				L462.8,155.9z M463.3,155.2l2.3,1.9L463.3,155.2z M464.7,153.4l-2.4-1.8L464.7,153.4z M466.1,151.6l2.3,1.9l0.2-0.2l0.1-0.2
				L466.1,151.6z M468.6,151l-1.1,2.8l0,0l0,0L468.6,151z M469.9,153.3l2.6,1.5l0.1-0.2l0.1-0.2L469.9,153.3z M462.9,163.7l-2.4-1.8
				l0,0l0,0L462.9,163.7z M454.4,172.1l-1.6-2.5l-0.1,0.1l-0.1,0.1L454.4,172.1z M444.3,174.7l-0.1,3L444.3,174.7z M436.6,169
				c-1.3-1.1-2.2-2.6-2.6-4.7l-5.9,1.3c0.7,3.1,2.2,5.8,4.5,7.9L436.6,169z M434,164.3c-0.5-2.1-0.5-4.3,0-6.6l-5.8-1.3
				c-0.7,3.2-0.7,6.3,0,9.3L434,164.3z M434,157.7c0.6-2.5,1.5-5.1,2.7-7.8l-5.4-2.5c-1.4,3-2.5,6-3.1,9L434,157.7z M436.7,149.9
				c1.2-2.7,2.7-5,4.5-7l-4.4-4c-2.2,2.5-4.1,5.3-5.5,8.5L436.7,149.9z M441.2,143c2-2.1,4-3.8,6.1-5.2l-3.3-5
				c-2.5,1.7-4.9,3.7-7.1,6.1L441.2,143z M447.3,137.7c2-1.3,3.9-2,5.9-2.1l-0.3-6c-3.2,0.2-6.2,1.3-9,3.1L447.3,137.7z
				 M453.2,135.6c2-0.1,4,0.3,5.9,1.3l2.8-5.3c-2.8-1.5-5.9-2.2-9-2L453.2,135.6z M459.1,137c1.2,0.6,1.7,1.2,2,1.7
				c0.3,0.5,0.4,1.3,0.2,2.5l5.9,1.2c0.5-2.2,0.3-4.4-0.7-6.4c-1-2-2.7-3.4-4.7-4.4L459.1,137z M461.3,141.3
				c-0.4,2.2-1.7,3.9-4.3,5.2l2.7,5.3c4-2,6.6-5.2,7.4-9.4L461.3,141.3z M457,146.5c-2.1,1.1-4.4,1.4-7,0.9l-1.2,5.9
				c3.8,0.7,7.5,0.3,10.8-1.4L457,146.5z M450.9,152.9c2.6-1.5,5-3.9,7.3-7l-4.8-3.6c-2,2.7-3.9,4.4-5.4,5.3L450.9,152.9z
				 M458.3,145.9c0.7-1,1.3-1.9,1.7-2.8c0.4-0.8,0.8-1.9,0.8-3c0-1.2-0.5-2.5-1.6-3.4c-1-0.8-2.2-1-3.1-1l-0.3,6
				c0.3,0,0.1,0.1-0.3-0.2c-0.2-0.2-0.4-0.4-0.5-0.7c-0.1-0.3-0.1-0.5-0.1-0.6c0-0.2,0-0.1-0.2,0.4c-0.2,0.4-0.6,1-1.1,1.8
				L458.3,145.9z M455.8,135.7c-2.9,0-5.2,2.1-7,4.4l4.7,3.8c0.8-0.9,1.4-1.5,1.9-1.8c0.5-0.3,0.6-0.3,0.5-0.3V135.7z M448.8,140.1
				c-1.9,2.4-3.5,5.3-4.7,8.7l5.7,2c1-2.9,2.3-5.2,3.7-7L448.8,140.1z M444.1,148.8c-1.1,3-1.6,5.8-1.4,8.4l6-0.4
				c-0.1-1.5,0.2-3.5,1.1-6L444.1,148.8z M442.7,157.1c0.1,2.6,0.8,5.1,2.6,6.8l4.1-4.4c-0.2-0.2-0.7-0.8-0.7-2.6L442.7,157.1z
				 M445.3,163.9c1.7,1.6,3.8,2.3,6.1,2l-0.6-6c-0.6,0.1-1-0.1-1.4-0.5L445.3,163.9z M451.5,166c1.8-0.3,3.7-0.8,5.5-1.6l-2.4-5.5
				c-1.4,0.6-2.7,1-3.9,1.1L451.5,166z M457.1,164.4c1.9-0.9,3.7-2,5.3-3.4l-4-4.5c-1.1,1-2.3,1.8-3.8,2.4L457.1,164.4z
				 M462.7,160.6c0.3-0.4,0.7-0.9,1.2-1.5l-4.7-3.7c-0.5,0.6-0.9,1.1-1.1,1.4L462.7,160.6z M463.7,159.2c0.6-0.6,0.9-1,1.1-1.2
				l-4.2-4.2c-0.3,0.3-0.8,0.9-1.4,1.5L463.7,159.2z M465.1,157.8l0.5-0.6l-4.6-3.8l-0.5,0.6L465.1,157.8z M465.6,157.2
				c0.4-0.5,0.9-1.2,1.6-2l-4.8-3.6c-0.6,0.8-1.1,1.4-1.4,1.8L465.6,157.2z M467.1,155.2c0.6-0.8,1.1-1.4,1.3-1.7l-4.7-3.7
				c-0.3,0.4-0.8,1-1.4,1.9L467.1,155.2z M468.7,153c0,0-0.1,0.2-0.3,0.3c-0.2,0.2-0.4,0.3-0.6,0.3c-0.4,0.1-0.6,0-0.4,0.1l2.3-5.5
				c-0.9-0.4-2.1-0.7-3.4-0.3c-1.4,0.3-2.3,1.3-2.9,2.3L468.7,153z M467.5,153.8c0.3,0.1,0,0.1-0.3-0.4c-0.1-0.3-0.2-0.6-0.2-0.8
				c0-0.2,0.1-0.4,0.1-0.4l5.6,2.2c0.4-1.1,0.6-2.5-0.2-3.9c-0.7-1.3-1.9-1.9-2.8-2.3L467.5,153.8z M467.2,151.8
				c-1.7,3.1-4,6.5-6.8,10.1l4.7,3.7c2.9-3.8,5.4-7.4,7.3-10.8L467.2,151.8z M460.5,161.9c-2.7,3.5-5.2,6-7.7,7.7l3.3,5
				c3.2-2.1,6.3-5.2,9.2-9.1L460.5,161.9z M452.6,169.7c-1.8,1.4-4.4,2.1-8.1,2l-0.2,6c4.6,0.2,8.7-0.8,11.9-3.2L452.6,169.7z
				 M444.4,171.7c-3.7-0.1-6.2-1.1-7.8-2.6l-4.1,4.4c3,2.8,7,4.1,11.7,4.3L444.4,171.7z M469.1,174.6l-0.2,3l0,0l0,0L469.1,174.6z
				 M464.9,173.2l-1.8,2.4l0,0l0,0L464.9,173.2z M462.8,169.8l2.9-0.6L462.8,169.8z M462.5,165.2l3,0.1l0-0.1v-0.1H462.5z
				 M463.4,159.4l-2.9-0.8L463.4,159.4z M465.3,153.5l2.8,1l0,0l0,0L465.3,153.5z M467.8,147.3l2.7,1.3l0,0l0,0L467.8,147.3z
				 M470.2,141.9l-2.7-1.3l0,0.1l0,0.1L470.2,141.9z M472.5,137.2l-2.7-1.4l0,0l0,0L472.5,137.2z M474.1,134.1l-2.5-1.7l-0.2,0.3
				l-0.1,0.3L474.1,134.1z M474.5,133.4l2.7,1.3l0,0L474.5,133.4z M474.9,132.6l0-3l-1.6,0l-0.9,1.3L474.9,132.6z M488.3,132.7
				l2.7,1.3l2.1-4.3l-4.7,0L488.3,132.7z M478.2,160.3l2.9-0.6l0,0l0,0L478.2,160.3z M482.9,157l-2.4-1.8l0,0L482.9,157z
				 M495.3,132.6l0-3l-2.1,0l-0.8,1.9L495.3,132.6z M509.9,132.7l2.8,0.9l1.3-3.9l-4.1,0L509.9,132.7z M506.1,141.5l-2.7-1.2
				L506.1,141.5z M500.6,154.6l-2.8-1.1L500.6,154.6z M499.4,160.9l1-2.8l0,0L499.4,160.9z M510.9,151.6l2.5,1.7l0.1-0.1l0-0.1
				L510.9,151.6z M514.8,153.3l2.6,1.5l0.1-0.3l0.1-0.3L514.8,153.3z M510.8,159.1l2.4,1.8l0,0l0,0L510.8,159.1z M505,165.8
				l-2.2-2.1l0,0l0,0L505,165.8z M498.2,171.6l-1.6-2.5l0,0l0,0L498.2,171.6z M491.9,174.2l-0.2-3l0,0l0,0L491.9,174.2z
				 M487.6,174.4l-0.2,3l0.1,0h0.1V174.4z M485,173.6l-2,2.2l0.1,0.1l0.1,0.1L485,173.6z M483.6,172l-2.7,1.3l0,0.1l0,0.1L483.6,172
				z M483.1,170h-3v0.1l0,0.1L483.1,170z M483.2,167.9l3,0.4l0,0l0,0L483.2,167.9z M483.5,165.9l-2.9-0.6L483.5,165.9z M483.7,164.6
				h3v-11.2l-5.6,9.7L483.7,164.6z M469.3,171.6c-1.4-0.1-2.2-0.4-2.7-0.8l-3.5,4.8c1.6,1.2,3.6,1.8,5.7,1.9L469.3,171.6z
				 M466.7,170.8c-0.5-0.4-0.8-0.8-0.9-1.6l-5.9,1.1c0.4,2.1,1.5,4,3.2,5.3L466.7,170.8z M465.7,169.2c-0.2-1.2-0.3-2.5-0.3-3.9
				l-6-0.3c-0.1,1.8,0,3.6,0.4,5.3L465.7,169.2z M465.5,165.2c0-1.3,0.2-2.9,0.8-4.9l-5.8-1.7c-0.7,2.3-1.1,4.6-1.1,6.6H465.5z
				 M466.3,160.3c0.6-2.1,1.2-4.1,1.8-5.8l-5.7-2c-0.6,1.9-1.3,3.9-1.9,6.1L466.3,160.3z M468.2,154.4c0.6-1.8,1.4-3.7,2.4-5.9
				l-5.4-2.5c-1.1,2.3-2,4.5-2.6,6.5L468.2,154.4z M470.6,148.5c1-2.2,1.8-4,2.4-5.4l-5.5-2.5c-0.6,1.4-1.4,3.2-2.4,5.5L470.6,148.5
				z M472.9,143.2c0.7-1.4,1.5-2.9,2.3-4.6l-5.4-2.7c-0.8,1.7-1.6,3.2-2.3,4.6L472.9,143.2z M475.2,138.6c0.9-1.7,1.5-2.9,1.7-3.4
				l-5.6-2.2c0,0,0,0.1-0.1,0.2c-0.1,0.1-0.2,0.3-0.3,0.6c-0.3,0.5-0.6,1.2-1.1,2.1L475.2,138.6z M476.6,135.8
				c0.2-0.3,0.4-0.7,0.6-1.1l-5.4-2.7c-0.1,0.2-0.2,0.3-0.2,0.4L476.6,135.8z M477.2,134.7c0.1-0.2,0.2-0.3,0.2-0.4l-5-3.3
				c-0.2,0.3-0.4,0.7-0.6,1.1L477.2,134.7z M474.9,135.6l13.4,0.1l0-6l-13.4-0.1L474.9,135.6z M485.6,131.4
				c-3.7,7.8-6.5,14-8.2,18.8c-0.9,2.4-1.5,4.4-1.9,6.1c-0.4,1.6-0.6,3.3-0.2,4.7l5.8-1.4c0,0-0.1-0.5,0.3-2
				c0.3-1.3,0.8-3.1,1.7-5.3c1.6-4.5,4.3-10.5,8-18.2L485.6,131.4z M475.2,160.9c0.1,0.7,0.7,2.4,2.5,3c1.7,0.5,3-0.3,3.5-0.7
				c1.3-0.9,2.6-2.5,4-4.4l-4.9-3.5c-0.7,0.9-1.2,1.6-1.7,2.1c-0.5,0.5-0.8,0.8-0.9,0.8c0,0,0.1,0,0.3-0.1c0.2-0.1,0.7-0.2,1.4,0
				c0.7,0.2,1.1,0.6,1.3,1c0.2,0.3,0.2,0.5,0.2,0.5L475.2,160.9z M485.3,158.8c4.4-6,8.7-14.4,12.8-25.1l-5.6-2.2
				c-4.1,10.4-8.1,18.3-12.1,23.7L485.3,158.8z M495.3,135.6l14.5,0.1l0-6l-14.5-0.1L495.3,135.6z M507,131.8
				c-0.3,0.9-1.5,3.6-3.7,8.5l5.5,2.5c2.1-4.7,3.5-7.8,3.9-9.1L507,131.8z M503.4,140.3c-2.2,4.8-4,9.3-5.6,13.2l5.6,2.2
				c1.5-3.9,3.3-8.2,5.5-13L503.4,140.3z M497.8,153.5c-0.8,2-1.4,3.7-1.6,5.1c-0.1,0.6-0.2,1.4-0.1,2.2c0.1,0.8,0.6,2.3,2.3,2.9
				l2-5.6c1.3,0.5,1.5,1.6,1.6,1.8c0,0.2,0,0.2,0.1-0.2c0.1-0.8,0.5-2,1.3-3.9L497.8,153.5z M498.4,163.7c2.9,1.1,5.7-0.4,7.8-2.1
				c2.2-1.8,4.6-4.7,7.2-8.3l-4.9-3.4c-2.5,3.5-4.5,5.8-6.1,7.1c-1.7,1.4-2.2,1-1.9,1.1L498.4,163.7z M513.5,153.2
				c0,0-0.1,0.1-0.2,0.2c-0.2,0.1-0.3,0.2-0.5,0.3c-0.4,0.1-0.6,0-0.3,0.1l2.3-5.5c-0.9-0.4-2.1-0.7-3.4-0.4
				c-1.4,0.3-2.3,1.2-2.9,2.2L513.5,153.2z M512.4,153.7c0.2,0.1,0,0.1-0.3-0.4c-0.1-0.2-0.2-0.5-0.2-0.7c0-0.2,0-0.3,0-0.3l5.7,1.9
				c0.4-1.1,0.4-2.4-0.3-3.7c-0.7-1.2-1.8-1.9-2.7-2.3L512.4,153.7z M512.2,151.8c-0.8,1.4-2.1,3.3-3.8,5.5l4.8,3.6
				c1.8-2.4,3.2-4.4,4.2-6.2L512.2,151.8z M508.5,157.3c-1.7,2.1-3.6,4.3-5.7,6.5l4.3,4.2c2.2-2.3,4.3-4.6,6.1-6.9L508.5,157.3z
				 M502.8,163.8c-1.9,2.1-4,3.8-6.3,5.3l3.3,5c2.6-1.7,5.1-3.8,7.3-6.2L502.8,163.8z M496.5,169.1c-2.2,1.5-3.8,2-4.8,2.1l0.5,6
				c2.5-0.2,5.2-1.4,7.7-3.1L496.5,169.1z M491.6,171.2c-1.6,0.1-3,0.2-4,0.2v6c1.3,0,2.8-0.1,4.5-0.2L491.6,171.2z M487.8,171.4
				c-0.4,0-0.6-0.1-0.8-0.1c-0.1,0-0.1,0-0.2-0.1c0,0,0,0,0,0c0,0,0,0,0,0l-3.7,4.7c1.3,1,2.8,1.4,4.3,1.5L487.8,171.4z M487,171.3
				c-0.5-0.4-0.7-0.7-0.7-0.8l-5.2,3c0.5,0.9,1.2,1.6,2,2.3L487,171.3z M486.3,170.7c-0.1-0.2-0.2-0.4-0.2-0.9l-6,0.5
				c0.1,1.1,0.3,2.1,0.8,3.1L486.3,170.7z M486.1,170c0-0.8,0-1.3,0.1-1.7l-6-0.7c-0.1,0.7-0.1,1.6-0.1,2.5H486.1z M486.2,168.2
				c0.1-0.5,0.1-1.1,0.3-1.7l-5.9-1.2c-0.2,0.8-0.3,1.5-0.4,2.2L486.2,168.2z M486.5,166.5c0.1-0.6,0.3-1.4,0.3-1.9h-6
				c0-0.1,0-0.1,0-0.1c0,0,0,0.1,0,0.2c0,0.2-0.1,0.4-0.1,0.7L486.5,166.5z M481.1,163.1c-3.8,6.6-7.8,8.9-11.8,8.6l-0.4,6
				c7.3,0.5,13.1-3.9,17.5-11.5L481.1,163.1z M548.1,153.3l2.6,1.5l0.1-0.2l0.1-0.2L548.1,153.3z M541,163.7l-2.4-1.8l0,0l0,0
				L541,163.7z M532.6,172.1l-1.6-2.5l-0.1,0.1l-0.1,0.1L532.6,172.1z M522.5,174.7l-0.1,3l0,0L522.5,174.7z M512.8,171.3l2.1-2.2
				l0,0l0,0L512.8,171.3z M509.2,165l2.9-0.6l0,0l0,0L509.2,165z M509.2,157l-2.9-0.7L509.2,157z M512.2,148.7l2.7,1.3l0,0l0,0
				L512.2,148.7z M517.2,140.9l-2.2-2.1l0,0l0,0L517.2,140.9z M523.8,135.3l1.7,2.5l0,0l0,0L523.8,135.3z M531.2,132.6l0.2,3
				L531.2,132.6z M538.6,134.3l-1.4,2.7l0,0l0,0L538.6,134.3z M542.2,138.1l-2.8,1l0,0L542.2,138.1z M542.1,143l2.8,1.1L542.1,143z
				 M539.1,147.4l-2-2.2l-0.1,0.1l-0.1,0.1L539.1,147.4z M534.1,151.7l-1.7-2.4l0,0l0,0L534.1,151.7z M529.2,154.9l-1.4-2.6l0,0l0,0
				L529.2,154.9z M523.9,157.9l-1.4-2.6l-1.8,1l0.2,2L523.9,157.9z M525.8,162.1l-1.9,2.3l0.1,0.1l0.1,0.1L525.8,162.1z
				 M529.6,162.9l0.4,3L529.6,162.9z M534.1,161.5l1.2,2.7l0,0l0,0L534.1,161.5z M538.5,158.7l1.9,2.3l0.2-0.1l0.1-0.2L538.5,158.7z
				 M544.3,151.6l2.5,1.7l0.1-0.1l0.1-0.1L544.3,151.6z M546.8,151l-1.1,2.8l0,0l0,0L546.8,151z M525.1,149.8l-2.8-1l0,0.1l0,0.1
				L525.1,149.8z M524.8,151l2.8,0.9l0-0.1l0-0.1L524.8,151z M524.6,151.9h-3v4.6l4.2-1.8L524.6,151.9z M533.3,145.1l2.2,2l0,0l0,0
				L533.3,145.1z M535,138.8l-0.7,2.9l0,0l0,0L535,138.8z M531,140.2l-2-2.3l0,0l0,0L531,140.2z M527.8,144.3l-2.5-1.6l0,0l0,0
				L527.8,144.3z M545.4,151.8c-1.7,3.1-4,6.5-6.8,10.1l4.7,3.7c2.9-3.8,5.4-7.4,7.3-10.8L545.4,151.8z M538.7,161.9
				c-2.7,3.5-5.2,6-7.7,7.7l3.3,5c3.2-2.1,6.3-5.2,9.2-9.1L538.7,161.9z M530.7,169.7c-1.7,1.3-4.3,2.1-8.1,2l-0.2,6
				c4.7,0.2,8.8-0.8,12-3.2L530.7,169.7z M522.6,171.7c-3.7-0.1-6.2-1.1-7.8-2.6l-4.1,4.4c3,2.8,7,4.1,11.7,4.3L522.6,171.7z
				 M514.8,169c-1.3-1.1-2.2-2.6-2.6-4.7l-5.9,1.3c0.7,3.1,2.2,5.8,4.5,7.9L514.8,169z M512.1,164.3c-0.5-2.1-0.5-4.3,0-6.6
				l-5.8-1.3c-0.7,3.2-0.7,6.3,0,9.3L512.1,164.3z M512.2,157.7c0.6-2.5,1.5-5.1,2.7-7.8l-5.4-2.5c-1.4,3-2.5,6-3.1,9L512.2,157.7z
				 M514.9,149.9c1.2-2.7,2.7-5,4.5-7l-4.4-4c-2.2,2.5-4.1,5.3-5.5,8.5L514.9,149.9z M519.4,143c2-2.1,4-3.8,6.1-5.2l-3.3-5
				c-2.5,1.7-4.9,3.7-7.1,6.1L519.4,143z M525.5,137.7c2-1.3,3.9-2,5.9-2.1l-0.3-6c-3.2,0.2-6.2,1.3-9,3.1L525.5,137.7z
				 M531.4,135.6c2-0.1,4,0.3,5.9,1.3l2.8-5.3c-2.8-1.5-5.8-2.2-9-2L531.4,135.6z M537.3,137c1.3,0.6,1.8,1.3,2.1,2.1l5.7-2
				c-0.9-2.5-2.7-4.3-5-5.5L537.3,137z M539.4,139.1c0.3,0.9,0.3,1.8-0.1,2.9l5.6,2.1c0.9-2.3,0.9-4.7,0.1-7L539.4,139.1z
				 M539.3,141.9c-0.5,1.2-1.2,2.3-2.2,3.2l4,4.5c1.7-1.6,3-3.4,3.8-5.6L539.3,141.9z M536.8,145.4c-1.2,1.3-2.6,2.6-4.4,3.9
				l3.5,4.9c2.1-1.5,3.9-3.1,5.4-4.7L536.8,145.4z M532.4,149.3c-1.8,1.3-3.3,2.3-4.6,3l2.9,5.3c1.6-0.9,3.3-2,5.3-3.5L532.4,149.3z
				 M527.7,152.3c-1.3,0.7-3,1.7-5.2,2.9l2.8,5.3c2.2-1.2,4.1-2.2,5.4-3L527.7,152.3z M520.9,158.2c0.3,2.4,1.1,4.7,3,6.2l3.7-4.7
				c-0.2-0.1-0.6-0.6-0.8-2.2L520.9,158.2z M524.1,164.5c1.8,1.2,3.9,1.6,6,1.3l-0.8-5.9c-0.8,0.1-1.3,0-1.7-0.3L524.1,164.5z
				 M530.1,165.9c1.8-0.3,3.6-0.8,5.3-1.6l-2.5-5.5c-1.3,0.6-2.5,1-3.7,1.1L530.1,165.9z M535.4,164.2c1.8-0.9,3.5-2,5-3.2l-3.9-4.6
				c-1.1,0.9-2.4,1.8-3.8,2.4L535.4,164.2z M540.8,160.7c2.6-3,4.6-5.4,6-7.4l-4.9-3.4c-1.2,1.7-3,3.9-5.5,6.8L540.8,160.7z
				 M546.9,153c0,0-0.1,0.2-0.3,0.3c-0.2,0.2-0.4,0.3-0.6,0.3c-0.4,0.1-0.6,0-0.4,0.1l2.3-5.5c-0.9-0.4-2.1-0.7-3.4-0.3
				c-1.4,0.3-2.3,1.3-2.9,2.3L546.9,153z M545.7,153.8c0.3,0.1,0,0.1-0.3-0.4c-0.1-0.3-0.2-0.6-0.2-0.8c0-0.2,0.1-0.4,0.1-0.4
				l5.6,2.2c0.4-1.1,0.6-2.5-0.2-3.9c-0.7-1.3-1.9-1.9-2.8-2.3L545.7,153.8z M522.2,149.1c-0.1,0.2-0.2,0.6-0.3,1.1l5.8,1.6
				c0.1-0.5,0.3-0.9,0.3-1.2L522.2,149.1z M522,150c-0.2,0.5-0.4,1.2-0.4,1.9h6c0,0.1,0,0.1,0,0.1c0,0,0,0.1,0,0.1c0,0,0,0,0,0
				c0,0,0,0,0,0c0,0,0,0,0-0.1c0,0,0-0.1,0.1-0.2L522,150z M525.8,154.6c3.3-1.4,6.5-4,9.7-7.5l-4.4-4.1c-2.9,3.2-5.5,5.1-7.7,6.1
				L525.8,154.6z M535.5,147.1c1.7-1.9,3.1-3.8,3.6-5.6c0.3-1,0.3-2.4-0.5-3.7c-0.8-1.2-2.1-1.8-3-2l-1.3,5.9c0.2,0-0.3,0-0.7-0.6
				c-0.4-0.6-0.3-1.2-0.3-1.1c0,0.1-0.1,0.4-0.5,1c-0.4,0.6-0.9,1.3-1.7,2.1L535.5,147.1z M535.7,135.9c-0.6-0.1-1.1-0.2-1.7-0.2v6
				c0.2,0,0.2,0,0.2,0L535.7,135.9z M534,135.7c-2,0-3.7,1-5,2.2l4,4.5c0.4-0.4,0.7-0.6,0.9-0.7c0.2-0.1,0.2-0.1,0.1-0.1V135.7z
				 M529,138c-1.3,1.2-2.5,2.8-3.7,4.7l5.1,3.2c1-1.6,2-2.8,2.8-3.5L529,138z M525.2,142.7c-1.2,1.9-2.1,3.9-2.9,6.2l5.7,2
				c0.6-1.8,1.4-3.5,2.3-4.9L525.2,142.7z"/>
		</g>
		<g>
			<path class="st3" d="M403.2,188.5c4-2,6.9-3.3,8.5-3.8c1.9-0.6,3.1-0.6,3.7,0c0.1,0,0.2,0.1,0.3,0.2c0.8,1,0.7,3.2-0.5,6.6
				c0,0.2,0.1,0.4,0.2,0.5c0.6,0.3,1.4-0.2,2.4-1.6c1-1.4,1.8-2.9,2.2-4.6c0.4-1.7,0.3-3.1-0.3-4.3l-0.4-0.5c-0.6-0.7-1.6-1-3-1
				C412.1,180,407.8,182.9,403.2,188.5z M416.7,202.2c-2.4,0.5-4.5,0.2-6.3-0.8c-1.7-1.1-2.5-2.9-2.6-5.2c-3.9,1.8-7.9,3.4-12,4.7
				c-0.2,0.3-0.3,0.6-0.3,0.6c-1.6,3.6-2.7,6.9-3.3,9.9c-0.6,2.9-0.8,5.3-0.6,7.2c0.2,1.9,0.7,3.5,1.4,4.7c0.8,1.2,1.7,2,2.7,2.5
				c1.1,0.4,2.3,0.5,3.5,0.2c1.6-0.3,3.1-1.2,4.5-2.6c1.5-1.5,2.3-3.1,2.6-4.7c0.3-1.7-0.2-3.1-1.4-4.2c4-2,7.6-1.5,10.9,1.5
				c3.1,2.7,4.5,6.3,4.2,10.9c-0.4,4.7-3,8.9-7.6,12.5c-3.1,2.4-6.8,4-11,5c-4.1,1-8.3,1-12.5,0c-4.2-1-7.5-3.2-9.9-6.4
				c-6.6-8.8-6.9-19.7-1.2-32.7c-2.4,0.7-5,0.7-7.6-0.1c-2.7-0.8-5-2.3-6.9-4.6c-2-2.4-3-5.2-3.1-8.5c-0.2-3.8,1-7.3,3.8-10.4
				c2.7-3.1,5.9-4.8,9.8-4.9c3.8-0.1,6.7,0.9,8.5,2.8c1.9,1.9,2,4,0.4,6.5c-0.1-0.8-0.9-1.1-2.4-1c-2.2,0-3.6,1.1-4,3.2
				c-0.1,0.4-0.2,0.8-0.2,1.3c0,1.6,0.6,3,1.8,4.2c1.3,1.2,3.2,1.5,6,1c3.4-5.2,7.5-9.7,12.3-13.7c3.4-2.6,6.9-4.5,10.5-5.8
				c3.6-1.3,6.8-1.8,9.6-1.8c2.9,0.1,5.5,0.5,7.7,1.3c2.3,0.7,4.2,1.7,5.8,2.9c2.2,1.8,3.2,4,3,6.6c-0.1,2.5-0.9,5-2.4,7.4
				c-1.5,2.4-3.5,4.6-6,6.6C421.7,200.4,419.2,201.6,416.7,202.2z M460.7,203h10.2c-4.8,5.2-8.2,11.3-10,18.4
				c-1.3,5.2-1.2,8.3,0.4,9.3c2,1.2,5.3-1.7,10.2-8.6c0.1-0.1,0.1-0.2,0.2-0.3c0.2-0.3,0.5-0.6,0.9-0.7c0.4-0.1,0.8-0.1,1.2,0
				c0.4,0.1,0.8,0.2,1.2,0.4c0.3,0.2,0.6,0.5,0.7,0.8c0.1,0.3,0.1,0.7,0,1.2c-3.8,7-8.1,12.5-12.8,16.6c-8,7-13.7,5.7-17.2-4
				c-1.3,1.9-2.6,3.5-4,4.8c-1.3,1.3-2.8,2.4-4.4,3.1c-1.6,0.7-3.3,0.9-5.1,0.5c-1.8-0.4-3.6-1.5-5.3-3.1c-4-3.7-5.1-9.3-3-16.7
				c1.9-6.6,5.3-12.1,10.4-16.5c5.9-5.2,11.5-6.7,17-4.4c2.3,0.9,4.4,2.5,6.3,4.9C458.5,206.1,459.6,204.2,460.7,203z M448.9,220
				c1.1-3.1,1.6-5.7,1.4-7.9c-0.1-2.2-0.9-3.2-2.3-3.2c-1.3,0-2.9,1.1-4.6,3.2c-1.7,2.2-3.1,4.8-4.2,7.9c-1,3-1.5,5.6-1.4,7.8
				c0.2,2.2,1,3.2,2.3,3.2c1.3,0,2.8-1.1,4.5-3.2C446.3,225.6,447.8,223,448.9,220z M466.3,182.5c5.2,2.7,11.9,4,20,3.8
				c1.7-4,3.2-6.8,4.5-8.6c4.3,0.1,8,0.9,10.9,2.4c-0.7,1.2-1.5,2.8-2.4,4.7c0.6-0.1,1.5-0.2,2.6-0.3c1.9-0.3,3.3-0.5,4.2-0.5
				c0.9-0.1,2.1-0.3,3.7-0.4c1.6-0.2,2.8-0.3,3.7-0.2c0.8,0,1.8,0,3,0.1c1.2,0.1,2.1,0.2,2.7,0.5c0.6,0.3,1.3,0.7,2,1.2
				c0.8,0.4,1.4,1,1.8,1.8c0.4,0.7,0.7,1.5,0.9,2.5c0.3,1.5-0.1,3.1-1.4,4.7c-1.2,1.5-3,2.9-5.4,4c-1.8,0.4-3.3,0.2-4.6-0.5
				c1.8-2.6,0.3-4-4.4-4.4c-3.1-0.2-7.4,0.1-12.7,0.8c-3.7,8.9-6.9,17.3-9.5,25.1c-2.6,7.7-3.4,11.8-2.5,12c2.7,1,6.5-2.1,11.5-9.3
				c0.6-0.9,1.4-1.1,2.6-0.6c1.3,0.5,1.7,1.3,1.3,2.3c-1,1.8-2.3,3.8-3.8,5.9c-1.4,2.1-3.1,4.3-5,6.7c-1.9,2.3-3.9,4.3-6.1,5.9
				c-2.1,1.5-4,2.4-5.9,2.5c-4.3,0.6-7.2-0.4-8.9-2.8c-1.7-2.4-2-6-0.8-10.6c0.8-2.9,2.6-7.9,5.3-15c2.7-7.1,5.5-14.1,8.5-20.9
				l-2.4,0.3c-3.1-0.1-5.6-0.6-7.6-1.4c-2-0.8-3.4-1.7-4.2-2.9c-0.8-1.2-1.4-2.5-1.7-4C465.9,185.6,465.9,184.1,466.3,182.5z
				 M509.4,213.9c4.2-3.5,7.7-6.7,10.5-9.6c-0.2-2.1,0.2-4,1.3-5.9c1.1-1.9,2.4-2.9,4-3c0.8-0.1,1.6,0.1,2.3,0.6
				c0.7,0.4,1.2,1,1.6,1.7c0.3,0.7,0.5,1.4,0.5,2.2c0.1,0.7-0.2,1.4-0.7,2c-0.6,0.6-1.3,0.9-2.3,1c1.3,3.3,2.2,6.6,2.8,9.9
				c0.6,3.3,0.9,6.8,0.7,10.3c-0.1,3.5-0.8,6.7-1.9,9.5c-1.1,2.9-2.9,5.4-5.4,7.6c-2.5,2.2-5.7,3.7-9.4,4.5c-5.4,1-10-0.3-14-3.8
				c-4-3.5-5.9-7.6-5.7-12.4c0.1-3.1,0.8-5.9,2.2-8.5c1.4-2.7,3.3-4.6,5.8-5.9C504,213,506.6,212.9,509.4,213.9z M519,223.8
				c2-4.7,2.6-9.3,1.7-13.8c-0.6,0.6-1.6,1.8-3.2,3.5c-1.5,1.6-2.6,2.7-3.1,3.2c1.3,1.3,2,2.8,2.1,4.6c-3.8-0.8-6.1-0.1-6.9,2.1
				c-0.7,1.7-0.3,3.5,1,5.1c1.7,1.9,3.5,1.9,5.4,0C517.1,227.5,518.1,226,519,223.8z"/>
			<path class="st4" d="M403.2,188.5l-3.1-2.5l4.9,6.1L403.2,188.5z M411.7,184.8l-1.1-3.8l0,0l0,0L411.7,184.8z M415.4,184.8
				l-2.8,2.8l1.2,1.2h1.7V184.8z M415.7,185l-3.6,1.8l0.2,0.4l0.3,0.4L415.7,185z M415.2,191.6l-3.8-1.3l-0.2,0.6v0.7H415.2z
				 M415.4,192.1l-2.8,2.8l0.4,0.4l0.5,0.3L415.4,192.1z M417.8,190.5l-3.2-2.4l0,0.1l0,0.1L417.8,190.5z M419.7,181.6l3.5-1.9
				l-0.2-0.3l-0.2-0.3L419.7,181.6z M419.2,181.1l3.1-2.5L419.2,181.1z M416.7,202.2l0.8,3.9l0.1,0l0.1,0L416.7,202.2z M410.4,201.4
				l-2.2,3.3l0.1,0.1l0.1,0L410.4,201.4z M407.8,196.2l4-0.1l-0.2-6.1l-5.5,2.6L407.8,196.2z M395.8,200.9l-1.2-3.8l-1.4,0.5
				l-0.8,1.3L395.8,200.9z M395.5,201.5l3.7,1.6l0.3-0.8v-0.8H395.5z M392.1,211.4l3.9,0.8l0,0l0,0L392.1,211.4z M392.9,223.4
				l-3.5,1.9l0.1,0.1l0.1,0.1L392.9,223.4z M395.6,225.9l-1.7,3.6l0.1,0.1l0.1,0.1L395.6,225.9z M399,226.1l-0.7-3.9l-0.1,0l-0.1,0
				L399,226.1z M403.5,223.5l-2.9-2.8l0,0L403.5,223.5z M406.1,218.8l3.9,0.7l0,0l0,0L406.1,218.8z M404.8,214.6L403,211l-5.2,2.5
				l4.2,4L404.8,214.6z M415.7,216.1l-2.7,3l0,0l0,0L415.7,216.1z M419.9,226.9l4,0.4l0,0l0,0L419.9,226.9z M412.2,239.4l2.4,3.2
				l0,0l0,0L412.2,239.4z M401.2,244.4l-0.9-3.9l0,0l0,0L401.2,244.4z M388.8,244.4l-1,3.9l0,0l0,0L388.8,244.4z M378.8,238
				l-3.2,2.4l0,0l0,0L378.8,238z M377.7,205.4l3.7,1.6l3.5-7.8l-8.2,2.4L377.7,205.4z M370,205.3l-1.1,3.8l0,0L370,205.3z
				 M363.1,200.7l-3.1,2.5l0,0l0,0L363.1,200.7z M360,192.2l4-0.2l0,0l0,0L360,192.2z M363.8,181.8l3,2.7l0,0l0,0L363.8,181.8z
				 M373.6,176.9l-0.1-4l0,0l0,0L373.6,176.9z M382.1,179.7l-2.9,2.7l0,0.1l0.1,0.1L382.1,179.7z M382.5,186.2l-4,0.4l1,11.4
				l6.3-9.6L382.5,186.2z M380.1,185.2v4h0.1l0.1,0L380.1,185.2z M376.1,188.4l3.8,1.3l0.1-0.2l0.1-0.3L376.1,188.4z M377.7,193.9
				l-2.8,2.8l0,0l0,0L377.7,193.9z M383.6,194.9l0.7,3.9l1.7-0.3l0.9-1.4L383.6,194.9z M396,181.2l-2.4-3.2l-0.1,0.1l-0.1,0.1
				L396,181.2z M416.1,173.7l-0.1,4l0,0L416.1,173.7z M423.8,174.9l-1.3,3.8l0.1,0l0.1,0L423.8,174.9z M429.6,177.9l2.6-3.1l0,0l0,0
				L429.6,177.9z M432.6,184.4l4,0.2v0L432.6,184.4z M430.2,191.9l3.4,2.1v0L430.2,191.9z M424.3,198.5l2.4,3.2l0,0l0,0L424.3,198.5
				z M405,192.1c4.1-2,6.6-3.1,7.9-3.5l-2.3-7.7c-2,0.6-5.1,2-9.1,4L405,192.1z M412.8,188.6c0.4-0.1,0.6-0.2,0.9-0.2
				c0.2,0,0.3,0,0.3,0c0,0-0.1,0-0.4-0.1c-0.3-0.1-0.7-0.3-1.1-0.7l5.7-5.7c-1.4-1.4-3.1-1.6-4.2-1.6c-1.2,0-2.3,0.3-3.5,0.6
				L412.8,188.6z M415.4,188.8c-0.6,0-1.4-0.2-2-0.6c-0.7-0.4-1-1-1.2-1.4l7.2-3.6c-0.3-0.5-0.7-1.2-1.5-1.7
				c-0.8-0.5-1.6-0.7-2.4-0.7V188.8z M412.6,187.6c-0.3-0.4-0.4-0.7-0.4-0.8c0-0.1,0,0,0,0.3c0,0.6-0.3,1.7-0.8,3.2l7.6,2.6
				c0.6-1.9,1.1-3.6,1.2-5.2c0.1-1.5,0-3.6-1.4-5.3L412.6,187.6z M411.2,191.6c0,1.2,0.4,2.4,1.4,3.4l5.7-5.7
				c0.3,0.3,0.6,0.7,0.7,1.1c0.2,0.4,0.2,0.9,0.2,1.2H411.2z M413.4,195.6c2,1.1,4,0.5,5.2-0.3c1-0.7,1.8-1.7,2.4-2.5l-6.6-4.6
				c-0.2,0.2-0.3,0.4-0.4,0.5c-0.1,0.1,0,0,0.1-0.1c0.2-0.1,0.5-0.3,1.1-0.4c0.7-0.1,1.3,0.1,1.9,0.4L413.4,195.6z M421,192.9
				c1.4-1.8,2.3-3.8,2.9-6l-7.8-1.9c-0.3,1.2-0.8,2.2-1.5,3.2L421,192.9z M423.8,186.9c0.6-2.4,0.6-4.8-0.7-7.1l-7.1,3.7
				c0,0.1,0.2,0.5,0,1.4L423.8,186.9z M422.8,179.1l-0.4-0.5l-6.2,5l0.4,0.5L422.8,179.1z M422.4,178.6c-1.7-2.1-4.2-2.5-6.2-2.5v8
				c0.2,0,0.4,0,0.5,0c0.1,0,0.1,0,0.1,0c0,0-0.1,0-0.2-0.1c-0.1-0.1-0.3-0.2-0.4-0.4L422.4,178.6z M416.2,176
				c-6,0-11.4,4.1-16.1,10l6.2,5c4.3-5.4,7.6-7,9.9-7V176z M415.9,198.3c-1.7,0.3-2.7,0.1-3.4-0.3l-4.1,6.9c2.8,1.7,5.9,2,9.1,1.3
				L415.9,198.3z M412.7,198.1c-0.4-0.3-0.8-0.7-0.8-2l-8,0.2c0.1,3.4,1.4,6.5,4.4,8.4L412.7,198.1z M406.1,192.5
				c-3.8,1.7-7.6,3.3-11.6,4.5l2.5,7.6c4.3-1.4,8.4-3,12.5-4.9L406.1,192.5z M392.4,198.8c-0.1,0.2-0.3,0.4-0.4,0.7
				c-0.1,0.1-0.1,0.3-0.2,0.5c0,0.1-0.3,0.7-0.3,1.5h8c0,0.4-0.1,0.8-0.1,0.9c0,0.2-0.1,0.3-0.1,0.4c-0.1,0.1-0.1,0.2-0.1,0.3
				c0,0,0,0,0.1-0.1L392.4,198.8z M391.8,199.9c-1.7,3.8-2.9,7.4-3.6,10.7l7.8,1.6c0.6-2.7,1.6-5.7,3.1-9.1L391.8,199.9z
				 M388.2,210.6c-0.7,3.1-1,6-0.7,8.5l8-0.9c-0.1-1.3,0-3.2,0.6-5.9L388.2,210.6z M387.5,219.1c0.2,2.3,0.8,4.4,1.8,6.2l7-3.9
				c-0.4-0.7-0.7-1.7-0.9-3.2L387.5,219.1z M389.5,225.6c1.1,1.7,2.5,3.1,4.4,4l3.4-7.2c-0.2-0.1-0.6-0.4-1.1-1.1L389.5,225.6z
				 M394.2,229.6c1.9,0.7,3.8,0.8,5.8,0.4l-1.8-7.8c-0.4,0.1-0.8,0.1-1.1-0.1L394.2,229.6z M399.7,230c2.6-0.5,4.9-1.9,6.7-3.8
				l-5.8-5.5c-0.9,1-1.7,1.3-2.3,1.4L399.7,230z M406.4,226.2c1.8-1.9,3.2-4.2,3.7-6.8l-7.9-1.4c-0.1,0.6-0.5,1.5-1.6,2.6
				L406.4,226.2z M410.1,219.4c0.5-2.9-0.4-5.7-2.6-7.8l-5.5,5.8c0.1,0.1,0.1,0.1,0.1,0.2c0,0,0,0,0,0c0,0,0,0,0,0.1
				c0,0.1,0,0.2,0,0.3L410.1,219.4z M406.6,218.2c1.4-0.7,2.5-0.8,3.4-0.7c0.9,0.1,1.9,0.5,3,1.6l5.3-6c-2.1-1.9-4.6-3.2-7.3-3.5
				c-2.8-0.4-5.5,0.2-8,1.5L406.6,218.2z M413.1,219.1c2.1,1.8,3.1,4.1,2.8,7.6l8,0.6c0.4-5.7-1.4-10.6-5.6-14.2L413.1,219.1z
				 M415.9,226.6c-0.3,3.4-2.1,6.6-6.1,9.6l4.8,6.4c5.3-4.1,8.7-9.2,9.2-15.3L415.9,226.6z M409.8,236.2c-2.7,2-5.8,3.5-9.5,4.3
				l1.8,7.8c4.7-1.1,8.9-3,12.5-5.7L409.8,236.2z M400.3,240.5c-3.5,0.8-7,0.8-10.6,0l-1.8,7.8c4.8,1.1,9.6,1.1,14.3,0L400.3,240.5z
				 M389.7,240.5c-3.4-0.8-5.9-2.5-7.7-4.9l-6.4,4.8c3,4,7.2,6.6,12.2,7.8L389.7,240.5z M382,235.6c-5.4-7.3-6.1-16.5-0.7-28.6
				l-7.3-3.3c-6.2,13.8-6.1,26.4,1.6,36.7L382,235.6z M376.6,201.5c-1.7,0.5-3.4,0.5-5.4-0.1l-2.2,7.7c3.3,1,6.6,1,9.9,0.1
				L376.6,201.5z M371.2,201.4c-1.8-0.5-3.5-1.6-5-3.4l-6.1,5.2c2.4,2.8,5.4,4.9,8.8,5.9L371.2,201.4z M366.2,198.1
				c-1.4-1.7-2.1-3.6-2.2-6.1l-8,0.3c0.2,4.1,1.5,7.8,4,10.8L366.2,198.1z M364,192c-0.1-2.7,0.7-5.1,2.8-7.5l-6-5.3
				c-3.4,3.8-5,8.3-4.8,13.2L364,192z M366.8,184.4c2-2.3,4.2-3.4,6.9-3.5l-0.3-8c-5.1,0.2-9.4,2.4-12.8,6.3L366.8,184.4z
				 M373.7,180.9c3.2-0.1,4.7,0.7,5.5,1.5l5.9-5.4c-2.9-3.1-7-4.2-11.5-4.1L373.7,180.9z M379.2,182.6c0.2,0.2,0.3,0.4,0.3,0.4
				c0,0,0,0,0,0c0,0,0,0,0,0c0,0,0,0,0,0c0,0,0,0,0,0c0,0,0,0,0,0s0,0,0,0c0,0,0,0,0,0c0,0,0,0.1,0,0.2c-0.1,0.2-0.2,0.4-0.4,0.8
				l6.7,4.4c1.1-1.7,1.9-3.7,1.7-5.9c-0.1-2.3-1.2-4.1-2.7-5.6L379.2,182.6z M386.5,185.9c-0.2-2.1-1.5-3.5-3-4.1
				c-1.2-0.5-2.5-0.6-3.5-0.5l0.4,8c0.6,0,0.4,0.1,0-0.1c-0.3-0.1-0.7-0.4-1.1-0.9c-0.4-0.5-0.6-1.1-0.6-1.6L386.5,185.9z
				 M380.1,181.2c-1.8,0-3.6,0.4-5.2,1.7c-1.6,1.3-2.4,3-2.7,4.8l7.9,1.5c0-0.1,0-0.2,0.1-0.2c0,0,0-0.1,0-0.1c0,0,0,0,0,0.1
				c0,0,0,0-0.1,0.1c0,0,0,0-0.1,0.1c0,0,0,0-0.1,0.1c0,0,0,0-0.1,0c0,0-0.1,0-0.1,0c0,0,0,0,0.1,0c0.1,0,0.1,0,0.3,0V181.2z
				 M372.3,187.2c-0.3,0.8-0.4,1.6-0.4,2.5h8c0,0,0,0,0,0c0,0,0,0,0,0c0,0,0,0,0,0L372.3,187.2z M371.9,189.7c0,2.7,1.1,5.1,3,7
				l5.7-5.7c-0.5-0.5-0.6-0.9-0.6-1.4H371.9z M374.9,196.8c2.6,2.5,6.2,2.7,9.4,2.1l-1.4-7.9c-1.1,0.2-1.7,0.2-2.1,0.1
				c-0.2,0-0.3-0.1-0.3-0.1c0,0,0,0,0,0c0,0,0,0,0,0L374.9,196.8z M387,197.1c3.2-4.8,7-9.1,11.6-12.8l-5.1-6.2
				c-5.1,4.2-9.5,9.1-13.1,14.6L387,197.1z M398.4,184.4c3.1-2.4,6.3-4.1,9.4-5.2l-2.7-7.5c-4,1.4-7.8,3.5-11.5,6.3L398.4,184.4z
				 M407.8,179.2c3.2-1.1,6-1.6,8.2-1.6l0.2-8c-3.5-0.1-7.2,0.6-11.1,2L407.8,179.2z M416,177.7c2.6,0.1,4.8,0.4,6.5,1l2.6-7.6
				c-2.7-0.9-5.7-1.4-9-1.5L416,177.7z M422.7,178.7c1.9,0.6,3.3,1.3,4.4,2.2l5.1-6.2c-2-1.7-4.4-2.8-7.1-3.7L422.7,178.7z
				 M427,180.9c1.3,1.1,1.7,2.1,1.6,3.3l8,0.4c0.2-4-1.4-7.3-4.5-9.9L427,180.9z M428.6,184.2c-0.1,1.8-0.7,3.6-1.8,5.6l6.9,4.1
				c1.8-2.9,2.8-6,3-9.3L428.6,184.2z M426.8,189.8c-1.2,2-2.8,3.8-5,5.5l4.9,6.3c2.9-2.2,5.2-4.8,6.9-7.7L426.8,189.8z
				 M421.9,195.3c-2.2,1.6-4.2,2.6-6.1,3.1l1.9,7.8c3.1-0.8,6.1-2.3,9-4.4L421.9,195.3z M460.7,203v-4h-1.8l-1.2,1.3L460.7,203z
				 M470.9,203l2.9,2.7l6.3-6.7h-9.2V203z M460.8,221.4l-3.9-1l0,0l0,0L460.8,221.4z M461.2,230.7l-2.1,3.4l0,0L461.2,230.7z
				 M471.4,222.1l-2.8-2.8l-0.3,0.2l-0.2,0.3L471.4,222.1z M471.6,221.8l-3.4-2.1l-0.1,0.1L468,220L471.6,221.8z M472.5,221.1
				l-1.3-3.8l0,0L472.5,221.1z M473.7,221.1l-1.5,3.7l0.4,0.2l0.4,0.1L473.7,221.1z M474.8,221.5l2.1-3.4l0,0L474.8,221.5z
				 M475.6,222.3l3.7-1.5l0,0L475.6,222.3z M475.6,223.5l3.5,1.9l0.2-0.3l0.1-0.3L475.6,223.5z M462.8,240.1l-2.6-3l0,0L462.8,240.1
				z M445.6,236.1l3.8-1.4l-2.7-7.5l-4.4,6.6L445.6,236.1z M441.7,241l-2.8-2.9l0,0l0,0L441.7,241z M437.3,244.1l1.6,3.7l0.1,0
				l0.1,0L437.3,244.1z M432.1,244.6l-0.9,3.9l0.1,0l0.1,0L432.1,244.6z M426.8,241.5l2.8-2.9l0,0l0,0L426.8,241.5z M423.8,224.7
				l-3.8-1.1l0,0l0,0L423.8,224.7z M434.1,208.2l2.7,3l0,0L434.1,208.2z M451.1,203.8l-1.6,3.7l0,0l0,0L451.1,203.8z M457.4,208.7
				l-3.1,2.5l4.2,5.2l2.7-6.1L457.4,208.7z M448.9,220l3.7,1.4l0,0l0,0L448.9,220z M450.2,212.2l-4,0.3l0,0.1l0,0.1L450.2,212.2z
				 M443.3,212.2l-3.1-2.5l0,0l0,0L443.3,212.2z M439.1,220l-3.8-1.4l0,0l0,0L439.1,220z M437.8,227.9l-4,0.2l0,0.1l0,0.1
				L437.8,227.9z M444.6,227.9l-3.2-2.5l0,0l0,0L444.6,227.9z M460.7,207h10.2v-8h-10.2V207z M467.9,200.2
				c-5.3,5.7-8.9,12.4-11,20.1l7.7,2c1.7-6.5,4.8-12.1,9.1-16.7L467.9,200.2z M456.9,220.4c-0.7,2.8-1.1,5.3-1,7.4
				c0.1,2,0.7,4.8,3.2,6.3l4.2-6.8c0.9,0.6,0.7,1.3,0.6,0.2c0-1,0.1-2.6,0.8-5.1L456.9,220.4z M459.2,234.1c1.7,1,3.5,1,5,0.5
				c1.4-0.4,2.6-1.3,3.7-2.1c2.1-1.8,4.4-4.6,6.8-8.1l-6.6-4.6c-2.4,3.4-4.2,5.5-5.4,6.6c-0.6,0.5-0.9,0.6-0.9,0.6
				c0.2-0.1,0.8-0.2,1.5,0.3L459.2,234.1z M474.2,225c0.5-0.5,0.8-1,1-1.4L468,220c0,0,0.1-0.1,0.1-0.2c0.1-0.1,0.2-0.3,0.4-0.5
				L474.2,225z M475,223.9c-0.1,0.2-0.3,0.5-0.6,0.7c-0.2,0.2-0.5,0.3-0.6,0.3l-2.5-7.6c-1.2,0.4-2.4,1.2-3.1,2.5L475,223.9z
				 M473.8,224.9c-0.1,0-0.4,0.1-0.7,0.1c-0.3,0-0.6-0.1-0.9-0.2l3-7.4c-1.4-0.6-2.8-0.5-3.9-0.1L473.8,224.9z M473,225
				c0,0-0.1,0-0.1,0c0,0-0.1,0-0.1-0.1l4.1-6.9c-0.8-0.5-1.7-0.8-2.6-0.9L473,225z M472.8,224.9c-0.1-0.1-0.3-0.2-0.5-0.4
				c-0.2-0.2-0.3-0.4-0.4-0.7l7.4-3c-0.5-1.2-1.4-2.2-2.4-2.8L472.8,224.9z M471.9,223.8c-0.1-0.3-0.2-0.6-0.2-0.9
				c0-0.3,0.1-0.5,0.1-0.7l7.6,2.5c0.4-1.2,0.5-2.5-0.1-3.9L471.9,223.8z M472.1,221.6c-3.7,6.7-7.7,11.8-11.9,15.6l5.3,6
				c5.1-4.5,9.6-10.4,13.6-17.7L472.1,221.6z M460.1,237.1c-3.8,3.3-5.8,3.6-6.7,3.4c-0.8-0.2-2.4-1.2-4-5.7l-7.5,2.7
				c1.9,5.2,4.8,9.7,9.8,10.8c4.9,1.1,9.6-1.5,13.8-5.2L460.1,237.1z M442.3,233.9c-1.1,1.7-2.3,3-3.4,4.1l5.5,5.8
				c1.6-1.6,3.2-3.4,4.6-5.5L442.3,233.9z M438.8,238.1c-1,1-2.1,1.8-3.3,2.4l3.5,7.2c2-1,3.9-2.3,5.5-3.9L438.8,238.1z
				 M435.7,240.4c-0.8,0.4-1.7,0.5-2.8,0.3l-1.5,7.9c2.6,0.5,5.1,0.3,7.5-0.8L435.7,240.4z M433,240.7c-0.9-0.2-2.1-0.8-3.5-2.1
				l-5.5,5.8c2.1,2,4.5,3.5,7.2,4.2L433,240.7z M429.5,238.5c-2.5-2.3-3.7-6.1-1.9-12.7l-7.7-2.1c-2.2,8.2-1.4,15.6,4.2,20.7
				L429.5,238.5z M427.6,225.8c1.7-5.8,4.7-10.7,9.2-14.7l-5.3-6c-5.6,5-9.5,11.1-11.5,18.4L427.6,225.8z M436.8,211.2
				c5.2-4.6,9.2-5.2,12.7-3.7l3.1-7.4c-7.3-3.1-14.6-0.8-21.2,5.1L436.8,211.2z M449.6,207.5c1.5,0.6,3.1,1.7,4.6,3.7l6.3-5
				c-2.2-2.8-4.9-4.9-7.9-6.2L449.6,207.5z M461,210.3c1-2.4,2-3.9,2.7-4.7l-6-5.3c-1.5,1.7-2.8,4.1-4,6.8L461,210.3z M452.6,221.4
				c1.2-3.4,1.9-6.6,1.6-9.6l-8,0.8c0.1,1.3-0.1,3.3-1.1,6.1L452.6,221.4z M454.2,211.9c-0.1-1.4-0.4-3.1-1.4-4.5
				c-1.2-1.7-3-2.5-4.9-2.5v8c-0.2,0-0.5,0-0.9-0.2c-0.4-0.2-0.6-0.4-0.8-0.7c-0.1-0.2-0.2-0.3-0.1-0.2c0,0.1,0.1,0.3,0.1,0.6
				L454.2,211.9z M447.9,204.9c-1.8,0-3.3,0.7-4.5,1.5c-1.2,0.8-2.3,1.9-3.3,3.2l6.2,5c0.7-0.9,1.3-1.4,1.6-1.7
				c0.4-0.3,0.3-0.1-0.2-0.1V204.9z M440.2,209.7c-2,2.5-3.6,5.5-4.8,8.9l7.5,2.7c1-2.8,2.2-5,3.6-6.8L440.2,209.7z M435.4,218.7
				c-1.2,3.3-1.8,6.5-1.6,9.4l8-0.5c-0.1-1.5,0.2-3.6,1.1-6.3L435.4,218.7z M433.8,228.3c0.1,1.4,0.5,3,1.5,4.4
				c1.1,1.6,2.9,2.5,4.8,2.5v-8c0.2,0,0.6,0.1,0.9,0.2c0.4,0.2,0.6,0.4,0.7,0.6c0.1,0.2,0.1,0.2,0.1,0.1c0-0.1-0.1-0.3-0.1-0.7
				L433.8,228.3z M440.1,235.1c1.8,0,3.3-0.7,4.5-1.6c1.2-0.8,2.2-2,3.2-3.2l-6.3-4.9c-0.7,0.9-1.2,1.4-1.6,1.6
				c-0.3,0.2-0.2,0.1,0.2,0.1V235.1z M447.7,230.3c2-2.6,3.6-5.6,4.9-8.9l-7.5-2.8c-1,2.7-2.2,4.9-3.7,6.8L447.7,230.3z
				 M466.3,182.5l1.8-3.5l-4.6-2.4l-1.1,5.1L466.3,182.5z M486.3,186.2l0.1,4l2.5-0.1l1-2.3L486.3,186.2z M490.8,177.6l0.1-4
				l-2.1-0.1l-1.2,1.7L490.8,177.6z M501.7,180l3.4,2l2.2-3.7l-3.8-1.9L501.7,180z M499.3,184.8l-3.6-1.7l-3,6.4l7.1-0.8
				L499.3,184.8z M501.9,184.4l0.5,4l0,0l0,0L501.9,184.4z M506.1,183.9l0.3,4l0.2,0l0.1,0L506.1,183.9z M509.7,183.5l0.4,4l0.1,0
				l0.1,0L509.7,183.5z M513.4,183.3l-0.3,4l0.2,0h0.2V183.3z M516.4,183.4l-0.2,4l0,0L516.4,183.4z M519.1,183.9l-1.6,3.7l0,0
				L519.1,183.9z M521.1,185.1l-2.3,3.3l0.2,0.1l0.2,0.1L521.1,185.1z M522.9,186.9l-3.5,1.9l0,0.1l0,0.1L522.9,186.9z M523.9,189.4
				l-3.9,0.8l0,0l0,0L523.9,189.4z M522.5,194.1l-3.2-2.5l0,0l0,0L522.5,194.1z M517.1,198.1l0.9,3.9l0.4-0.1l0.4-0.2L517.1,198.1z
				 M512.4,197.5l-3.3-2.3l-2.5,3.5l3.6,2.2L512.4,197.5z M508.1,193.1l0.3-4l0,0l0,0L508.1,193.1z M495.4,194l-0.6-4l-2.3,0.3
				l-0.9,2.1L495.4,194z M485.9,219.1l-3.8-1.3l0,0l0,0L485.9,219.1z M483.4,231.1l1.4-3.8l-0.1,0l-0.1,0L483.4,231.1z M494.9,221.8
				l3.3,2.3l0.1-0.1l0.1-0.1L494.9,221.8z M497.5,221.2l-1.5,3.7l0,0l0,0L497.5,221.2z M498.7,223.5l3.5,2l0.1-0.2l0.1-0.3
				L498.7,223.5z M495,229.3l-3.3-2.3l0,0l0,0L495,229.3z M489.9,236l-3.1-2.5l0,0L489.9,236z M483.9,241.9l2.4,3.2l0,0l0,0
				L483.9,241.9z M478,244.4l-0.3-4l-0.1,0l-0.1,0L478,244.4z M469.1,241.6l3.3-2.3l0,0l0,0L469.1,241.6z M468.3,231l-3.8-1.1l0,0.1
				l0,0.1L468.3,231z M473.6,216.1l3.7,1.4l0,0L473.6,216.1z M482.1,195.1l3.7,1.6l2.8-6.4l-7,0.9L482.1,195.1z M479.7,195.4l-0.2,4
				l0.4,0l0.3,0L479.7,195.4z M472,194.1l1.4-3.7l0,0L472,194.1z M467.9,191.1l3.4-2.2l0-0.1l0-0.1L467.9,191.1z M466.2,187.2
				l-3.9,0.7l0,0l0,0L466.2,187.2z M464.4,186c6,3.1,13.4,4.4,21.9,4.2l-0.2-8c-7.7,0.2-13.6-1-18-3.3L464.4,186z M489.9,187.8
				c1.7-3.9,3.1-6.5,4.1-7.9l-6.5-4.7c-1.5,2.1-3.1,5.3-4.9,9.3L489.9,187.8z M490.7,181.6c3.9,0.1,6.9,0.8,9.2,2l3.6-7.2
				c-3.6-1.8-7.8-2.7-12.5-2.8L490.7,181.6z M498.2,178c-0.8,1.3-1.7,3-2.6,5.1l7.3,3.4c0.9-1.9,1.6-3.3,2.2-4.4L498.2,178z
				 M499.7,188.7c0.7-0.1,1.5-0.2,2.7-0.3l-1-7.9c-1.1,0.1-2,0.2-2.6,0.3L499.7,188.7z M502.5,188.4c1.9-0.3,3.1-0.4,3.9-0.5l-0.6-8
				c-1.1,0.1-2.6,0.3-4.5,0.6L502.5,188.4z M506.7,187.9c0.8-0.1,1.9-0.3,3.4-0.4l-0.7-8c-1.6,0.1-2.9,0.3-3.9,0.4L506.7,187.9z
				 M510.2,187.5c1.5-0.2,2.4-0.2,2.8-0.2l0.7-8c-1.3-0.1-2.8,0-4.5,0.2L510.2,187.5z M513.4,187.3c0.7,0,1.7,0,2.8,0.1l0.5-8
				c-1.2-0.1-2.3-0.1-3.3-0.1V187.3z M516.2,187.4c0.5,0,0.8,0.1,1,0.1c0.2,0,0.3,0.1,0.3,0.1l3.2-7.3c-1.3-0.6-2.7-0.8-4.1-0.9
				L516.2,187.4z M517.5,187.6c0.3,0.2,0.8,0.4,1.3,0.8l4.6-6.6c-0.9-0.6-1.7-1.1-2.7-1.5L517.5,187.6z M519.2,188.6
				c0.1,0.1,0.1,0.1,0.2,0.2l7-3.8c-0.8-1.4-1.9-2.6-3.4-3.4L519.2,188.6z M519.5,188.9c0.1,0.2,0.3,0.7,0.5,1.3l7.8-1.7
				c-0.3-1.3-0.7-2.6-1.4-3.7L519.5,188.9z M520,190.3c0,0,0.1,0.4-0.6,1.4l6.3,4.9c1.8-2.3,2.8-5,2.1-8.1L520,190.3z M519.3,191.6
				c-0.7,0.9-1.9,1.8-3.9,2.8l3.3,7.3c2.8-1.3,5.2-3,6.9-5.2L519.3,191.6z M516.2,194.2c-1.1,0.2-1.5,0-1.6,0l-4.2,6.8
				c2.4,1.4,5,1.6,7.6,1L516.2,194.2z M515.7,199.8c0.7-0.9,1.3-2.2,1.5-3.7c0.1-1.7-0.5-3.3-1.6-4.5c-1-1-2.3-1.6-3.4-1.9
				c-1.1-0.3-2.4-0.5-3.8-0.6l-0.6,8c1,0.1,1.7,0.2,2.1,0.3c0.5,0.1,0.3,0.2,0-0.1c-0.2-0.2-0.4-0.5-0.5-0.8c-0.1-0.4-0.2-0.7-0.1-1
				c0-0.5,0.2-0.6,0-0.2L515.7,199.8z M508.3,189.1c-3.5-0.2-8.1,0.1-13.5,0.9l1.1,7.9c5.2-0.8,9.1-1,11.8-0.8L508.3,189.1z
				 M491.7,192.4c-3.7,9-6.9,17.5-9.6,25.4l7.6,2.6c2.6-7.7,5.8-16,9.4-24.9L491.7,192.4z M482.1,217.8c-1.3,3.9-2.2,7-2.7,9.3
				c-0.2,1.1-0.4,2.2-0.4,3.2c0,0.5,0.1,1.2,0.4,2c0.3,0.8,1.1,2.1,2.8,2.7l2.4-7.6c1.5,0.4,2.1,1.6,2.3,2.1
				c0.1,0.3,0.1,0.5,0.2,0.6c0,0.1,0,0.1,0,0.1c0,0,0,0,0,0c0,0,0,0,0-0.1c0-0.1,0-0.2,0-0.3c0-0.3,0.1-0.6,0.2-1
				c0.4-1.8,1.2-4.5,2.4-8.4L482.1,217.8z M482,234.9c3.4,1.3,6.6-0.5,8.8-2.2c2.4-1.9,4.8-4.8,7.4-8.5l-6.6-4.6
				c-2.4,3.5-4.4,5.7-5.9,6.9c-1.7,1.3-1.7,0.7-1,1L482,234.9z M498.3,223.9c-0.1,0.1-0.2,0.3-0.5,0.5c-0.3,0.2-0.6,0.4-0.9,0.4
				c-0.7,0.2-1.1,0-0.9,0l3-7.4c-1-0.4-2.5-0.8-4-0.4c-1.7,0.4-2.8,1.5-3.5,2.6L498.3,223.9z M496,224.9c0.2,0.1-0.4-0.1-0.8-0.9
				c-0.5-1-0.3-1.8-0.2-2l7.4,3c0.5-1.3,0.7-3-0.2-4.8c-0.9-1.6-2.3-2.3-3.3-2.8L496,224.9z M495.3,221.5c-1,1.7-2.2,3.5-3.6,5.6
				l6.6,4.6c1.5-2.2,2.8-4.2,4-6.2L495.3,221.5z M491.6,227.1c-1.3,2-2.9,4.1-4.8,6.4l6.2,5.1c2-2.5,3.8-4.8,5.3-7L491.6,227.1z
				 M486.9,233.5c-1.7,2.1-3.5,3.8-5.4,5.2l4.8,6.4c2.5-1.8,4.7-4,6.8-6.5L486.9,233.5z M481.5,238.7c-1.7,1.3-3,1.7-3.8,1.7l0.6,8
				c2.8-0.2,5.5-1.5,7.9-3.3L481.5,238.7z M477.5,240.5c-3.5,0.5-4.6-0.4-5.1-1.1l-6.6,4.5c2.9,4.2,7.7,5.2,12.7,4.5L477.5,240.5z
				 M472.4,239.3c-0.7-1-1.3-3.1-0.2-7.2l-7.7-2c-1.3,5.1-1.3,10,1.5,13.9L472.4,239.3z M472.1,232.1c0.8-2.7,2.5-7.6,5.2-14.6
				l-7.5-2.9c-2.7,7-4.6,12.2-5.5,15.3L472.1,232.1z M477.4,217.5c2.7-7.1,5.5-14,8.4-20.8l-7.4-3.2c-3,6.9-5.8,13.9-8.5,21.1
				L477.4,217.5z M481.6,191.2l-2.4,0.3l1,7.9l2.4-0.3L481.6,191.2z M479.9,191.4c-2.8-0.1-4.9-0.5-6.4-1.1l-2.8,7.5
				c2.5,1,5.5,1.5,8.9,1.6L479.9,191.4z M473.5,190.3c-1.6-0.6-2.1-1.2-2.2-1.4l-6.7,4.3c1.4,2.2,3.7,3.6,6.1,4.5L473.5,190.3z
				 M471.1,188.8c-0.5-0.7-0.8-1.5-1-2.4l-7.9,1.5c0.4,2,1.2,3.9,2.3,5.5L471.1,188.8z M470.1,186.5c-0.2-1-0.2-2,0.1-3.1l-7.8-1.7
				c-0.5,2.1-0.5,4.2-0.1,6.3L470.1,186.5z M509.4,213.9l-1.4,3.8l2.2,0.8l1.8-1.5L509.4,213.9z M519.8,204.2l2.9,2.8l1.3-1.3
				l-0.2-1.8L519.8,204.2z M521.1,198.4l-3.4-2l0,0l0,0L521.1,198.4z M525.1,195.3l-0.3-4l0,0l0,0L525.1,195.3z M527.4,196l-2.3,3.3
				l0.1,0.1l0.1,0.1L527.4,196z M529.5,199.8h-4v0.2l0,0.2L529.5,199.8z M528.7,201.8l2.8,2.8l0.1-0.1l0.1-0.1L528.7,201.8z
				 M526.4,202.9l-0.6-4l-5,0.7l1.8,4.7L526.4,202.9z M522.7,240.2l2.6,3l0,0l0,0L522.7,240.2z M513.2,244.7l0.7,3.9l0.1,0l0.1,0
				L513.2,244.7z M499.2,241l-2.6,3L499.2,241z M493.6,228.6l4,0.2l0,0l0,0L493.6,228.6z M495.8,220.1l3.5,1.9l0,0l0,0L495.8,220.1z
				 M501.5,214.3l-1.8-3.6l0,0l0,0L501.5,214.3z M519,223.8l-3.7-1.6l0,0l0,0L519,223.8z M520.7,210l3.9-0.8l-1.6-7.8l-5.3,6
				L520.7,210z M517.4,213.4l-2.9-2.8l0,0L517.4,213.4z M514.3,216.7l-2.8-2.8l-2.9,2.9l3,2.8L514.3,216.7z M516.4,221.3l-0.9,3.9
				l5.1,1.1l-0.2-5.2L516.4,221.3z M509.5,223.4l3.7,1.5l0,0l0,0L509.5,223.4z M510.5,228.5l-3.1,2.6l0,0l0,0L510.5,228.5z
				 M516,228.5l-2.6-3l-0.1,0.1l-0.1,0.1L516,228.5z M511.9,216.9c4.3-3.6,7.9-6.9,10.8-9.9l-5.8-5.5c-2.7,2.8-6,5.9-10.1,9.3
				L511.9,216.9z M523.8,203.8c-0.1-1.3,0.1-2.4,0.7-3.5l-6.9-4c-1.5,2.5-2.1,5.3-1.8,8.3L523.8,203.8z M524.5,200.4
				c0.4-0.6,0.7-0.9,0.8-1c0,0,0.1,0,0.1-0.1c0,0,0,0,0,0c0,0,0,0,0,0c0,0,0,0,0,0s0,0,0,0l-0.7-8c-3.3,0.3-5.6,2.5-7.1,5
				L524.5,200.4z M525.4,199.3c0,0-0.1,0-0.2,0c0,0-0.1,0-0.1,0c0,0,0,0,0,0l4.6-6.6c-1.5-1-3.1-1.5-4.9-1.3L525.4,199.3z
				 M525.3,199.4C525.3,199.4,525.3,199.4,525.3,199.4C525.4,199.4,525.4,199.4,525.3,199.4C525.4,199.4,525.4,199.4,525.3,199.4
				C525.4,199.4,525.4,199.4,525.3,199.4l7.2-3.5c-0.7-1.4-1.8-2.5-3.1-3.3L525.3,199.4z M525.4,199.4c0.1,0.2,0.1,0.3,0.1,0.4h8
				c0-1.4-0.3-2.7-0.9-4L525.4,199.4z M525.5,200.2c0-0.3,0-0.5,0.1-0.8c0.1-0.2,0.2-0.3,0.2-0.3l6,5.3c1.1-1.3,1.9-3,1.7-5
				L525.5,200.2z M525.9,199c0,0,0.1-0.1,0.1-0.1c0,0,0.1,0,0.1,0C526.1,198.9,526,198.9,525.9,199l1.1,7.8c1.6-0.2,3.3-0.9,4.6-2.2
				L525.9,199z M522.7,204.3c1.2,3.1,2,6.1,2.6,9.2l7.9-1.5c-0.7-3.6-1.7-7.1-3-10.6L522.7,204.3z M525.3,213.5
				c0.6,3,0.8,6.2,0.7,9.4l8,0.3c0.2-3.8-0.1-7.5-0.8-11.2L525.3,213.5z M526,222.9c-0.1,3.1-0.7,5.8-1.6,8.2l7.5,2.9
				c1.3-3.3,2-6.9,2.2-10.8L526,222.9z M524.4,231.1c-0.9,2.2-2.3,4.3-4.4,6.1l5.3,6c2.9-2.6,5.1-5.7,6.5-9.2L524.4,231.1z
				 M520,237.2c-1.9,1.7-4.4,2.9-7.7,3.6l1.7,7.8c4.3-1,8.1-2.7,11.2-5.4L520,237.2z M512.5,240.8c-4.2,0.8-7.6-0.2-10.7-2.8l-5.3,6
				c4.9,4.3,10.9,5.9,17.4,4.7L512.5,240.8z M501.8,238c-3.2-2.8-4.4-5.8-4.3-9.2l-8-0.4c-0.3,6.1,2.2,11.3,7,15.5L501.8,238z
				 M497.6,228.7c0.1-2.5,0.6-4.7,1.7-6.7l-7-3.8c-1.7,3.2-2.6,6.6-2.7,10.3L497.6,228.7z M499.3,222c1-2,2.4-3.3,4-4.2l-3.7-7.1
				c-3.2,1.7-5.7,4.2-7.5,7.6L499.3,222z M503.3,217.9c1.5-0.8,3-0.9,4.7-0.2l2.7-7.5c-3.7-1.3-7.5-1.2-11,0.6L503.3,217.9z
				 M522.7,225.4c2.3-5.4,3-10.8,1.9-16.2l-7.8,1.6c0.7,3.6,0.3,7.3-1.4,11.4L522.7,225.4z M517.7,207.3c-0.5,0.6-1.5,1.7-3.1,3.3
				l5.8,5.5c1.6-1.7,2.7-2.9,3.3-3.6L517.7,207.3z M514.5,210.7c-1.5,1.6-2.6,2.7-3.1,3.2l5.7,5.7c0.6-0.6,1.7-1.7,3.2-3.3
				L514.5,210.7z M511.5,219.6c0.6,0.5,0.8,1.1,0.8,1.9l8-0.3c-0.1-2.9-1.3-5.4-3.3-7.4L511.5,219.6z M517.2,217.4
				c-2.2-0.5-4.5-0.7-6.6,0c-2.3,0.7-4.1,2.3-4.9,4.6l7.5,2.8c0,0,0,0-0.1,0.1c-0.1,0.1-0.2,0.1-0.1,0.1c0.2-0.1,0.9-0.2,2.5,0.2
				L517.2,217.4z M505.8,221.9c-1.3,3.4-0.5,6.6,1.7,9.2l6.1-5.1c-0.4-0.5-0.4-0.7-0.5-0.8c0,0,0-0.1,0-0.1c0,0,0-0.1,0.1-0.2
				L505.8,221.9z M507.5,231.2c1.3,1.5,3.2,2.8,5.6,2.8c2.4,0,4.2-1.2,5.6-2.5l-5.6-5.8c-0.3,0.3-0.4,0.4-0.5,0.4
				c0,0,0.1-0.1,0.4-0.1c0.1,0,0.2,0,0.4,0c0.1,0,0.2,0.1,0.2,0.1c0.1,0,0,0-0.2-0.2L507.5,231.2z M518.6,231.5
				c1.8-1.5,3.1-3.7,4.1-6.2l-7.4-3.1c-0.8,1.9-1.5,2.8-2,3.2L518.6,231.5z"/>
		</g>
		<g>
			<path class="st5" d="M226.8,168.1c24.1,0,16.5,23.1,39.2,35.3c20.3,11,13.3,42.8-11,39.1c-24.3-3.7-34-7.7-51.9,0.4
				c-17.9,8.1-43.3-14.3-22-36.4c5.3-5.5,11.5-8.9,15.3-13.4C207.8,179.3,209.4,168.1,226.8,168.1L226.8,168.1z"/>
			<path class="st5" d="M180.1,190.1c8.7-3.8,11.3-16.9,5.8-29.2c-5.4-12.3-16.9-19.1-25.5-15.3c-8.7,3.8-11.3,16.9-5.8,29.2
				C160,187,171.4,193.9,180.1,190.1z"/>
			<path class="st5" d="M207.1,159.2c9.4-1.4,15.3-14.1,13.1-28.5c-2.1-14.4-11.4-24.9-20.8-23.5c-9.4,1.4-15.3,14.1-13.1,28.5
				C188.4,150.1,197.7,160.6,207.1,159.2z"/>
			<path class="st5" d="M263.9,136.1c1.8-14.9-4.4-27.9-13.8-29c-9.4-1.1-18.5,10-20.3,24.9c-1.8,14.9,4.4,27.9,13.8,29
				S262.1,151.1,263.9,136.1z"/>
			<path class="st5" d="M295.4,176c6.2-11.9,4.3-25.3-4.3-29.8c-8.6-4.5-20.7,1.5-26.9,13.5c-6.2,11.9-4.3,25.3,4.3,29.8
				C277.1,194,289.2,187.9,295.4,176z"/>
		</g>
	</g>
</g>
<image style="display:none;overflow:visible;" width="1024" height="340" xlink:href="2D6805F7.jpg"  transform="matrix(0.6839 0 0 0.6839 9.5585 63.4516)">
</image>
<g>
	<g>
		<path class="st6" d="M364.2,182.1c-0.6,4.2-3.7,7.7-9.4,10.6c-7.1,3.6-13.8,4-20.1,1.2c-9.4-4-13.9-14.1-13.5-30.4
			c0.2-6.1,1.2-13,2.9-20.6c-2.5,5.1-5.1,9.6-8,13.4c-2.9,3.8-6.2,7.2-10.1,10.1c-3.8,3-8.3,5.1-13.4,6.3
			c-5.1,1.2-10.7,1.5-16.8,0.8c-8.4-0.8-15.4-4.8-20.9-11.8c-5.5-7.1-8.3-15.1-8.3-24.1c0-10.2,3.6-19,10.8-26.3
			c7.2-7.3,15.9-11,26.2-11c9.3,0,16.4,2.8,21.3,8.4c4.2,4.7,5.1,9.4,2.6,14c-2,4.1-6.3,7-12.9,8.6c1.1-2,1.3-3.7,0.4-5
			c-0.9-1.3-2.3-1.9-4.2-1.8c-3,0-4.9,1.7-5.8,5.1c-1,3.8-0.2,6.9,2.5,9.4c1.8,1.7,4.3,2.6,7.5,2.5c3,0,5.8-0.6,8.4-1.9
			c2.7-1.3,5.1-3.2,7.3-5.7c2.2-2.5,4-4.8,5.4-6.8c1.4-2,3-4.5,4.8-7.4c2.5-4.9,4.4-8.5,5.8-10.9c5.4-10.6,9.9-18.6,13.5-23.8
			c0.1-0.1,0.5-0.7,1.2-1.8c0.7-1.1,1.1-1.7,1.2-1.8h-0.5c-1.2-0.3-2.2-0.5-2.9-0.5v-0.2c-1.9-0.4-4-0.6-6.1-0.5
			c-2.1,0.1-4.1,0.4-5.9,0.8c-1.8,0.5-3.3,1.4-4.5,2.9c-1.2,1.5-1.9,3.4-2.1,5.6c0,2.6,0.8,4.4,2.5,5.6c1.7,1.2,3.7,1.1,6.1-0.2
			c-1.6,3.1-4,5.4-7.1,7.1c-3.1,1.7-6.3,2.4-9.8,2.2c-4.6-0.5-8.6-2.4-12.1-5.8c-3.4-3.3-5.1-7.1-5-11.4c0-4.2,1.2-7.9,3.5-11.1
			c2.3-3.2,5.2-5.5,8.8-7.1c0.3-0.3,0.8-0.6,1.5-0.8h0.3c1.7-0.6,3.5-1,5.2-1.2c0.8-0.1,1.8-0.2,3.1-0.2h0.2c3-0.1,6.3,0.1,10.1,0.6
			c3.7,0.5,7.6,1.3,11.7,2.4c4,1.1,7.5,2.3,10.5,3.8c7.4-6,14.2-8.8,20.4-8.3c2.8,0.3,4.9,1.3,6.5,2.9c1.6,1.6,2.5,3.6,2.8,5.8
			c0.3,2.8-0.7,5.2-2.9,7.3c-2.3,2.1-4.7,3-7.4,2.8c0.3-2.4-0.2-4.3-1.4-5.9c-1.2-1.6-2.9-2.5-5.1-2.7c-2-0.2-4.2,0.4-6.4,1.8
			c4.8,3.4,8.5,7.3,11.1,11.8c2.6,4.5,3.9,8.9,4.1,13.2c0.2,4.3-0.6,8.5-2.3,12.7c-1.7,4.1-4,7.7-7.1,10.7c-3,3-6.7,5.2-11.1,6.8
			c-4.4,1.5-9.1,2-14,1.4c1.3,0.2,2.4,1.5,3.1,3.8c0.7,2.3,1.2,5.1,1.5,8.4c0.3,3.3,0.8,7,1.7,10.9c0.9,3.9,2,7.6,3.3,11.1
			c1.3,3.4,3.5,6.4,6.4,9.1C356.3,179.7,359.9,181.4,364.2,182.1z M334.9,114.4l-1.4,3.4c2.7,0.3,5.3,0,8-1c2.7-1,5-2.4,7.1-4.2
			c2.1-1.8,3.8-4,5.2-6.5c1.4-2.5,2.3-5,2.6-7.5c0.4-2.5,0.1-5.1-0.9-7.7c-1-2.6-2.7-4.9-5.1-6.8l-0.3,0.8l-0.3,0.2
			c-2.6,3.6-5,7.5-7.2,11.9c-2.3,4.4-3.8,7.7-4.8,10.1c-0.2,0.6-0.5,1.3-0.8,1.9c-0.3,0.7-0.6,1.3-0.8,1.8c-0.2,0.6-0.4,1.2-0.7,1.8
			C335.3,113.1,335.1,113.8,334.9,114.4z"/>
		<path class="st6" d="M418.7,142.6c-2.7,4.8-6.1,9.9-10.2,15.4c-4.1,5.4-8.3,9.5-12.5,12.3c-3.6,2.8-8.5,4-14.7,3.8
			c-6.2-0.2-11-1.9-14.4-5.1c-2.7-2.4-4.4-5.4-5.3-9.2c-0.9-3.8-0.8-7.7,0.1-11.7c0.9-4,2.4-8.1,4.3-12.4c1.9-4.2,4.4-8,7.4-11.3
			c3-3.3,6.2-6.1,9.7-8.4c3.4-2.3,7-3.6,10.8-3.8c3.8-0.2,7.4,0.6,10.9,2.5c2.7,1.3,4.4,3.2,5.2,5.5c0.8,2.4,0.8,4.8-0.2,7.2
			c-0.9,2.5-2.4,4.6-4.5,6.4c-1.9,2.1-4.3,4.2-7.1,6.3c-2.8,2-5.2,3.6-7.2,4.8c-2,1.1-4.6,2.6-7.9,4.3c0.3,2.9,1.3,4.9,2.8,6.1
			c1.6,1.2,3.5,1.6,5.6,1.3c2.1-0.3,4.4-1,6.7-2.1c2.3-1.1,4.4-2.4,6.4-4.1c3.8-4.3,6.6-7.8,8.4-10.4c0.7-1.3,2-1.6,3.8-0.9
			C418.7,140,419.3,141.1,418.7,142.6z M385.1,137.6c-0.1,0.4-0.3,0.9-0.5,1.6c-0.2,0.7-0.3,1.2-0.3,1.5c4-1.7,8.2-5.1,12.7-10
			c4.9-5.4,5.7-8.5,2.5-9.2c-0.4-0.1-0.9-0.2-1.4-0.2c-1.3,0-2.8,0.7-4.4,2.2c-1.6,1.4-3.2,3.4-4.8,5.9
			C387.4,131.9,386.1,134.6,385.1,137.6z"/>
		<path class="st6" d="M433.9,128.5c6.1-5.1,11.3-9.8,15.4-14.1c-0.3-3.1,0.3-6,1.9-8.7c1.6-2.7,3.5-4.2,5.8-4.4
			c1.2-0.1,2.4,0.2,3.4,0.8c1,0.7,1.8,1.5,2.3,2.5c0.5,1,0.8,2.1,0.8,3.1c0,1.1-0.3,2-1.2,2.9c-0.8,0.9-1.9,1.4-3.4,1.6
			c1.8,4.8,3.2,9.7,4.1,14.6c0.9,4.9,1.3,9.9,1.1,15c-0.2,5.1-1.1,9.8-2.8,14c-1.6,4.2-4.3,7.9-8,11.1c-3.7,3.2-8.3,5.4-13.8,6.7
			c-7.9,1.4-14.7-0.4-20.6-5.5c-5.8-5.1-8.6-11.2-8.3-18.1c0.1-4.5,1.2-8.7,3.2-12.5c2-3.8,4.9-6.7,8.5-8.5
			C426.1,127.3,429.9,127.1,433.9,128.5z M448,143.1c3-7,3.8-13.7,2.5-20.3c-0.8,0.9-2.4,2.6-4.7,5c-2.3,2.4-3.9,4-4.7,4.8
			c1.9,1.8,3,4.1,3.1,6.8c-5.5-1.2-8.9-0.2-10.1,3.1c-1,2.6-0.5,5.1,1.5,7.5c2.5,2.8,5.1,2.8,8,0C445.2,148.6,446.7,146.3,448,143.1
			z"/>
		<path class="st6" d="M472.3,169c-2.7-2.4-4.4-5.4-5.3-9.2c-0.9-3.8-0.8-7.7,0.1-11.7c0.9-4,2.4-8.1,4.3-12.4
			c1.9-4.2,4.4-8,7.4-11.3c3-3.3,6.2-6.1,9.7-8.4c3.4-2.3,7-3.6,10.8-3.8c3.8-0.2,7.4,0.6,10.9,2.5c4.7,2.4,6.5,6,5.5,11.1
			c-0.9,4.7-3.8,8.3-8.6,10.7c-4,2-8.3,2.6-13.1,1.7c3.1-1.7,6.2-4.8,9.4-9.1c3.7-5.1,3.7-7.8,0-8c-2,0-4.3,1.6-6.8,4.7
			c-2.5,3.1-4.6,7-6.2,11.6c-1.4,4.1-2,7.6-1.8,10.6c0.1,3.2,0.9,5.5,2.5,6.9c1.5,1.4,3.4,2,5.6,1.8c2.2-0.3,4.5-0.9,6.9-2
			c2.4-1.1,4.6-2.5,6.5-4.2c0.4-0.5,1-1.2,1.8-2.1c0.8-0.9,1.4-1.6,1.8-2l0.8-0.9c0.5-0.6,1.2-1.5,2.1-2.8c0.9-1.2,1.6-2.1,2-2.6
			c0.7-1.3,2-1.6,3.8-0.9c1.8,0.7,2.4,1.8,1.8,3.4c-2.7,4.8-6.1,9.9-10.2,15.4c-4.1,5.4-8.3,9.5-12.5,12.3c-3.7,2.8-8.6,4-14.7,3.8
			C480.4,173.9,475.7,172.2,472.3,169z"/>
		<path class="st6" d="M522.8,174c-2.6-0.2-4.6-0.9-6.2-2.1c-1.6-1.2-2.6-2.8-3-5c-0.4-2.2-0.6-4.4-0.5-6.8c0.1-2.4,0.5-5.2,1.5-8.4
			c0.9-3.2,1.8-6.1,2.8-8.8c0.9-2.7,2.1-5.7,3.6-9c1.5-3.3,2.7-5.9,3.7-8c1-2,2.1-4.3,3.4-6.8c1.3-2.5,2-4,2.2-4.5
			c0.2-0.3,0.4-0.7,0.6-1.1c0.2-0.4,0.4-0.8,0.6-1.1l19.7,0.2c-11,22.7-15.9,36.2-14.9,40.4c0.5,2.5,2.8,0.9,6.9-4.8
			c6.1-8.4,12.2-20.3,18.3-35.8l21.3,0.2c-0.5,1.5-2.4,5.8-5.5,12.9c-3.2,7.1-5.9,13.5-8.1,19.2c-2.3,5.7-2.8,8.8-1.7,9.2
			c3.9,1.4,9.5-3.1,16.9-13.7c0.8-1.3,2.1-1.6,3.8-0.9c1.7,0.7,2.4,1.8,1.8,3.4c-1.3,2.4-3.3,5.2-5.8,8.5c-2.6,3.3-5.4,6.6-8.5,9.9
			c-3.1,3.3-6.4,6.1-10,8.4c-3.5,2.4-6.6,3.6-9.3,3.8c-2.5,0.2-4.5,0.3-6.2,0.2c-1.7,0-3-0.5-3.9-1.2c-0.9-0.8-1.6-1.5-2-2.3
			c-0.4-0.8-0.6-1.7-0.7-2.9c-0.1-1.2,0-2.2,0.1-3.1c0.1-0.9,0.3-1.8,0.5-2.8c0.2-1,0.3-1.7,0.3-2
			C538.3,169.7,531.1,174.6,522.8,174z"/>
		<path class="st6" d="M638.7,142.6c-2.7,4.8-6.1,9.9-10.2,15.4c-4.1,5.4-8.3,9.5-12.5,12.3c-3.6,2.8-8.5,4-14.7,3.8
			c-6.2-0.2-11-1.9-14.4-5.1c-2.7-2.4-4.4-5.4-5.3-9.2c-0.9-3.8-0.8-7.7,0.1-11.7c0.9-4,2.4-8.1,4.3-12.4c1.9-4.2,4.4-8,7.4-11.3
			c3-3.3,6.2-6.1,9.7-8.4c3.4-2.3,7-3.6,10.8-3.8c3.8-0.2,7.4,0.6,10.9,2.5c2.7,1.3,4.4,3.2,5.2,5.5c0.8,2.4,0.8,4.8-0.2,7.2
			c-0.9,2.5-2.4,4.6-4.5,6.4c-1.9,2.1-4.3,4.2-7.1,6.3c-2.8,2-5.2,3.6-7.2,4.8c-2,1.1-4.6,2.6-7.9,4.3c0.3,2.9,1.3,4.9,2.8,6.1
			c1.6,1.2,3.5,1.6,5.6,1.3c2.1-0.3,4.4-1,6.7-2.1c2.3-1.1,4.4-2.4,6.4-4.1c3.8-4.3,6.6-7.8,8.4-10.4c0.7-1.3,2-1.6,3.8-0.9
			C638.7,140,639.3,141.1,638.7,142.6z M605.1,137.6c-0.1,0.4-0.3,0.9-0.5,1.6c-0.2,0.7-0.3,1.2-0.3,1.5c4-1.7,8.2-5.1,12.7-10
			c4.9-5.4,5.7-8.5,2.5-9.2c-0.4-0.1-0.9-0.2-1.4-0.2c-1.3,0-2.8,0.7-4.4,2.2c-1.6,1.4-3.2,3.4-4.8,5.9
			C607.4,131.9,606.1,134.6,605.1,137.6z"/>
	</g>
</g>
<g>
	<g>
		<path class="st3" d="M364.2,182.1c-0.6,4.2-3.7,7.7-9.4,10.6c-7.1,3.6-13.8,4-20.1,1.2c-9.4-4-13.9-14.1-13.5-30.4
			c0.2-6.1,1.2-13,2.9-20.6c-2.5,5.1-5.1,9.6-8,13.4c-2.9,3.8-6.2,7.2-10.1,10.1c-3.8,3-8.3,5.1-13.4,6.3
			c-5.1,1.2-10.7,1.5-16.8,0.8c-8.4-0.8-15.4-4.8-20.9-11.8c-5.5-7.1-8.3-15.1-8.3-24.1c0-10.2,3.6-19,10.8-26.3
			c7.2-7.3,15.9-11,26.2-11c9.3,0,16.4,2.8,21.3,8.4c4.2,4.7,5.1,9.4,2.6,14c-2,4.1-6.3,7-12.9,8.6c1.1-2,1.3-3.7,0.4-5
			c-0.9-1.3-2.3-1.9-4.2-1.8c-3,0-4.9,1.7-5.8,5.1c-1,3.8-0.2,6.9,2.5,9.4c1.8,1.7,4.3,2.6,7.5,2.5c3,0,5.8-0.6,8.4-1.9
			c2.7-1.3,5.1-3.2,7.3-5.7c2.2-2.5,4-4.8,5.4-6.8c1.4-2,3-4.5,4.8-7.4c2.5-4.9,4.4-8.5,5.8-10.9c5.4-10.6,9.9-18.6,13.5-23.8
			c0.1-0.1,0.5-0.7,1.2-1.8c0.7-1.1,1.1-1.7,1.2-1.8h-0.5c-1.2-0.3-2.2-0.5-2.9-0.5v-0.2c-1.9-0.4-4-0.6-6.1-0.5
			c-2.1,0.1-4.1,0.4-5.9,0.8c-1.8,0.5-3.3,1.4-4.5,2.9c-1.2,1.5-1.9,3.4-2.1,5.6c0,2.6,0.8,4.4,2.5,5.6c1.7,1.2,3.7,1.1,6.1-0.2
			c-1.6,3.1-4,5.4-7.1,7.1c-3.1,1.7-6.3,2.4-9.8,2.2c-4.6-0.5-8.6-2.4-12.1-5.8c-3.4-3.3-5.1-7.1-5-11.4c0-4.2,1.2-7.9,3.5-11.1
			c2.3-3.2,5.2-5.5,8.8-7.1c0.3-0.3,0.8-0.6,1.5-0.8h0.3c1.7-0.6,3.5-1,5.2-1.2c0.8-0.1,1.8-0.2,3.1-0.2h0.2c3-0.1,6.3,0.1,10.1,0.6
			c3.7,0.5,7.6,1.3,11.7,2.4c4,1.1,7.5,2.3,10.5,3.8c7.4-6,14.2-8.8,20.4-8.3c2.8,0.3,4.9,1.3,6.5,2.9c1.6,1.6,2.5,3.6,2.8,5.8
			c0.3,2.8-0.7,5.2-2.9,7.3c-2.3,2.1-4.7,3-7.4,2.8c0.3-2.4-0.2-4.3-1.4-5.9c-1.2-1.6-2.9-2.5-5.1-2.7c-2-0.2-4.2,0.4-6.4,1.8
			c4.8,3.4,8.5,7.3,11.1,11.8c2.6,4.5,3.9,8.9,4.1,13.2c0.2,4.3-0.6,8.5-2.3,12.7c-1.7,4.1-4,7.7-7.1,10.7c-3,3-6.7,5.2-11.1,6.8
			c-4.4,1.5-9.1,2-14,1.4c1.3,0.2,2.4,1.5,3.1,3.8c0.7,2.3,1.2,5.1,1.5,8.4c0.3,3.3,0.8,7,1.7,10.9c0.9,3.9,2,7.6,3.3,11.1
			c1.3,3.4,3.5,6.4,6.4,9.1C356.3,179.7,359.9,181.4,364.2,182.1z M334.9,114.4l-1.4,3.4c2.7,0.3,5.3,0,8-1c2.7-1,5-2.4,7.1-4.2
			c2.1-1.8,3.8-4,5.2-6.5c1.4-2.5,2.3-5,2.6-7.5c0.4-2.5,0.1-5.1-0.9-7.7c-1-2.6-2.7-4.9-5.1-6.8l-0.3,0.8l-0.3,0.2
			c-2.6,3.6-5,7.5-7.2,11.9c-2.3,4.4-3.8,7.7-4.8,10.1c-0.2,0.6-0.5,1.3-0.8,1.9c-0.3,0.7-0.6,1.3-0.8,1.8c-0.2,0.6-0.4,1.2-0.7,1.8
			C335.3,113.1,335.1,113.8,334.9,114.4z"/>
		<path class="st3" d="M418.7,142.6c-2.7,4.8-6.1,9.9-10.2,15.4c-4.1,5.4-8.3,9.5-12.5,12.3c-3.6,2.8-8.5,4-14.7,3.8
			c-6.2-0.2-11-1.9-14.4-5.1c-2.7-2.4-4.4-5.4-5.3-9.2c-0.9-3.8-0.8-7.7,0.1-11.7c0.9-4,2.4-8.1,4.3-12.4c1.9-4.2,4.4-8,7.4-11.3
			c3-3.3,6.2-6.1,9.7-8.4c3.4-2.3,7-3.6,10.8-3.8c3.8-0.2,7.4,0.6,10.9,2.5c2.7,1.3,4.4,3.2,5.2,5.5c0.8,2.4,0.8,4.8-0.2,7.2
			c-0.9,2.5-2.4,4.6-4.5,6.4c-1.9,2.1-4.3,4.2-7.1,6.3c-2.8,2-5.2,3.6-7.2,4.8c-2,1.1-4.6,2.6-7.9,4.3c0.3,2.9,1.3,4.9,2.8,6.1
			c1.6,1.2,3.5,1.6,5.6,1.3c2.1-0.3,4.4-1,6.7-2.1c2.3-1.1,4.4-2.4,6.4-4.1c3.8-4.3,6.6-7.8,8.4-10.4c0.7-1.3,2-1.6,3.8-0.9
			C418.7,140,419.3,141.1,418.7,142.6z M385.1,137.6c-0.1,0.4-0.3,0.9-0.5,1.6c-0.2,0.7-0.3,1.2-0.3,1.5c4-1.7,8.2-5.1,12.7-10
			c4.9-5.4,5.7-8.5,2.5-9.2c-0.4-0.1-0.9-0.2-1.4-0.2c-1.3,0-2.8,0.7-4.4,2.2c-1.6,1.4-3.2,3.4-4.8,5.9
			C387.4,131.9,386.1,134.6,385.1,137.6z"/>
		<path class="st3" d="M433.9,128.5c6.1-5.1,11.3-9.8,15.4-14.1c-0.3-3.1,0.3-6,1.9-8.7c1.6-2.7,3.5-4.2,5.8-4.4
			c1.2-0.1,2.4,0.2,3.4,0.8c1,0.7,1.8,1.5,2.3,2.5c0.5,1,0.8,2.1,0.8,3.1c0,1.1-0.3,2-1.2,2.9c-0.8,0.9-1.9,1.4-3.4,1.6
			c1.8,4.8,3.2,9.7,4.1,14.6c0.9,4.9,1.3,9.9,1.1,15c-0.2,5.1-1.1,9.8-2.8,14c-1.6,4.2-4.3,7.9-8,11.1c-3.7,3.2-8.3,5.4-13.8,6.7
			c-7.9,1.4-14.7-0.4-20.6-5.5c-5.8-5.1-8.6-11.2-8.3-18.1c0.1-4.5,1.2-8.7,3.2-12.5c2-3.8,4.9-6.7,8.5-8.5
			C426.1,127.3,429.9,127.1,433.9,128.5z M448,143.1c3-7,3.8-13.7,2.5-20.3c-0.8,0.9-2.4,2.6-4.7,5c-2.3,2.4-3.9,4-4.7,4.8
			c1.9,1.8,3,4.1,3.1,6.8c-5.5-1.2-8.9-0.2-10.1,3.1c-1,2.6-0.5,5.1,1.5,7.5c2.5,2.8,5.1,2.8,8,0C445.2,148.6,446.7,146.3,448,143.1
			z"/>
		<path class="st3" d="M472.3,169c-2.7-2.4-4.4-5.4-5.3-9.2c-0.9-3.8-0.8-7.7,0.1-11.7c0.9-4,2.4-8.1,4.3-12.4
			c1.9-4.2,4.4-8,7.4-11.3c3-3.3,6.2-6.1,9.7-8.4c3.4-2.3,7-3.6,10.8-3.8c3.8-0.2,7.4,0.6,10.9,2.5c4.7,2.4,6.5,6,5.5,11.1
			c-0.9,4.7-3.8,8.3-8.6,10.7c-4,2-8.3,2.6-13.1,1.7c3.1-1.7,6.2-4.8,9.4-9.1c3.7-5.1,3.7-7.8,0-8c-2,0-4.3,1.6-6.8,4.7
			c-2.5,3.1-4.6,7-6.2,11.6c-1.4,4.1-2,7.6-1.8,10.6c0.1,3.2,0.9,5.5,2.5,6.9c1.5,1.4,3.4,2,5.6,1.8c2.2-0.3,4.5-0.9,6.9-2
			c2.4-1.1,4.6-2.5,6.5-4.2c0.4-0.5,1-1.2,1.8-2.1c0.8-0.9,1.4-1.6,1.8-2l0.8-0.9c0.5-0.6,1.2-1.5,2.1-2.8c0.9-1.2,1.6-2.1,2-2.6
			c0.7-1.3,2-1.6,3.8-0.9c1.8,0.7,2.4,1.8,1.8,3.4c-2.7,4.8-6.1,9.9-10.2,15.4c-4.1,5.4-8.3,9.5-12.5,12.3c-3.7,2.8-8.6,4-14.7,3.8
			C480.4,173.9,475.7,172.2,472.3,169z"/>
		<path class="st3" d="M522.8,174c-2.6-0.2-4.6-0.9-6.2-2.1c-1.6-1.2-2.6-2.8-3-5c-0.4-2.2-0.6-4.4-0.5-6.8c0.1-2.4,0.5-5.2,1.5-8.4
			c0.9-3.2,1.8-6.1,2.8-8.8c0.9-2.7,2.1-5.7,3.6-9c1.5-3.3,2.7-5.9,3.7-8c1-2,2.1-4.3,3.4-6.8c1.3-2.5,2-4,2.2-4.5
			c0.2-0.3,0.4-0.7,0.6-1.1c0.2-0.4,0.4-0.8,0.6-1.1l19.7,0.2c-11,22.7-15.9,36.2-14.9,40.4c0.5,2.5,2.8,0.9,6.9-4.8
			c6.1-8.4,12.2-20.3,18.3-35.8l21.3,0.2c-0.5,1.5-2.4,5.8-5.5,12.9c-3.2,7.1-5.9,13.5-8.1,19.2c-2.3,5.7-2.8,8.8-1.7,9.2
			c3.9,1.4,9.5-3.1,16.9-13.7c0.8-1.3,2.1-1.6,3.8-0.9c1.7,0.7,2.4,1.8,1.8,3.4c-1.3,2.4-3.3,5.2-5.8,8.5c-2.6,3.3-5.4,6.6-8.5,9.9
			c-3.1,3.3-6.4,6.1-10,8.4c-3.5,2.4-6.6,3.6-9.3,3.8c-2.5,0.2-4.5,0.3-6.2,0.2c-1.7,0-3-0.5-3.9-1.2c-0.9-0.8-1.6-1.5-2-2.3
			c-0.4-0.8-0.6-1.7-0.7-2.9c-0.1-1.2,0-2.2,0.1-3.1c0.1-0.9,0.3-1.8,0.5-2.8c0.2-1,0.3-1.7,0.3-2
			C538.3,169.7,531.1,174.6,522.8,174z"/>
		<path class="st3" d="M638.7,142.6c-2.7,4.8-6.1,9.9-10.2,15.4c-4.1,5.4-8.3,9.5-12.5,12.3c-3.6,2.8-8.5,4-14.7,3.8
			c-6.2-0.2-11-1.9-14.4-5.1c-2.7-2.4-4.4-5.4-5.3-9.2c-0.9-3.8-0.8-7.7,0.1-11.7c0.9-4,2.4-8.1,4.3-12.4c1.9-4.2,4.4-8,7.4-11.3
			c3-3.3,6.2-6.1,9.7-8.4c3.4-2.3,7-3.6,10.8-3.8c3.8-0.2,7.4,0.6,10.9,2.5c2.7,1.3,4.4,3.2,5.2,5.5c0.8,2.4,0.8,4.8-0.2,7.2
			c-0.9,2.5-2.4,4.6-4.5,6.4c-1.9,2.1-4.3,4.2-7.1,6.3c-2.8,2-5.2,3.6-7.2,4.8c-2,1.1-4.6,2.6-7.9,4.3c0.3,2.9,1.3,4.9,2.8,6.1
			c1.6,1.2,3.5,1.6,5.6,1.3c2.1-0.3,4.4-1,6.7-2.1c2.3-1.1,4.4-2.4,6.4-4.1c3.8-4.3,6.6-7.8,8.4-10.4c0.7-1.3,2-1.6,3.8-0.9
			C638.7,140,639.3,141.1,638.7,142.6z M605.1,137.6c-0.1,0.4-0.3,0.9-0.5,1.6c-0.2,0.7-0.3,1.2-0.3,1.5c4-1.7,8.2-5.1,12.7-10
			c4.9-5.4,5.7-8.5,2.5-9.2c-0.4-0.1-0.9-0.2-1.4-0.2c-1.3,0-2.8,0.7-4.4,2.2c-1.6,1.4-3.2,3.4-4.8,5.9
			C607.4,131.9,606.1,134.6,605.1,137.6z"/>
	</g>
</g>
<g>
	<g>
		<path class="st6" d="M438.8,213.4c-3.6,0.7-6.6,0.3-9.1-1.3c-2.5-1.6-3.8-4.1-3.9-7.6c-5.7,2.7-11.6,5-17.7,6.9
			c-0.3,0.5-0.5,0.8-0.5,0.9c-2.4,5.3-4,10.2-4.9,14.5c-0.9,4.4-1.2,7.9-0.9,10.7c0.3,2.8,1,5,2.1,6.8c1.1,1.8,2.4,3,4,3.7
			c1.6,0.7,3.2,0.8,5,0.4c2.4-0.4,4.6-1.7,6.7-3.9c2.1-2.2,3.4-4.5,3.8-6.9c0.4-2.4-0.3-4.4-2-6.1c5.8-2.9,11.2-2.2,16,2.1
			c4.6,4,6.7,9.3,6.1,16c-0.6,7-4.4,13-11.2,18.3c-4.6,3.5-10,5.9-16,7.4c-6.1,1.4-12.2,1.4-18.3-0.1s-11-4.6-14.6-9.3
			c-9.6-12.9-10.2-28.9-1.7-47.9c-3.6,1-7.3,1-11.2-0.2c-3.9-1.1-7.3-3.4-10.1-6.8c-2.9-3.4-4.4-7.5-4.6-12.4
			c-0.3-5.6,1.5-10.7,5.4-15.3c3.9-4.6,8.8-6.9,14.5-7.1c5.6-0.1,9.8,1.3,12.5,4.1c2.7,2.8,2.9,6,0.5,9.6c-0.1-1.1-1.3-1.6-3.5-1.5
			c-3.3,0-5.2,1.6-5.8,4.8c-0.2,0.6-0.3,1.2-0.3,1.8c0,2.4,0.9,4.4,2.7,6.1c1.8,1.7,4.7,2.3,8.7,1.5c5-7.6,11.1-14.3,18.1-20.1
			c5-3.8,10.1-6.6,15.4-8.4c5.2-1.8,10-2.7,14.2-2.6c4.2,0.1,8,0.7,11.4,1.8c3.3,1.1,6.1,2.5,8.4,4.4c3.2,2.7,4.7,5.9,4.5,9.6
			c-0.2,3.7-1.4,7.4-3.5,11c-2.1,3.6-5.1,6.8-8.8,9.6C446.2,210.6,442.5,212.5,438.8,213.4z M419,193.3c5.9-3,10.1-4.8,12.4-5.5
			c2.8-0.8,4.6-0.8,5.4,0c0.2,0,0.4,0.1,0.5,0.3c1.2,1.4,1,4.7-0.8,9.7c0,0.3,0.1,0.6,0.3,0.8c0.9,0.5,2.1-0.3,3.6-2.3
			c1.5-2,2.5-4.3,3.1-6.8c0.6-2.5,0.5-4.6-0.5-6.3l-0.6-0.8c-0.8-1-2.3-1.5-4.5-1.5C432,180.9,425.7,185,419,193.3z"/>
		<path class="st6" d="M503.3,214.5h14.9c-7.1,7.6-12,16.6-14.7,27c-1.9,7.7-1.7,12.2,0.6,13.7c2.9,1.7,7.8-2.5,14.9-12.6
			c0.1-0.1,0.2-0.3,0.3-0.5c0.3-0.5,0.8-0.9,1.4-1.1c0.6-0.2,1.2-0.2,1.8-0.1c0.6,0.2,1.1,0.4,1.6,0.7c0.5,0.3,0.9,0.7,1.1,1.2
			c0.2,0.5,0.2,1.1,0,1.7c-5.6,10.2-11.9,18.4-18.7,24.4c-11.7,10.3-20.1,8.4-25.2-5.8c-1.8,2.8-3.8,5.1-5.8,7.1
			c-2,1.9-4.2,3.5-6.5,4.5c-2.4,1.1-4.9,1.3-7.5,0.8c-2.7-0.6-5.3-2.1-7.8-4.5c-5.9-5.4-7.4-13.6-4.5-24.6
			c2.8-9.6,7.8-17.7,15.2-24.3c8.6-7.7,16.9-9.8,24.9-6.4c3.4,1.3,6.4,3.7,9.2,7.2C500.1,219.2,501.7,216.3,503.3,214.5z M486,239.5
			c1.6-4.5,2.3-8.3,2.1-11.5c-0.3-3.2-1.4-4.8-3.5-4.8c-1.9,0-4.2,1.6-6.7,4.8c-2.5,3.2-4.6,7-6.2,11.5c-1.5,4.4-2.2,8.2-1.9,11.4
			c0.3,3.2,1.4,4.8,3.3,4.8c1.9,0,4.2-1.6,6.7-4.8C482.3,247.7,484.3,243.9,486,239.5z"/>
		<path class="st6" d="M511.5,184.4c7.7,4,17.5,5.8,29.3,5.5c2.6-5.8,4.8-10,6.6-12.6c6.3,0.2,11.7,1.4,16,3.5c-1,1.7-2.2,4-3.5,6.9
			c0.9-0.1,2.2-0.3,3.8-0.5c2.8-0.4,4.8-0.7,6.1-0.8c1.3-0.2,3.1-0.4,5.4-0.6c2.3-0.3,4.1-0.4,5.3-0.3c1.2,0.1,2.7,0.1,4.5,0.2
			c1.7,0.1,3.1,0.4,4,0.8c0.9,0.4,1.9,0.9,3,1.6c1.1,0.7,1.9,1.5,2.5,2.6c0.6,1.1,1.1,2.3,1.4,3.8c0.5,2.3-0.1,4.5-1.9,6.8
			c-1.8,2.3-4.5,4.3-8.1,5.9c-2.7,0.6-4.9,0.4-6.8-0.8c2.7-3.8,0.5-5.9-6.4-6.4c-4.6-0.3-10.8,0.1-18.6,1.2
			c-5.4,13.1-10.1,25.4-13.9,36.8c-3.8,11.4-5.1,17.3-3.8,17.7c3.9,1.4,9.5-3.1,16.9-13.7c0.8-1.3,2.1-1.6,3.9-0.9
			c1.8,0.7,2.4,1.8,1.8,3.4c-1.5,2.7-3.4,5.5-5.4,8.6c-2.1,3.1-4.6,6.3-7.4,9.8c-2.8,3.4-5.8,6.3-8.9,8.6c-3.1,2.3-6,3.6-8.7,3.8
			c-6.2,0.8-10.6-0.6-13.1-4.1c-2.5-3.6-2.9-8.8-1.2-15.5c1.2-4.3,3.8-11.6,7.8-22c4-10.4,8.1-20.6,12.4-30.6l-3.5,0.5
			c-4.5-0.2-8.2-0.9-11.2-2c-3-1.1-5-2.6-6.2-4.3c-1.2-1.7-2-3.7-2.4-5.9C510.9,189,511,186.8,511.5,184.4z"/>
		<path class="st6" d="M574.7,230.5c6.1-5.1,11.3-9.8,15.4-14.1c-0.3-3.1,0.3-6,1.9-8.7c1.6-2.7,3.5-4.2,5.8-4.4
			c1.2-0.1,2.4,0.2,3.4,0.8c1,0.7,1.8,1.5,2.3,2.5c0.5,1,0.8,2.1,0.8,3.1c0,1.1-0.3,2-1.2,2.9c-0.8,0.9-1.9,1.4-3.4,1.6
			c1.8,4.8,3.2,9.7,4.1,14.6c0.9,4.9,1.3,9.9,1.1,15c-0.2,5.1-1.1,9.8-2.8,14c-1.6,4.2-4.3,7.9-8,11.1c-3.7,3.2-8.3,5.4-13.8,6.7
			c-7.9,1.4-14.7-0.4-20.6-5.5c-5.8-5.1-8.6-11.2-8.3-18.1c0.1-4.5,1.2-8.7,3.2-12.5c2-3.8,4.9-6.7,8.5-8.5
			C566.9,229.2,570.7,229,574.7,230.5z M588.8,245.1c3-7,3.8-13.7,2.5-20.3c-0.8,0.9-2.4,2.6-4.7,5c-2.3,2.4-3.9,4-4.7,4.8
			c1.9,1.8,3,4.1,3.1,6.8c-5.5-1.2-8.9-0.2-10.1,3.1c-1,2.6-0.5,5.1,1.5,7.5c2.5,2.8,5.1,2.8,8,0C586,250.5,587.5,248.2,588.8,245.1
			z"/>
	</g>
</g>
<g>
	<g>
		<path class="st3" d="M438.8,213.4c-3.6,0.7-6.6,0.3-9.1-1.3c-2.5-1.6-3.8-4.1-3.9-7.6c-5.7,2.7-11.6,5-17.7,6.9
			c-0.3,0.5-0.5,0.8-0.5,0.9c-2.4,5.3-4,10.2-4.9,14.5c-0.9,4.4-1.2,7.9-0.9,10.7c0.3,2.8,1,5,2.1,6.8c1.1,1.8,2.4,3,4,3.7
			c1.6,0.7,3.2,0.8,5,0.4c2.4-0.4,4.6-1.7,6.7-3.9c2.1-2.2,3.4-4.5,3.8-6.9c0.4-2.4-0.3-4.4-2-6.1c5.8-2.9,11.2-2.2,16,2.1
			c4.6,4,6.7,9.3,6.1,16c-0.6,7-4.4,13-11.2,18.3c-4.6,3.5-10,5.9-16,7.4c-6.1,1.4-12.2,1.4-18.3-0.1s-11-4.6-14.6-9.3
			c-9.6-12.9-10.2-28.9-1.7-47.9c-3.6,1-7.3,1-11.2-0.2c-3.9-1.1-7.3-3.4-10.1-6.8c-2.9-3.4-4.4-7.5-4.6-12.4
			c-0.3-5.6,1.5-10.7,5.4-15.3c3.9-4.6,8.8-6.9,14.5-7.1c5.6-0.1,9.8,1.3,12.5,4.1c2.7,2.8,2.9,6,0.5,9.6c-0.1-1.1-1.3-1.6-3.5-1.5
			c-3.3,0-5.2,1.6-5.8,4.8c-0.2,0.6-0.3,1.2-0.3,1.8c0,2.4,0.9,4.4,2.7,6.1c1.8,1.7,4.7,2.3,8.7,1.5c5-7.6,11.1-14.3,18.1-20.1
			c5-3.8,10.1-6.6,15.4-8.4c5.2-1.8,10-2.7,14.2-2.6c4.2,0.1,8,0.7,11.4,1.8c3.3,1.1,6.1,2.5,8.4,4.4c3.2,2.7,4.7,5.9,4.5,9.6
			c-0.2,3.7-1.4,7.4-3.5,11c-2.1,3.6-5.1,6.8-8.8,9.6C446.2,210.6,442.5,212.5,438.8,213.4z M419,193.3c5.9-3,10.1-4.8,12.4-5.5
			c2.8-0.8,4.6-0.8,5.4,0c0.2,0,0.4,0.1,0.5,0.3c1.2,1.4,1,4.7-0.8,9.7c0,0.3,0.1,0.6,0.3,0.8c0.9,0.5,2.1-0.3,3.6-2.3
			c1.5-2,2.5-4.3,3.1-6.8c0.6-2.5,0.5-4.6-0.5-6.3l-0.6-0.8c-0.8-1-2.3-1.5-4.5-1.5C432,180.9,425.7,185,419,193.3z"/>
		<path class="st3" d="M503.3,214.5h14.9c-7.1,7.6-12,16.6-14.7,27c-1.9,7.7-1.7,12.2,0.6,13.7c2.9,1.7,7.8-2.5,14.9-12.6
			c0.1-0.1,0.2-0.3,0.3-0.5c0.3-0.5,0.8-0.9,1.4-1.1c0.6-0.2,1.2-0.2,1.8-0.1c0.6,0.2,1.1,0.4,1.6,0.7c0.5,0.3,0.9,0.7,1.1,1.2
			c0.2,0.5,0.2,1.1,0,1.7c-5.6,10.2-11.9,18.4-18.7,24.4c-11.7,10.3-20.1,8.4-25.2-5.8c-1.8,2.8-3.8,5.1-5.8,7.1
			c-2,1.9-4.2,3.5-6.5,4.5c-2.4,1.1-4.9,1.3-7.5,0.8c-2.7-0.6-5.3-2.1-7.8-4.5c-5.9-5.4-7.4-13.6-4.5-24.6
			c2.8-9.6,7.8-17.7,15.2-24.3c8.6-7.7,16.9-9.8,24.9-6.4c3.4,1.3,6.4,3.7,9.2,7.2C500.1,219.2,501.7,216.3,503.3,214.5z M486,239.5
			c1.6-4.5,2.3-8.3,2.1-11.5c-0.3-3.2-1.4-4.8-3.5-4.8c-1.9,0-4.2,1.6-6.7,4.8c-2.5,3.2-4.6,7-6.2,11.5c-1.5,4.4-2.2,8.2-1.9,11.4
			c0.3,3.2,1.4,4.8,3.3,4.8c1.9,0,4.2-1.6,6.7-4.8C482.3,247.7,484.3,243.9,486,239.5z"/>
		<path class="st3" d="M511.5,184.4c7.7,4,17.5,5.8,29.3,5.5c2.6-5.8,4.8-10,6.6-12.6c6.3,0.2,11.7,1.4,16,3.5c-1,1.7-2.2,4-3.5,6.9
			c0.9-0.1,2.2-0.3,3.8-0.5c2.8-0.4,4.8-0.7,6.1-0.8c1.3-0.2,3.1-0.4,5.4-0.6c2.3-0.3,4.1-0.4,5.3-0.3c1.2,0.1,2.7,0.1,4.5,0.2
			c1.7,0.1,3.1,0.4,4,0.8c0.9,0.4,1.9,0.9,3,1.6c1.1,0.7,1.9,1.5,2.5,2.6c0.6,1.1,1.1,2.3,1.4,3.8c0.5,2.3-0.1,4.5-1.9,6.8
			c-1.8,2.3-4.5,4.3-8.1,5.9c-2.7,0.6-4.9,0.4-6.8-0.8c2.7-3.8,0.5-5.9-6.4-6.4c-4.6-0.3-10.8,0.1-18.6,1.2
			c-5.4,13.1-10.1,25.4-13.9,36.8c-3.8,11.4-5.1,17.3-3.8,17.7c3.9,1.4,9.5-3.1,16.9-13.7c0.8-1.3,2.1-1.6,3.9-0.9
			c1.8,0.7,2.4,1.8,1.8,3.4c-1.5,2.7-3.4,5.5-5.4,8.6c-2.1,3.1-4.6,6.3-7.4,9.8c-2.8,3.4-5.8,6.3-8.9,8.6c-3.1,2.3-6,3.6-8.7,3.8
			c-6.2,0.8-10.6-0.6-13.1-4.1c-2.5-3.6-2.9-8.8-1.2-15.5c1.2-4.3,3.8-11.6,7.8-22c4-10.4,8.1-20.6,12.4-30.6l-3.5,0.5
			c-4.5-0.2-8.2-0.9-11.2-2c-3-1.1-5-2.6-6.2-4.3c-1.2-1.7-2-3.7-2.4-5.9C510.9,189,511,186.8,511.5,184.4z"/>
		<path class="st3" d="M574.7,230.5c6.1-5.1,11.3-9.8,15.4-14.1c-0.3-3.1,0.3-6,1.9-8.7c1.6-2.7,3.5-4.2,5.8-4.4
			c1.2-0.1,2.4,0.2,3.4,0.8c1,0.7,1.8,1.5,2.3,2.5c0.5,1,0.8,2.1,0.8,3.1c0,1.1-0.3,2-1.2,2.9c-0.8,0.9-1.9,1.4-3.4,1.6
			c1.8,4.8,3.2,9.7,4.1,14.6c0.9,4.9,1.3,9.9,1.1,15c-0.2,5.1-1.1,9.8-2.8,14c-1.6,4.2-4.3,7.9-8,11.1c-3.7,3.2-8.3,5.4-13.8,6.7
			c-7.9,1.4-14.7-0.4-20.6-5.5c-5.8-5.1-8.6-11.2-8.3-18.1c0.1-4.5,1.2-8.7,3.2-12.5c2-3.8,4.9-6.7,8.5-8.5
			C566.9,229.2,570.7,229,574.7,230.5z M588.8,245.1c3-7,3.8-13.7,2.5-20.3c-0.8,0.9-2.4,2.6-4.7,5c-2.3,2.4-3.9,4-4.7,4.8
			c1.9,1.8,3,4.1,3.1,6.8c-5.5-1.2-8.9-0.2-10.1,3.1c-1,2.6-0.5,5.1,1.5,7.5c2.5,2.8,5.1,2.8,8,0C586,250.5,587.5,248.2,588.8,245.1
			z"/>
	</g>
</g>
<g>
	<path class="st5" d="M174,188c35.2,0,24,35.6,57.1,54.6c29.6,16.9,19.4,66.2-16,60.4c-35.4-5.8-49.5-11.8-75.6,0.6
		c-26,12.5-63-22.1-32-56.2c7.7-8.5,16.8-13.8,22.2-20.7C146.4,205.3,148.7,188,174,188L174,188z"/>
	<path class="st5" d="M106.1,221.9c12.6-5.9,16.4-26.1,8.5-45.1c-7.9-19-24.6-29.6-37.2-23.7c-12.6,5.9-16.4,26.1-8.5,45.1
		C76.8,217.3,93.4,227.9,106.1,221.9z"/>
	<path class="st5" d="M145.4,174.3c13.6-2.1,22.2-21.9,19.1-44.1c-3.1-22.2-16.7-38.5-30.3-36.3C120.6,96,112,115.8,115.1,138
		C118.2,160.2,131.7,176.4,145.4,174.3z"/>
	<path class="st5" d="M228.1,138.6c2.6-23-6.4-43.1-20.1-44.9c-13.7-1.7-26.9,15.5-29.5,38.6s6.4,43.1,20.1,44.9
		C212.3,178.9,225.5,161.6,228.1,138.6z"/>
	<path class="st5" d="M274,200.2c9.1-18.5,6.3-39.1-6.3-46c-12.6-7-30.1,2.3-39.2,20.8c-9.1,18.5-6.3,39.1,6.3,46
		C247.3,228,264.9,218.7,274,200.2z"/>
</g>
</svg>
