<?xml version="1.0" encoding="utf-8"?>
<!-- Generator: Adobe Illustrator 27.6.1, SVG Export Plug-In . SVG Version: 6.00 Build 0)  -->
<svg version="1.1" id="Layer_1" xmlns="http://www.w3.org/2000/svg" xmlns:xlink="http://www.w3.org/1999/xlink" x="0px" y="0px"
	 viewBox="0 0 75 75" style="enable-background:new 0 0 75 75;" xml:space="preserve">
<style type="text/css">
	.st0{fill:#FFFFFF;}
	.st1{fill:#00AEEF;}
</style>
<g>
	<path class="st0" d="M12.5,22.5c-5.5,0-10-4.5-10-10s4.5-10,10-10s10,4.5,10,10S18,22.5,12.5,22.5z"/>
	<path class="st1" d="M12.5,5c4.1,0,7.5,3.4,7.5,7.5S16.6,20,12.5,20S5,16.6,5,12.5S8.4,5,12.5,5 M12.5,0C5.6,0,0,5.6,0,12.5
		S5.6,25,12.5,25S25,19.4,25,12.5S19.4,0,12.5,0L12.5,0z"/>
</g>
<g>
	<path class="st0" d="M37.5,22.5c-5.5,0-10-4.5-10-10s4.5-10,10-10s10,4.5,10,10S43,22.5,37.5,22.5z"/>
	<path class="st1" d="M37.5,5c4.1,0,7.5,3.4,7.5,7.5S41.6,20,37.5,20S30,16.6,30,12.5S33.4,5,37.5,5 M37.5,0C30.6,0,25,5.6,25,12.5
		S30.6,25,37.5,25S50,19.4,50,12.5S44.4,0,37.5,0L37.5,0z"/>
</g>
<g>
	<path class="st0" d="M62.5,22.5c-5.5,0-10-4.5-10-10s4.5-10,10-10s10,4.5,10,10S68,22.5,62.5,22.5z"/>
	<path class="st1" d="M62.5,5c4.1,0,7.5,3.4,7.5,7.5S66.6,20,62.5,20S55,16.6,55,12.5S58.4,5,62.5,5 M62.5,0C55.6,0,50,5.6,50,12.5
		S55.6,25,62.5,25S75,19.4,75,12.5S69.4,0,62.5,0L62.5,0z"/>
</g>
<g>
	<circle class="st0" cx="12.5" cy="62.5" r="10"/>
	<path class="st1" d="M12.5,55c4.1,0,7.5,3.4,7.5,7.5S16.6,70,12.5,70S5,66.6,5,62.5S8.4,55,12.5,55 M12.5,50C5.6,50,0,55.6,0,62.5
		S5.6,75,12.5,75S25,69.4,25,62.5S19.4,50,12.5,50L12.5,50z"/>
</g>
<g>
	<circle class="st0" cx="37.5" cy="62.5" r="10"/>
	<path class="st1" d="M37.5,55c4.1,0,7.5,3.4,7.5,7.5S41.6,70,37.5,70S30,66.6,30,62.5S33.4,55,37.5,55 M37.5,50
		C30.6,50,25,55.6,25,62.5S30.6,75,37.5,75S50,69.4,50,62.5S44.4,50,37.5,50L37.5,50z"/>
</g>
<g>
	<circle class="st0" cx="62.5" cy="62.5" r="10"/>
	<path class="st1" d="M62.5,55c4.1,0,7.5,3.4,7.5,7.5S66.6,70,62.5,70S55,66.6,55,62.5S58.4,55,62.5,55 M62.5,50
		C55.6,50,50,55.6,50,62.5S55.6,75,62.5,75S75,69.4,75,62.5S69.4,50,62.5,50L62.5,50z"/>
</g>
<g>
	<path class="st0" d="M12.5,47.5c-5.5,0-10-4.5-10-10s4.5-10,10-10s10,4.5,10,10S18,47.5,12.5,47.5z"/>
	<path class="st1" d="M12.5,30c4.1,0,7.5,3.4,7.5,7.5S16.6,45,12.5,45S5,41.6,5,37.5S8.4,30,12.5,30 M12.5,25C5.6,25,0,30.6,0,37.5
		S5.6,50,12.5,50S25,44.4,25,37.5S19.4,25,12.5,25L12.5,25z"/>
</g>
<g>
	<path class="st0" d="M62.5,47.5c-5.5,0-10-4.5-10-10s4.5-10,10-10s10,4.5,10,10S68,47.5,62.5,47.5z"/>
	<path class="st1" d="M62.5,30c4.1,0,7.5,3.4,7.5,7.5S66.6,45,62.5,45S55,41.6,55,37.5S58.4,30,62.5,30 M62.5,25
		C55.6,25,50,30.6,50,37.5S55.6,50,62.5,50S75,44.4,75,37.5S69.4,25,62.5,25L62.5,25z"/>
</g>
</svg>
