<?xml version="1.0" encoding="UTF-8"?><svg id="a" xmlns="http://www.w3.org/2000/svg" width="10in" height="10in" viewBox="0 0 720 720"><path d="M138.78,457.55h11.92l9.12,56h-8.8l-1.6-11.12v.16h-10l-1.6,10.96h-8.16l9.12-56ZM148.38,494.99l-3.92-27.68h-.16l-3.84,27.68h7.92Z" fill="#786a5c"/><path d="M171.26,465.55h-9.2v-8h27.2v8h-9.2v48h-8.8v-48Z" fill="#786a5c"/><path d="M221.18,465.55h-9.2v-8h27.2v8h-9.2v48h-8.8v-48Z" fill="#786a5c"/><path d="M247.42,457.55h8.8v22.8h9.44v-22.8h8.8v56h-8.8v-25.2h-9.44v25.2h-8.8v-56Z" fill="#786a5c"/><path d="M285.02,457.55h13.04c4.53,0,7.84,1.05,9.92,3.16,2.08,2.11,3.12,5.35,3.12,9.72v3.44c0,5.81-1.92,9.49-5.76,11.04v.16c2.13.64,3.64,1.95,4.52,3.92.88,1.97,1.32,4.61,1.32,7.92v9.84c0,1.6.05,2.89.16,3.88.11.99.37,1.96.8,2.92h-8.96c-.32-.91-.53-1.76-.64-2.56-.11-.8-.16-2.24-.16-4.32v-10.24c0-2.56-.41-4.35-1.24-5.36-.83-1.01-2.25-1.52-4.28-1.52h-3.04v24h-8.8v-56ZM297.02,481.55c1.76,0,3.08-.45,3.96-1.36.88-.91,1.32-2.43,1.32-4.56v-4.32c0-2.03-.36-3.49-1.08-4.4-.72-.91-1.85-1.36-3.4-1.36h-4v16h3.2Z" fill="#786a5c"/><path d="M321.26,457.55h24v8h-15.2v14.8h12.08v8h-12.08v17.2h15.2v8h-24v-56Z" fill="#786a5c"/><path d="M354.3,457.55h24v8h-15.2v14.8h12.08v8h-12.08v17.2h15.2v8h-24v-56Z" fill="#786a5c"/><path d="M404.14,457.55h13.04c4.53,0,7.84,1.05,9.92,3.16,2.08,2.11,3.12,5.35,3.12,9.72v3.44c0,5.81-1.92,9.49-5.76,11.04v.16c2.13.64,3.64,1.95,4.52,3.92.88,1.97,1.32,4.61,1.32,7.92v9.84c0,1.6.05,2.89.16,3.88.11.99.37,1.96.8,2.92h-8.96c-.32-.91-.53-1.76-.64-2.56s-.16-2.24-.16-4.32v-10.24c0-2.56-.41-4.35-1.24-5.36-.83-1.01-2.25-1.52-4.28-1.52h-3.04v24h-8.8v-56ZM416.14,481.55c1.76,0,3.08-.45,3.96-1.36.88-.91,1.32-2.43,1.32-4.56v-4.32c0-2.03-.36-3.49-1.08-4.4-.72-.91-1.86-1.36-3.4-1.36h-4v16h3.2Z" fill="#786a5c"/><path d="M440.38,457.55h8.8v56h-8.8v-56Z" fill="#786a5c"/><path d="M459.74,457.55h13.44c4.37,0,7.65,1.17,9.84,3.52,2.19,2.35,3.28,5.79,3.28,10.32v28.32c0,4.53-1.09,7.97-3.28,10.32-2.19,2.35-5.47,3.52-9.84,3.52h-13.44v-56ZM473.02,505.55c1.44,0,2.55-.43,3.32-1.28.77-.85,1.16-2.24,1.16-4.16v-29.12c0-1.92-.39-3.31-1.16-4.16-.77-.85-1.88-1.28-3.32-1.28h-4.48v40h4.48Z" fill="#786a5c"/><path d="M498.94,510.71c-2.24-2.43-3.36-5.91-3.36-10.44v-29.44c0-4.53,1.12-8.01,3.36-10.44,2.24-2.43,5.49-3.64,9.76-3.64s7.52,1.21,9.76,3.64c2.24,2.43,3.36,5.91,3.36,10.44v4.8h-8.32v-5.36c0-3.68-1.52-5.52-4.56-5.52s-4.56,1.84-4.56,5.52v30.64c0,3.63,1.52,5.44,4.56,5.44s4.56-1.81,4.56-5.44v-10.96h-4.4v-8h12.72v18.32c0,4.53-1.12,8.01-3.36,10.44-2.24,2.43-5.49,3.64-9.76,3.64s-7.52-1.21-9.76-3.64Z" fill="#786a5c"/><path d="M531.5,457.55h24v8h-15.2v14.8h12.08v8h-12.08v17.2h15.2v8h-24v-56Z" fill="#786a5c"/><path d="M566.46,510.71c-2.19-2.43-3.28-5.91-3.28-10.44v-3.2h8.32v3.84c0,3.63,1.52,5.44,4.56,5.44,1.49,0,2.63-.44,3.4-1.32.77-.88,1.16-2.31,1.16-4.28,0-2.35-.53-4.41-1.6-6.2-1.07-1.79-3.04-3.93-5.92-6.44-3.63-3.2-6.16-6.09-7.6-8.68-1.44-2.59-2.16-5.51-2.16-8.76,0-4.43,1.12-7.85,3.36-10.28,2.24-2.43,5.49-3.64,9.76-3.64s7.4,1.21,9.56,3.64c2.16,2.43,3.24,5.91,3.24,10.44v2.32h-8.32v-2.88c0-1.92-.37-3.32-1.12-4.2-.75-.88-1.84-1.32-3.28-1.32-2.93,0-4.4,1.79-4.4,5.36,0,2.03.55,3.92,1.64,5.68,1.09,1.76,3.08,3.89,5.96,6.4,3.68,3.2,6.21,6.11,7.6,8.72,1.39,2.61,2.08,5.68,2.08,9.2,0,4.59-1.13,8.11-3.4,10.56-2.27,2.45-5.56,3.68-9.88,3.68s-7.49-1.21-9.68-3.64Z" fill="#786a5c"/><path d="M332.2,205.09h-6.44v-5.6h19.04v5.6h-6.44v33.6h-6.16v-33.6Z" fill="#786a5c"/><path d="M350.56,199.49h6.16v15.96h6.61v-15.96h6.16v39.2h-6.16v-17.64h-6.61v17.64h-6.16v-39.2Z" fill="#786a5c"/><path d="M376.88,199.49h16.8v5.6h-10.64v10.36h8.46v5.6h-8.46v12.04h10.64v5.6h-16.8v-39.2Z" fill="#786a5c"/><path d="M52.25,260.39h39.12c13.6,0,23.52,3.16,29.76,9.48,6.24,6.32,9.36,16.04,9.36,29.16v10.32c0,17.44-5.76,28.48-17.28,33.12v.48c6.4,1.92,10.92,5.84,13.56,11.76,2.64,5.92,3.96,13.84,3.96,23.76v29.52c0,4.8.16,8.68.48,11.64.32,2.96,1.12,5.88,2.4,8.76h-26.88c-.96-2.72-1.6-5.28-1.92-7.68-.32-2.4-.48-6.72-.48-12.96v-30.72c0-7.68-1.24-13.04-3.72-16.08-2.48-3.04-6.76-4.56-12.84-4.56h-9.12v72h-26.4v-168ZM88.25,332.39c5.28,0,9.24-1.36,11.88-4.08,2.64-2.72,3.96-7.28,3.96-13.68v-12.96c0-6.08-1.08-10.48-3.24-13.2-2.16-2.72-5.56-4.08-10.2-4.08h-12v48h9.6Z" fill="#42372a"/><path d="M148.97,260.39h72v24h-45.6v44.4h36.24v24h-36.24v51.6h45.6v24h-72v-168Z" fill="#42372a"/><path d="M241.85,419.87c-6.56-7.28-9.84-17.72-9.84-31.32v-9.6h24.96v11.52c0,10.88,4.56,16.32,13.68,16.32,4.48,0,7.88-1.32,10.2-3.96,2.32-2.64,3.48-6.92,3.48-12.84,0-7.04-1.6-13.24-4.8-18.6-3.2-5.36-9.12-11.8-17.76-19.32-10.88-9.6-18.48-18.28-22.8-26.04-4.32-7.76-6.48-16.52-6.48-26.28,0-13.28,3.36-23.56,10.08-30.84,6.72-7.28,16.48-10.92,29.28-10.92s22.2,3.64,28.68,10.92c6.48,7.28,9.72,17.72,9.72,31.32v6.96h-24.96v-8.64c0-5.76-1.12-9.96-3.36-12.6-2.24-2.64-5.52-3.96-9.84-3.96-8.8,0-13.2,5.36-13.2,16.08,0,6.08,1.64,11.76,4.92,17.04,3.28,5.28,9.24,11.68,17.88,19.2,11.04,9.6,18.64,18.32,22.8,26.16,4.16,7.84,6.24,17.04,6.24,27.6,0,13.76-3.4,24.32-10.2,31.68-6.8,7.36-16.68,11.04-29.64,11.04s-22.48-3.64-29.04-10.92Z" fill="#42372a"/><path d="M325.84,260.39h72v24h-45.6v44.4h36.24v24h-36.24v51.6h45.6v24h-72v-168Z" fill="#42372a"/><path d="M412.96,260.39h39.12c13.6,0,23.52,3.16,29.76,9.48,6.24,6.32,9.36,16.04,9.36,29.16v10.32c0,17.44-5.76,28.48-17.28,33.12v.48c6.4,1.92,10.92,5.84,13.56,11.76,2.64,5.92,3.96,13.84,3.96,23.76v29.52c0,4.8.16,8.68.48,11.64.32,2.96,1.12,5.88,2.4,8.76h-26.88c-.96-2.72-1.6-5.28-1.92-7.68-.32-2.4-.48-6.72-.48-12.96v-30.72c0-7.68-1.24-13.04-3.72-16.08-2.48-3.04-6.76-4.56-12.84-4.56h-9.12v72h-26.4v-168ZM448.96,332.39c5.28,0,9.24-1.36,11.88-4.08,2.64-2.72,3.96-7.28,3.96-13.68v-12.96c0-6.08-1.08-10.48-3.24-13.2-2.16-2.72-5.56-4.08-10.2-4.08h-12v48h9.6Z" fill="#42372a"/><path d="M501.76,260.39h26.64l17.28,130.32h.48l17.28-130.32h24.24l-25.44,168h-35.04l-25.44-168Z" fill="#42372a"/><path d="M600.4,260.39h72v24h-45.6v44.4h36.24v24h-36.24v51.6h45.6v24h-72v-168Z" fill="#42372a"/><rect x="68.69" y="457.43" width="48.07" height="8.2" fill="#786a5c"/><rect x="608.49" y="457.43" width="48.07" height="8.2" fill="#786a5c"/><rect x="68.69" y="223.73" width="244.82" height="6.15" fill="#786a5c"/><rect x="411.73" y="223.73" width="244.82" height="6.15" fill="#786a5c"/><path d="M245.1,153.56c-1.36-.97-2.5-2.16-3.49-3.51-1.37-1.88-2.76-3.75-4.13-5.63-.53-.72-1.2-1.19-2.08-1.34-.09-.02-.18-.04-.35-.07.81-.74,1.6-1.45,2.39-2.16l5.07-4.71c-.49-.01-.97-.02-1.46-.02l-5.53,4.95c-1.78,1.59-3.57,3.19-5.35,4.79-.11.1-.19.26-.42.22,0-.15,0-.29,0-.44v-2.02c0-.97-.02-1.94,0-2.91v-4.55h-3.96v3.11c.02.31.04.63.04.95,0,3.18,0,6.35,0,9.53,0,.3-.01.6-.03.89v2.94h0c-1.13-.69-2.04-1.61-2.81-2.68-.66-.93-1.35-1.85-2.03-2.77-.29-.42-.67-.78-1.12-1.04-.08-.05-.2-.06-.18-.2.09-.1.22-.06.33-.09,1-.24,1.89-.67,2.64-1.38,2.06-1.95,2.14-5.24.18-7.44-1.15-1.28-2.6-1.88-4.31-1.87-3.5,0-7.01,0-10.51,0v17.08c-1.59-2.03-2.89-4.23-4-6.55-1.6-3.36-3.23-6.72-4.83-10.08-.16-.33-.34-.47-.71-.46-.44.01-.88.01-1.33.01-.09,0-.18.02-.25.07-.08.05-.14.11-.18.19l-3.11,6.26c-.81,1.67-1.61,3.35-2.41,5.02v.02s-.31.62-.31.62c-.15.31-.3.61-.46.91l-2.27,4.58h1.14s1.56,0,1.56,0c0,0,.51.04.19-.6-.32-.64-.44-1.4-.25-2.29h0l.64-1.23c.15-.29.32-.38.64-.38,2.8.01,5.6.01,8.41,0h.46s.05,0,.07.02c.02.01.04.03.05.05l2.15,4.46c1.64,0,3.54-.04,5.18-.04h3.56v-6.67c0-.06.02-.12.07-.16.04-.04.1-.07.16-.07h1.83c.16,0,.33.01.49.04.82.13,1.37.67,1.82,1.31.96,1.38,1.9,2.76,2.85,4.15.6.87,1.41,1.4,2.46,1.44,1.44.05,2.88.01,4.47.01h3.68v-3.32c-.03-.43-.03-.86,0-1.29v-.26l.02.03c.01-.14.02-.27.04-.41.16-1.47,1.69-2.53,3.15-2.27.8.14,1.41.57,1.89,1.22,1.04,1.42,2.09,2.82,3.12,4.25,1.01,1.4,2.36,2.11,4.09,2.08.93-.02,1.86,0,2.78,0,.15,0,.31.05.45-.05-.02-.13-.12-.16-.19-.21ZM192.18,148.07c1.36-2.79,2.7-5.56,4.1-8.44l4.04,8.41c-.46.13-7.44.16-8.14.03ZM219.58,143.88h0c-.78,1.2-1.95,1.77-3.35,1.83-1.32.05-2.65,0-3.97.02-.32,0-.35-.14-.35-.39,0-1.3,0-2.61,0-3.91v-3.73c0-.49,0-.49.47-.5,1.22,0,2.45-.03,3.67,0,1.68.04,2.89.89,3.65,2.34.76,1.44.78,2.93-.13,4.33Z" fill="#052d3c"/><path d="M136.08,153.77h-1.9l7.34-16.99h1.68l7.3,16.99h-1.92l-1.87-4.46h-8.78l-1.85,4.46ZM138.57,147.72h7.49l-3.74-9.02-3.75,9.02Z" fill="#231f20"/><path d="M172.25,151.25h.05v-14.47h1.73v16.99h-2.16l-9.89-14.62h-.05v14.62h-1.73v-16.99h2.16l9.89,14.47Z" fill="#231f20"/><path d="M254.86,136.1h3.12v7.07h8.18v-7.07h3.11v17.5h-3.11v-7.76h-8.18v7.76h-3.12v-17.5Z" fill="#052d3c"/><path d="M286.6,135.65c5.46,0,9.44,3.54,9.44,9.15s-3.98,9.25-9.44,9.25-9.37-3.78-9.37-9.25,3.98-9.15,9.37-9.15ZM286.62,151.25c3.58,0,6.03-2.72,6.03-6.45s-2.4-6.4-6.03-6.4-6.01,2.79-6.01,6.4,2.45,6.45,6.01,6.45Z" fill="#052d3c"/><path d="M304,136.1h4.87l4.55,12.43h.07l4.5-12.43h4.89v17.5h-3.09v-14.07h-.05l-5.31,14.07h-2.17l-5.24-14.07h-.05v14.07h-2.97v-17.5Z" fill="#052d3c"/><path d="M331.68,136.1h11.59v2.72h-8.48v4.45h8.03v2.62h-8.03v4.94h8.92v2.77h-12.04v-17.5Z" fill="#052d3c"/><path d="M360.63,139.76c-.67-.87-1.98-1.51-3.21-1.51-1.43,0-3.09.69-3.09,2.4,0,1.61,1.36,2.08,3.34,2.69,2.25.69,5.12,1.68,5.12,5.12,0,3.76-2.94,5.59-6.38,5.59-2.27,0-4.62-.87-6.01-2.5l2.22-2.08c.87,1.19,2.45,1.93,3.83,1.93,1.46,0,3.16-.72,3.16-2.6s-1.83-2.35-4.03-3.04c-2.13-.67-4.42-1.71-4.42-4.97,0-3.56,3.24-5.14,6.4-5.14,1.76,0,3.76.62,5.09,1.88l-2.03,2.22Z" fill="#052d3c"/><path d="M395.4,151.03c-1.13,1.7-3.31,3.17-6.36,3.17-5.14,0-8.86-3.77-8.86-8.93s3.79-8.93,8.86-8.93c2.5,0,4.87,1.03,6.05,2.69l-1.44,1.06c-.72-1.1-2.42-2.23-4.58-2.23-4.39,0-7.06,3.46-7.06,7.42s2.69,7.42,7.06,7.42c1.94,0,3.82-.77,4.99-2.52l1.34.86Z" fill="#231f20"/><path d="M413.23,154.2c-5.06,0-8.86-3.77-8.86-8.93s3.79-8.93,8.86-8.93,8.86,3.77,8.86,8.93-3.79,8.93-8.86,8.93ZM413.23,137.86c-4.37,0-7.03,3.46-7.03,7.42s2.66,7.39,7.03,7.39,7.03-3.43,7.03-7.39-2.66-7.42-7.03-7.42Z" fill="#231f20"/><path d="M441.29,150.84h.02l5.69-14.07h2.64v16.99h-1.73v-14.76h-.05l-6.14,14.76h-.91l-6.14-14.76h-.05v14.76h-1.73v-16.99h2.64l5.76,14.07Z" fill="#231f20"/><path d="M469.75,150.84h.02l5.69-14.07h2.64v16.99h-1.73v-14.76h-.05l-6.14,14.76h-.91l-6.14-14.76h-.05v14.76h-1.73v-16.99h2.64l5.76,14.07Z" fill="#231f20"/><path d="M489.72,147.43v-10.66h1.73v10.47c0,2.74,1.18,5.42,4.63,5.42s4.63-2.69,4.63-5.42v-10.47h1.73v10.66c0,2.83-1.27,6.77-6.36,6.77s-6.36-3.94-6.36-6.77Z" fill="#231f20"/><path d="M526.11,151.25h.05v-14.47h1.73v16.99h-2.16l-9.89-14.62h-.05v14.62h-1.73v-16.99h2.16l9.89,14.47Z" fill="#231f20"/><path d="M541.32,153.77h-1.73v-16.99h1.73v16.99Z" fill="#231f20"/><path d="M558.48,153.77h-1.73v-15.46h-5.69v-1.54h13.11v1.54h-5.69v15.46Z" fill="#231f20"/><path d="M579.46,153.77h-1.73v-7.32l-6.36-9.67h2.16l5.11,8.23,5.16-8.23h2.02l-6.36,9.67v7.32Z" fill="#231f20"/></svg>