<svg xmlns="http://www.w3.org/2000/svg" viewBox="0 0 1920 1080" role="img" aria-labelledby="title desc">
  <title id="title">Draft 2 near minimal geometric layer</title>
  <desc id="desc">Minimal cyan and cream foreground planets, orbit bars, diamonds, and simple comet blocks.</desc>
  <defs>
    <clipPath id="smallPlanet">
      <circle cx="248" cy="768" r="58"/>
    </clipPath>
    <clipPath id="topPlanet">
      <circle cx="1602" cy="218" r="70"/>
    </clipPath>
  </defs>

  <g opacity=".9">
    <circle cx="248" cy="768" r="58" fill="#fff8ea" stroke="#4ab3d4" stroke-width="7"/>
    <g clip-path="url(#smallPlanet)">
      <rect x="190" y="768" width="116" height="58" fill="#4ab3d4"/>
      <rect x="190" y="728" width="116" height="24" fill="#4ab3d4" opacity=".36"/>
    </g>
    <rect x="116" y="756" width="264" height="26" rx="13" fill="#4ab3d4" opacity=".7" transform="rotate(-10 248 768)"/>
    <rect x="166" y="762" width="164" height="14" rx="7" fill="#fff8ea" opacity=".94" transform="rotate(-10 248 768)"/>

    <circle cx="1602" cy="218" r="70" fill="#fff8ea" stroke="#4ab3d4" stroke-width="7"/>
    <g clip-path="url(#topPlanet)">
      <rect x="1532" y="218" width="140" height="70" fill="#4ab3d4"/>
      <rect x="1532" y="168" width="140" height="28" fill="#4ab3d4" opacity=".36"/>
    </g>
    <rect x="1474" y="205" width="256" height="27" rx="14" fill="#4ab3d4" opacity=".7" transform="rotate(15 1602 218)"/>
    <rect x="1524" y="212" width="156" height="14" rx="7" fill="#fff8ea" opacity=".94" transform="rotate(15 1602 218)"/>
  </g>

  <g opacity=".86">
    <path d="M1338 862h220l-70 44 86 42h-220l70-42z" fill="#fff8ea" stroke="#4ab3d4" stroke-width="8"/>
    <path d="M418 142h206l-64 40 78 38H432l64-38z" fill="#fff8ea" stroke="#4ab3d4" stroke-width="8"/>
  </g>

  <g fill="none" stroke="#4ab3d4" stroke-linecap="square" opacity=".56">
    <path d="M-30 238H248L410 166H760" stroke-width="6"/>
    <path d="M1018 980h330l156-92h386" stroke-width="6"/>
    <path d="M1216 86h210l120-54" stroke="#fff8ea" stroke-width="10"/>
  </g>

  <g fill="#fff8ea" stroke="#4ab3d4" stroke-width="5">
    <rect x="82" y="400" width="44" height="44" transform="rotate(45 104 422)"/>
    <rect x="760" y="934" width="34" height="34" transform="rotate(45 777 951)"/>
    <rect x="1738" y="540" width="48" height="48" transform="rotate(45 1762 564)"/>
  </g>
  <g fill="#4ab3d4" opacity=".52">
    <circle cx="246" cy="278" r="8"/><circle cx="584" cy="250" r="11"/><circle cx="1074" cy="184" r="10"/>
    <circle cx="1268" cy="312" r="6"/><circle cx="1816" cy="258" r="8"/><circle cx="1660" cy="744" r="7"/>
    <circle cx="1128" cy="900" r="10"/><circle cx="514" cy="842" r="7"/>
  </g>
</svg>
