<svg xmlns="http://www.w3.org/2000/svg" viewBox="0 0 1920 1080" width="1920" height="1080" role="img" aria-labelledby="title desc">
  <title id="title">Near two-tone cyan and cream foreground layer</title>
  <desc id="desc">Simple geometric cyan and cream planets, rings, stars, and orbit strokes for foreground parallax.</desc>
  <defs>
    <clipPath id="planetSmall">
      <circle cx="256" cy="766" r="60"/>
    </clipPath>
    <clipPath id="planetLarge">
      <circle cx="1595" cy="219" r="74"/>
    </clipPath>
  </defs>

  <g opacity=".92">
    <g>
      <circle cx="256" cy="766" r="60" fill="#fff8ea" stroke="#4ab3d4" stroke-width="6"/>
      <g clip-path="url(#planetSmall)">
        <path fill="#4ab3d4" d="M185 778c28-18 55-22 81-12 31 12 63 7 96-14v83H185z"/>
      </g>
      <ellipse cx="256" cy="766" rx="132" ry="25" fill="none" stroke="#4ab3d4" stroke-width="16" opacity=".72" transform="rotate(-13 256 766)"/>
      <ellipse cx="256" cy="766" rx="96" ry="16" fill="none" stroke="#fff8ea" stroke-width="10" opacity=".96" transform="rotate(-13 256 766)"/>
    </g>

    <g>
      <circle cx="1595" cy="219" r="74" fill="#fff8ea" stroke="#4ab3d4" stroke-width="7"/>
      <g clip-path="url(#planetLarge)">
        <path fill="#4ab3d4" d="M1508 240c40-26 77-31 111-15 35 17 73 12 114-16v96h-225z"/>
      </g>
      <ellipse cx="1595" cy="219" rx="128" ry="27" fill="none" stroke="#4ab3d4" stroke-width="14" opacity=".72" transform="rotate(18 1595 219)"/>
      <ellipse cx="1595" cy="219" rx="98" ry="17" fill="none" stroke="#fff8ea" stroke-width="9" opacity=".96" transform="rotate(18 1595 219)"/>
    </g>

    <g transform="translate(1317 836)">
      <path fill="#fff8ea" stroke="#4ab3d4" stroke-width="7" d="M0 61C66-1 143-18 231 12l-56 42 64 33c-88 41-168 32-239-26z"/>
      <path fill="#4ab3d4" d="M21 62c65 12 123 2 174-30l-20 22 64 33c-87 40-160 32-218-25z" opacity=".36"/>
    </g>

    <g transform="translate(400 106)">
      <path fill="#fff8ea" stroke="#4ab3d4" stroke-width="7" d="M43 77c-22-25-19-62 6-84 10 26 31 42 64 48 55 10 96 43 122 100-68 12-132-9-192-64z"/>
      <path fill="#4ab3d4" d="M55 0c21 25 55 44 101 57 39 11 65 39 79 84-69 11-133-10-192-64-21-24-18-56 12-77z" opacity=".32"/>
    </g>
  </g>

  <g fill="none" stroke-linecap="round" opacity=".64">
    <path d="M-24 221c205 47 346 31 423-48 101-104 248-125 442-63" stroke="#4ab3d4" stroke-width="5"/>
    <path d="M1028 993c164-122 312-159 445-110 120 44 260 18 420-77" stroke="#4ab3d4" stroke-width="5"/>
    <path d="M1227 81c112 33 217 22 316-34" stroke="#fff8ea" stroke-width="9"/>
  </g>

  <g fill="#fff8ea" stroke="#4ab3d4" stroke-width="4">
    <path d="M106 371l17 42 42 17-42 17-17 42-17-42-42-17 42-17z"/>
    <path d="M781 925l14 34 34 14-34 14-14 34-14-34-34-14 34-14z"/>
    <path d="M1744 516l20 49 49 20-49 20-20 49-20-49-49-20 49-20z"/>
  </g>
  <g fill="#4ab3d4" opacity=".5">
    <circle cx="252" cy="268" r="8"/><circle cx="587" cy="257" r="12"/><circle cx="753" cy="164" r="6"/>
    <circle cx="1077" cy="181" r="10"/><circle cx="1269" cy="311" r="6"/><circle cx="1816" cy="257" r="9"/>
    <circle cx="1661" cy="744" r="7"/><circle cx="1128" cy="899" r="11"/><circle cx="514" cy="842" r="7"/>
  </g>
</svg>
